<?xml version="1.0" encoding="UTF-8"?>
<!--Generator: Apple Native CoreSVG 129-->
<!DOCTYPE svg
PUBLIC "-//W3C//DTD SVG 1.1//EN"
       "http://www.w3.org/Graphics/SVG/1.1/DTD/svg11.dtd">
<svg version="1.1" xmlns="http://www.w3.org/2000/svg" xmlns:xlink="http://www.w3.org/1999/xlink" width="3300" height="2200">
 <!--glyph: "uni100153.medium", point size: 100.000000, font version: "Version 16.0d9e1", template writer version: "8"-->
 <g id="Notes">
  <rect height="2200" id="artboard" style="fill:white;opacity:1" width="3300" x="0" y="0"/>
  <line id="" style="fill:none;stroke:black;opacity:1;stroke-width:0.5;" x1="263" x2="3036" y1="292" y2="292"/>
  <text style="stroke:none;fill:black;font-family:-apple-system,&quot;SF Pro Display&quot;,&quot;SF Pro Text&quot;,Helvetica,sans-serif;font-weight:bold;" transform="matrix(1 0 0 1 263 322)">Weight/Scale Variations</text>
  <text style="stroke:none;fill:black;font-family:-apple-system,&quot;SF Pro Display&quot;,&quot;SF Pro Text&quot;,Helvetica,sans-serif;text-anchor:middle;" transform="matrix(1 0 0 1 559.711 322)">Ultralight</text>
  <text style="stroke:none;fill:black;font-family:-apple-system,&quot;SF Pro Display&quot;,&quot;SF Pro Text&quot;,Helvetica,sans-serif;text-anchor:middle;" transform="matrix(1 0 0 1 856.422 322)">Thin</text>
  <text style="stroke:none;fill:black;font-family:-apple-system,&quot;SF Pro Display&quot;,&quot;SF Pro Text&quot;,Helvetica,sans-serif;text-anchor:middle;" transform="matrix(1 0 0 1 1153.13 322)">Light</text>
  <text style="stroke:none;fill:black;font-family:-apple-system,&quot;SF Pro Display&quot;,&quot;SF Pro Text&quot;,Helvetica,sans-serif;text-anchor:middle;" transform="matrix(1 0 0 1 1449.84 322)">Regular</text>
  <text style="stroke:none;fill:black;font-family:-apple-system,&quot;SF Pro Display&quot;,&quot;SF Pro Text&quot;,Helvetica,sans-serif;text-anchor:middle;" transform="matrix(1 0 0 1 1746.56 322)">Medium</text>
  <text style="stroke:none;fill:black;font-family:-apple-system,&quot;SF Pro Display&quot;,&quot;SF Pro Text&quot;,Helvetica,sans-serif;text-anchor:middle;" transform="matrix(1 0 0 1 2043.27 322)">Semibold</text>
  <text style="stroke:none;fill:black;font-family:-apple-system,&quot;SF Pro Display&quot;,&quot;SF Pro Text&quot;,Helvetica,sans-serif;text-anchor:middle;" transform="matrix(1 0 0 1 2339.98 322)">Bold</text>
  <text style="stroke:none;fill:black;font-family:-apple-system,&quot;SF Pro Display&quot;,&quot;SF Pro Text&quot;,Helvetica,sans-serif;text-anchor:middle;" transform="matrix(1 0 0 1 2636.69 322)">Heavy</text>
  <text style="stroke:none;fill:black;font-family:-apple-system,&quot;SF Pro Display&quot;,&quot;SF Pro Text&quot;,Helvetica,sans-serif;text-anchor:middle;" transform="matrix(1 0 0 1 2933.4 322)">Black</text>
  <line id="" style="fill:none;stroke:black;opacity:1;stroke-width:0.5;" x1="263" x2="3036" y1="1903" y2="1903"/>
  <g id="" transform="matrix(1 0 0 1 263 1933)">
   <path d="M 9.24805 0.830078 C 13.5547 0.830078 17.1387 -2.74414 17.1387 -7.05078 C 17.1387 -11.3574 13.5449 -14.9316 9.23828 -14.9316 C 4.94141 -14.9316 1.36719 -11.3574 1.36719 -7.05078 C 1.36719 -2.74414 4.95117 0.830078 9.24805 0.830078 Z M 9.24805 -0.654297 C 5.70312 -0.654297 2.87109 -3.49609 2.87109 -7.05078 C 2.87109 -10.6055 5.69336 -13.4473 9.23828 -13.4473 C 12.793 -13.4473 15.6348 -10.6055 15.6445 -7.05078 C 15.6543 -3.49609 12.8027 -0.654297 9.24805 -0.654297 Z M 9.22852 -3.62305 C 9.69727 -3.62305 9.9707 -3.93555 9.9707 -4.45312 L 9.9707 -6.31836 L 12.002 -6.31836 C 12.5 -6.31836 12.832 -6.57227 12.832 -7.04102 C 12.832 -7.51953 12.5195 -7.7832 12.002 -7.7832 L 9.9707 -7.7832 L 9.9707 -9.81445 C 9.9707 -10.332 9.69727 -10.6543 9.22852 -10.6543 C 8.75977 -10.6543 8.50586 -10.3125 8.50586 -9.81445 L 8.50586 -7.7832 L 6.49414 -7.7832 C 5.97656 -7.7832 5.64453 -7.51953 5.64453 -7.04102 C 5.64453 -6.57227 5.99609 -6.31836 6.49414 -6.31836 L 8.50586 -6.31836 L 8.50586 -4.45312 C 8.50586 -3.95508 8.75977 -3.62305 9.22852 -3.62305 Z"/>
  </g>
  <g id="" transform="matrix(1 0 0 1 281.506 1933)">
   <path d="M 11.709 2.91016 C 17.1582 2.91016 21.6699 -1.61133 21.6699 -7.05078 C 21.6699 -12.5 17.1484 -17.0117 11.6992 -17.0117 C 6.25977 -17.0117 1.74805 -12.5 1.74805 -7.05078 C 1.74805 -1.61133 6.26953 2.91016 11.709 2.91016 Z M 11.709 1.25 C 7.09961 1.25 3.41797 -2.44141 3.41797 -7.05078 C 3.41797 -11.6602 7.08984 -15.3516 11.6992 -15.3516 C 16.3086 -15.3516 20 -11.6602 20.0098 -7.05078 C 20.0195 -2.44141 16.3184 1.25 11.709 1.25 Z M 11.6797 -2.66602 C 12.207 -2.66602 12.5098 -3.01758 12.5098 -3.59375 L 12.5098 -6.23047 L 15.3223 -6.23047 C 15.8691 -6.23047 16.25 -6.51367 16.25 -7.03125 C 16.25 -7.55859 15.8887 -7.86133 15.3223 -7.86133 L 12.5098 -7.86133 L 12.5098 -10.6836 C 12.5098 -11.25 12.207 -11.6113 11.6797 -11.6113 C 11.1621 -11.6113 10.8789 -11.2305 10.8789 -10.6836 L 10.8789 -7.86133 L 8.07617 -7.86133 C 7.50977 -7.86133 7.13867 -7.55859 7.13867 -7.03125 C 7.13867 -6.51367 7.5293 -6.23047 8.07617 -6.23047 L 10.8789 -6.23047 L 10.8789 -3.59375 C 10.8789 -3.03711 11.1621 -2.66602 11.6797 -2.66602 Z"/>
  </g>
  <g id="" transform="matrix(1 0 0 1 304.924 1933)">
   <path d="M 14.9707 5.66406 C 21.9336 5.66406 27.6953 -0.0976562 27.6953 -7.05078 C 27.6953 -14.0137 21.9238 -19.7754 14.9609 -19.7754 C 8.00781 -19.7754 2.25586 -14.0137 2.25586 -7.05078 C 2.25586 -0.0976562 8.01758 5.66406 14.9707 5.66406 Z M 14.9707 3.84766 C 8.93555 3.84766 4.08203 -1.01562 4.08203 -7.05078 C 4.08203 -13.0957 8.92578 -17.9492 14.9609 -17.9492 C 21.0059 -17.9492 25.8594 -13.0957 25.8691 -7.05078 C 25.8789 -1.01562 21.0156 3.84766 14.9707 3.84766 Z M 14.9414 -1.38672 C 15.5176 -1.38672 15.8594 -1.77734 15.8594 -2.38281 L 15.8594 -6.13281 L 19.7754 -6.13281 C 20.3711 -6.13281 20.7812 -6.46484 20.7812 -7.02148 C 20.7812 -7.59766 20.3906 -7.93945 19.7754 -7.93945 L 15.8594 -7.93945 L 15.8594 -11.8652 C 15.8594 -12.4805 15.5176 -12.8711 14.9414 -12.8711 C 14.375 -12.8711 14.0527 -12.4609 14.0527 -11.8652 L 14.0527 -7.93945 L 10.1465 -7.93945 C 9.53125 -7.93945 9.13086 -7.59766 9.13086 -7.02148 C 9.13086 -6.46484 9.55078 -6.13281 10.1465 -6.13281 L 14.0527 -6.13281 L 14.0527 -2.38281 C 14.0527 -1.79688 14.375 -1.38672 14.9414 -1.38672 Z"/>
  </g>
  <text style="stroke:none;fill:black;font-family:-apple-system,&quot;SF Pro Display&quot;,&quot;SF Pro Text&quot;,Helvetica,sans-serif;font-weight:bold;" transform="matrix(1 0 0 1 263 1953)">Design Variations</text>
  <text style="stroke:none;fill:black;font-family:-apple-system,&quot;SF Pro Display&quot;,&quot;SF Pro Text&quot;,Helvetica,sans-serif;" transform="matrix(1 0 0 1 263 1971)">Symbols are supported in up to nine weights and three scales.</text>
  <text style="stroke:none;fill:black;font-family:-apple-system,&quot;SF Pro Display&quot;,&quot;SF Pro Text&quot;,Helvetica,sans-serif;" transform="matrix(1 0 0 1 263 1989)">For optimal layout with text and other symbols, vertically align</text>
  <text style="stroke:none;fill:black;font-family:-apple-system,&quot;SF Pro Display&quot;,&quot;SF Pro Text&quot;,Helvetica,sans-serif;" transform="matrix(1 0 0 1 263 2007)">symbols with the adjacent text.</text>
  <line id="" style="fill:none;stroke:#00AEEF;stroke-width:0.5;opacity:1.0;" x1="776" x2="776" y1="1919" y2="1933"/>
  <g id="" transform="matrix(1 0 0 1 776 1933)">
   <path d="M 3.31055 0.126953 C 3.82812 0.126953 4.08203 -0.0683594 4.26758 -0.605469 L 5.52734 -4.0625 L 11.2891 -4.0625 L 12.5488 -0.605469 C 12.7344 -0.0683594 12.9883 0.126953 13.4961 0.126953 C 14.0137 0.126953 14.3457 -0.185547 14.3457 -0.673828 C 14.3457 -0.839844 14.3164 -0.986328 14.2383 -1.20117 L 9.6582 -13.3887 C 9.43359 -13.9941 9.0332 -14.2871 8.4082 -14.2871 C 7.80273 -14.2871 7.39258 -13.9941 7.17773 -13.3984 L 2.59766 -1.19141 C 2.51953 -0.976562 2.49023 -0.830078 2.49023 -0.664062 C 2.49023 -0.175781 2.80273 0.126953 3.31055 0.126953 Z M 6.00586 -5.53711 L 8.37891 -12.1094 L 8.42773 -12.1094 L 10.8008 -5.53711 Z"/>
  </g>
  <line id="" style="fill:none;stroke:#00AEEF;stroke-width:0.5;opacity:1.0;" x1="792.836" x2="792.836" y1="1919" y2="1933"/>
  <text style="stroke:none;fill:black;font-family:-apple-system,&quot;SF Pro Display&quot;,&quot;SF Pro Text&quot;,Helvetica,sans-serif;font-weight:bold;" transform="matrix(1 0 0 1 776 1953)">Margins</text>
  <text style="stroke:none;fill:black;font-family:-apple-system,&quot;SF Pro Display&quot;,&quot;SF Pro Text&quot;,Helvetica,sans-serif;" transform="matrix(1 0 0 1 776 1971)">Leading and trailing margins on the left and right side of each symbol</text>
  <text style="stroke:none;fill:black;font-family:-apple-system,&quot;SF Pro Display&quot;,&quot;SF Pro Text&quot;,Helvetica,sans-serif;" transform="matrix(1 0 0 1 776 1989)">can be adjusted by modifying the x-location of the margin guidelines.</text>
  <text style="stroke:none;fill:black;font-family:-apple-system,&quot;SF Pro Display&quot;,&quot;SF Pro Text&quot;,Helvetica,sans-serif;" transform="matrix(1 0 0 1 776 2007)">Modifications are automatically applied proportionally to all</text>
  <text style="stroke:none;fill:black;font-family:-apple-system,&quot;SF Pro Display&quot;,&quot;SF Pro Text&quot;,Helvetica,sans-serif;" transform="matrix(1 0 0 1 776 2025)">scales and weights.</text>
  <g id="" transform="matrix(1 0 0 1 1289 1933)">
   <path d="M 2.8418 1.86523 L 4.54102 3.57422 C 5.40039 4.44336 6.38672 4.38477 7.31445 3.35938 L 17.4902 -7.85156 C 17.7539 -7.76367 18.0273 -7.7832 18.3398 -7.8418 L 19.4043 -8.03711 L 20.0684 -7.36328 L 20.0293 -6.80664 C 19.9902 -6.30859 20.1172 -5.92773 20.6055 -5.44922 L 21.3672 -4.70703 C 21.8457 -4.22852 22.4609 -4.19922 22.9297 -4.66797 L 25.8398 -7.58789 C 26.3086 -8.05664 26.2891 -8.65234 25.8105 -9.13086 L 25.0391 -9.89258 C 24.5605 -10.3711 24.1895 -10.5273 23.7109 -10.4883 L 23.1348 -10.4395 L 22.4902 -11.0742 L 22.7344 -12.1973 C 22.8613 -12.7637 22.7051 -13.2031 22.1191 -13.7891 L 19.9219 -15.9766 C 16.582 -19.2969 12.1484 -19.2188 9.25781 -16.3281 C 8.83789 -15.918 8.80859 -15.3418 9.04297 -14.9512 C 9.27734 -14.5898 9.73633 -14.3555 10.3809 -14.5215 C 11.8457 -14.8633 13.3691 -14.9219 14.7949 -13.9844 L 14.209 -12.5293 C 14.0137 -12.0508 13.9844 -11.6504 14.1113 -11.2891 L 3.04688 -0.898438 C 2.06055 0.0195312 1.98242 0.996094 2.8418 1.86523 Z M 10.752 -15.957 C 13.1836 -17.7344 16.4746 -17.4316 18.7012 -15.2051 L 21.1328 -12.793 C 21.3672 -12.5586 21.4062 -12.373 21.3379 -12.0312 L 21.0156 -10.5469 L 22.5195 -9.0625 L 23.5059 -9.12109 C 23.7598 -9.13086 23.8379 -9.11133 24.0332 -8.91602 L 24.6094 -8.33984 L 22.168 -5.89844 L 21.5918 -6.47461 C 21.3965 -6.66992 21.3672 -6.74805 21.377 -7.01172 L 21.4453 -7.98828 L 19.9512 -9.47266 L 18.4277 -9.21875 C 18.1055 -9.15039 17.959 -9.17969 17.7148 -9.41406 L 15.7129 -11.416 C 15.459 -11.6504 15.4297 -11.8164 15.5859 -12.1875 L 16.4648 -14.2773 C 14.9023 -15.7324 12.8711 -16.3574 10.8398 -15.7617 C 10.6836 -15.7227 10.625 -15.8496 10.752 -15.957 Z M 5.27344 2.30469 L 4.10156 1.14258 C 3.63281 0.683594 3.74023 0.341797 4.14062 -0.0195312 L 14.9512 -10.1953 L 16.416 -8.71094 L 6.42578 2.27539 C 6.07422 2.67578 5.74219 2.77344 5.27344 2.30469 Z"/>
  </g>
  <text style="stroke:none;fill:black;font-family:-apple-system,&quot;SF Pro Display&quot;,&quot;SF Pro Text&quot;,Helvetica,sans-serif;font-weight:bold;" transform="matrix(1 0 0 1 1289 1953)">Exporting</text>
  <text style="stroke:none;fill:black;font-family:-apple-system,&quot;SF Pro Display&quot;,&quot;SF Pro Text&quot;,Helvetica,sans-serif;" transform="matrix(1 0 0 1 1289 1971)">Symbols should be outlined when exporting to ensure the</text>
  <text style="stroke:none;fill:black;font-family:-apple-system,&quot;SF Pro Display&quot;,&quot;SF Pro Text&quot;,Helvetica,sans-serif;" transform="matrix(1 0 0 1 1289 1989)">design is preserved when submitting to Xcode.</text>
  <text id="template-version" style="stroke:none;fill:black;font-family:-apple-system,&quot;SF Pro Display&quot;,&quot;SF Pro Text&quot;,Helvetica,sans-serif;text-anchor:end;" transform="matrix(1 0 0 1 3036 1933)">Template v.2.0</text>
  <text style="stroke:none;fill:black;font-family:-apple-system,&quot;SF Pro Display&quot;,&quot;SF Pro Text&quot;,Helvetica,sans-serif;text-anchor:end;" transform="matrix(1 0 0 1 3036 1951)">Requires Xcode 12 or greater</text>
  <text style="stroke:none;fill:black;font-family:-apple-system,&quot;SF Pro Display&quot;,&quot;SF Pro Text&quot;,Helvetica,sans-serif;text-anchor:end;" transform="matrix(1 0 0 1 3036 1969)">Generated from bold</text>
  <text style="stroke:none;fill:black;font-family:-apple-system,&quot;SF Pro Display&quot;,&quot;SF Pro Text&quot;,Helvetica,sans-serif;text-anchor:end;" transform="matrix(1 0 0 1 3036 1987)">Typeset at 100 points</text>
  <text style="stroke:none;fill:black;font-family:-apple-system,&quot;SF Pro Display&quot;,&quot;SF Pro Text&quot;,Helvetica,sans-serif;" transform="matrix(1 0 0 1 263 726)">Small</text>
  <text style="stroke:none;fill:black;font-family:-apple-system,&quot;SF Pro Display&quot;,&quot;SF Pro Text&quot;,Helvetica,sans-serif;" transform="matrix(1 0 0 1 263 1156)">Medium</text>
  <text style="stroke:none;fill:black;font-family:-apple-system,&quot;SF Pro Display&quot;,&quot;SF Pro Text&quot;,Helvetica,sans-serif;" transform="matrix(1 0 0 1 263 1586)">Large</text>
 </g>
 <g id="Guides">
  <g id="H-reference" style="fill:#27AAE1;stroke:none;" transform="matrix(1 0 0 1 339 696)">
   <path d="M 0.976562 0 L 3.66211 0 L 12.9883 -24.4629 L 45.7031 -24.4629 L 55.0781 0 L 57.7148 0 L 30.6152 -70.459 L 28.125 -70.459 Z M 29.2969 -67.1387 L 29.3945 -67.1387 L 44.873 -26.709 L 13.8672 -26.709 Z"/>
  </g>
  <line id="Baseline-S" style="fill:none;stroke:#27AAE1;opacity:1;stroke-width:0.5;" x1="263" x2="3036" y1="696" y2="696"/>
  <line id="Capline-S" style="fill:none;stroke:#27AAE1;opacity:1;stroke-width:0.5;" x1="263" x2="3036" y1="625.541" y2="625.541"/>
  <g id="H-reference" style="fill:#27AAE1;stroke:none;" transform="matrix(1 0 0 1 339 1126)">
   <path d="M 0.976562 0 L 3.66211 0 L 12.9883 -24.4629 L 45.7031 -24.4629 L 55.0781 0 L 57.7148 0 L 30.6152 -70.459 L 28.125 -70.459 Z M 29.2969 -67.1387 L 29.3945 -67.1387 L 44.873 -26.709 L 13.8672 -26.709 Z"/>
  </g>
  <line id="Baseline-M" style="fill:none;stroke:#27AAE1;opacity:1;stroke-width:0.5;" x1="263" x2="3036" y1="1126" y2="1126"/>
  <line id="Capline-M" style="fill:none;stroke:#27AAE1;opacity:1;stroke-width:0.5;" x1="263" x2="3036" y1="1055.54" y2="1055.54"/>
  <g id="H-reference" style="fill:#27AAE1;stroke:none;" transform="matrix(1 0 0 1 339 1556)">
   <path d="M 0.976562 0 L 3.66211 0 L 12.9883 -24.4629 L 45.7031 -24.4629 L 55.0781 0 L 57.7148 0 L 30.6152 -70.459 L 28.125 -70.459 Z M 29.2969 -67.1387 L 29.3945 -67.1387 L 44.873 -26.709 L 13.8672 -26.709 Z"/>
  </g>
  <line id="Baseline-L" style="fill:none;stroke:#27AAE1;opacity:1;stroke-width:0.5;" x1="263" x2="3036" y1="1556" y2="1556"/>
  <line id="Capline-L" style="fill:none;stroke:#27AAE1;opacity:1;stroke-width:0.5;" x1="263" x2="3036" y1="1485.54" y2="1485.54"/>
  <line id="left-margin" style="fill:none;stroke:#00AEEF;stroke-width:0.5;opacity:1.0;" x1="1408.36" x2="1408.36" y1="1030.79" y2="1150.12"/>
  <line id="right-margin" style="fill:none;stroke:#00AEEF;stroke-width:0.5;opacity:1.0;" x1="1491.32" x2="1491.32" y1="1030.79" y2="1150.12"/>
 </g>
 <g id="Symbols">
  <g id="Black-L" transform="matrix(1 0 0 1 2875.98 1556)">
   <path d="M 29.6875 12.1582 L 64.7949 12.1582 C 85.4492 12.1582 98.7793 1.2207 98.7793 -15.332 C 98.7793 -27.9297 88.2812 -37.5 75 -37.8906 L 75 -38.4277 C 86.2305 -39.8438 94.4336 -47.998 94.4336 -58.7891 C 94.4336 -73.584 82.8613 -82.5195 63.3789 -82.5195 L 29.6875 -82.5195 C 21.3379 -82.5195 16.0645 -77.5879 16.0645 -69.0918 L 16.0645 -1.26953 C 16.0645 7.32422 21.3379 12.1582 29.6875 12.1582 Z M 45.8008 -44.2871 L 45.8008 -64.1602 L 53.1738 -64.1602 C 60.791 -64.1602 65.3809 -60.4004 65.3809 -54.2969 C 65.3809 -48.1445 60.498 -44.2871 52.4414 -44.2871 Z M 45.8008 -6.15234 L 45.8008 -28.7109 L 53.9551 -28.7109 C 63.1836 -28.7109 68.5547 -24.707 68.5547 -17.627 C 68.5547 -10.1562 64.4531 -6.15234 55.0781 -6.15234 Z"/>
  </g>
  <g id="Heavy-L" transform="matrix(1 0 0 1 2580.37 1556)">
   <path d="M 28.7598 11.6211 L 63.1836 11.6211 C 83.5449 11.6211 96.582 0.878906 96.582 -15.4297 C 96.582 -27.9297 86.4746 -37.3535 73.291 -37.8418 L 73.291 -38.3789 C 84.3262 -39.7949 92.2363 -47.9492 92.2363 -58.5449 C 92.2363 -73.1445 80.8594 -81.9824 61.9141 -81.9824 L 28.7598 -81.9824 C 20.9473 -81.9824 16.0645 -77.3926 16.0645 -69.4336 L 16.0645 -0.927734 C 16.0645 7.08008 20.9473 11.6211 28.7598 11.6211 Z M 43.2129 -43.8965 L 43.2129 -64.6973 L 52.832 -64.6973 C 60.8398 -64.6973 65.6738 -60.8398 65.6738 -54.4434 C 65.6738 -47.9004 60.498 -43.8965 51.8555 -43.8965 Z M 43.2129 -5.56641 L 43.2129 -29.0527 L 53.5156 -29.0527 C 63.3301 -29.0527 68.9453 -24.9512 68.9453 -17.5293 C 68.9453 -9.76562 64.3555 -5.56641 54.4922 -5.56641 Z"/>
  </g>
  <g id="Bold-L" transform="matrix(1 0 0 1 2284.88 1556)">
   <path d="M 27.6855 11.0352 L 61.4258 11.0352 C 81.3965 11.0352 94.1406 0.537109 94.1406 -15.5273 C 94.1406 -27.9785 84.4727 -37.207 71.4355 -37.793 L 71.4355 -38.3301 C 82.1777 -39.7949 89.8438 -47.9004 89.8438 -58.252 C 89.8438 -72.6562 78.6621 -81.4453 60.3027 -81.4453 L 27.6855 -81.4453 C 20.459 -81.4453 16.0645 -77.1973 16.0645 -69.8242 L 16.0645 -0.585938 C 16.0645 6.78711 20.459 11.0352 27.6855 11.0352 Z M 40.3809 -43.4082 L 40.3809 -65.3809 L 52.4902 -65.3809 C 60.9375 -65.3809 66.0156 -61.3281 66.0156 -54.6387 C 66.0156 -47.6562 60.498 -43.4082 51.2207 -43.4082 Z M 40.3809 -4.93164 L 40.3809 -29.4922 L 52.9785 -29.4922 C 63.4766 -29.4922 69.3848 -25.1953 69.3848 -17.3828 C 69.3848 -9.27734 64.209 -4.93164 53.8086 -4.93164 Z"/>
  </g>
  <g id="Semibold-L" transform="matrix(1 0 0 1 1989.02 1556)">
   <path d="M 26.9531 10.5957 L 60.2051 10.5957 C 79.9316 10.5957 92.4316 0.292969 92.4316 -15.625 C 92.4316 -28.0273 83.0566 -37.0605 70.1172 -37.793 L 70.1172 -38.2812 C 80.7129 -39.7461 88.1836 -47.8516 88.1836 -58.0566 C 88.1836 -72.3145 77.1484 -81.0547 59.2285 -81.0547 L 26.9531 -81.0547 C 20.166 -81.0547 16.0645 -77.0508 16.0645 -70.0684 L 16.0645 -0.341797 C 16.0645 6.5918 20.166 10.5957 26.9531 10.5957 Z M 38.4277 -43.1152 L 38.4277 -65.8203 L 52.1973 -65.8203 C 60.9863 -65.8203 66.2109 -61.6699 66.2109 -54.7363 C 66.2109 -47.4609 60.4492 -43.1152 50.7324 -43.1152 Z M 38.4277 -4.49219 L 38.4277 -29.7363 L 52.5879 -29.7363 C 63.5742 -29.7363 69.7266 -25.3418 69.7266 -17.2363 C 69.7266 -8.98438 64.1602 -4.49219 53.3203 -4.49219 Z"/>
  </g>
  <g id="Medium-L" transform="matrix(1 0 0 1 1692.94 1556)">
   <path d="M 26.416 10.3027 L 59.2773 10.3027 C 78.8574 10.3027 91.1621 0.0976562 91.1621 -15.6738 C 91.1621 -28.0273 82.0312 -37.0117 69.1406 -37.7441 L 69.1406 -38.2324 C 79.5898 -39.7461 86.9141 -47.8027 86.9141 -57.9102 C 86.9141 -72.0215 76.0254 -80.7617 58.3496 -80.7617 L 26.416 -80.7617 C 19.9219 -80.7617 16.0645 -76.9043 16.0645 -70.2637 L 16.0645 -0.195312 C 16.0645 6.44531 19.9219 10.3027 26.416 10.3027 Z M 36.9141 -42.8711 L 36.9141 -66.1621 L 52.002 -66.1621 C 61.0352 -66.1621 66.4062 -61.9629 66.4062 -54.834 C 66.4062 -47.3145 60.4492 -42.8711 50.3906 -42.8711 Z M 36.9141 -4.15039 L 36.9141 -29.9805 L 52.2949 -29.9805 C 63.6719 -29.9805 69.9707 -25.4883 69.9707 -17.1875 C 69.9707 -8.74023 64.0625 -4.15039 52.9785 -4.15039 Z"/>
  </g>
  <g id="Regular-L" transform="matrix(1 0 0 1 1397.06 1556)">
   <path d="M 25.6836 9.91211 L 58.0566 9.91211 C 77.3926 9.91211 89.502 -0.146484 89.502 -15.7715 C 89.502 -28.0762 80.6152 -36.9141 67.8223 -37.6953 L 67.8223 -38.2324 C 78.1738 -39.6973 85.2539 -47.7539 85.2539 -57.7148 C 85.2539 -71.6797 74.5117 -80.3711 57.2754 -80.3711 L 25.6836 -80.3711 C 19.5801 -80.3711 16.0645 -76.7578 16.0645 -70.5566 L 16.0645 0.0488281 C 16.0645 6.29883 19.5801 9.91211 25.6836 9.91211 Z M 34.9609 -42.5293 L 34.9609 -66.6016 L 51.7578 -66.6016 C 61.084 -66.6016 66.6016 -62.3047 66.6016 -54.9316 C 66.6016 -47.168 60.4492 -42.5293 49.9512 -42.5293 Z M 34.9609 -3.75977 L 34.9609 -30.2246 L 51.9531 -30.2246 C 63.7695 -30.2246 70.2637 -25.6348 70.2637 -17.0898 C 70.2637 -8.39844 63.9648 -3.75977 52.4902 -3.75977 Z"/>
  </g>
  <g id="Light-L" transform="matrix(1 0 0 1 1101.38 1556)">
   <path d="M 24.2676 10.0098 L 56.0059 10.0098 C 75.4395 10.0098 87.4512 0.146484 87.4512 -15.5273 C 87.4512 -27.832 78.6133 -36.6211 65.8691 -37.6465 L 65.8691 -38.0859 C 75.9766 -39.6973 83.1055 -47.9004 83.1055 -57.8613 C 83.1055 -71.6797 72.2656 -80.4688 55.4199 -80.4688 L 24.2676 -80.4688 C 19.1406 -80.4688 16.0645 -77.3438 16.0645 -72.0703 L 16.0645 1.61133 C 16.0645 6.88477 19.1406 10.0098 24.2676 10.0098 Z M 32.373 -42.0898 L 32.373 -68.0664 L 50.9277 -68.0664 C 60.9863 -68.0664 66.9434 -63.4277 66.9434 -55.4688 C 66.9434 -47.0215 60.3027 -42.0898 48.8281 -42.0898 Z M 32.373 -2.29492 L 32.373 -30.8105 L 50.9277 -30.8105 C 63.8184 -30.8105 70.8496 -25.8301 70.8496 -16.6504 C 70.8496 -7.37305 64.0625 -2.29492 51.6602 -2.29492 Z"/>
  </g>
  <g id="Thin-L" transform="matrix(1 0 0 1 805.983 1556)">
   <path d="M 22.4121 10.2051 L 53.2715 10.2051 C 72.9004 10.2051 84.8145 0.488281 84.8145 -15.2344 C 84.8145 -27.5391 75.9766 -36.2305 63.2324 -37.5488 L 63.2324 -37.9395 C 73.0469 -39.6484 80.1758 -48.0957 80.1758 -58.0566 C 80.1758 -71.6797 69.3359 -80.6152 52.9785 -80.6152 L 22.4121 -80.6152 C 18.5059 -80.6152 16.0645 -78.0762 16.0645 -74.0723 L 16.0645 3.66211 C 16.0645 7.71484 18.5059 10.2051 22.4121 10.2051 Z M 28.9551 -41.4551 L 28.9551 -69.9707 L 49.8047 -69.9707 C 60.8398 -69.9707 67.334 -64.9414 67.334 -56.25 C 67.334 -46.875 60.0586 -41.4551 47.3633 -41.4551 Z M 28.9551 -0.390625 L 28.9551 -31.5918 L 49.6094 -31.5918 C 63.916 -31.5918 71.582 -26.123 71.582 -16.0645 C 71.582 -5.95703 64.209 -0.390625 50.5859 -0.390625 Z"/>
  </g>
  <g id="Ultralight-L" transform="matrix(1 0 0 1 509.955 1556)">
   <path d="M 21.4844 10.3027 L 51.9043 10.3027 C 71.582 10.3027 83.4473 0.683594 83.4473 -15.0879 C 83.4473 -27.3926 74.6094 -36.084 61.9141 -37.5 L 61.9141 -37.8906 C 71.582 -39.5996 78.7109 -48.1934 78.7109 -58.1543 C 78.7109 -71.6797 67.8711 -80.6641 51.709 -80.6641 L 21.4844 -80.6641 C 18.1641 -80.6641 16.0645 -78.4668 16.0645 -75.0977 L 16.0645 4.73633 C 16.0645 8.10547 18.1641 10.3027 21.4844 10.3027 Z M 27.1973 -41.1621 L 27.1973 -70.9473 L 49.2676 -70.9473 C 60.7422 -70.9473 67.5781 -65.7227 67.5781 -56.5918 C 67.5781 -46.8262 59.9121 -41.1621 46.582 -41.1621 Z M 27.1973 0.585938 L 27.1973 -31.9824 L 48.9746 -31.9824 C 63.916 -31.9824 71.9727 -26.2695 71.9727 -15.7227 C 71.9727 -5.27344 64.2578 0.585938 50.0488 0.585938 Z"/>
  </g>
  <g id="Black-M" transform="matrix(1 0 0 1 2887.97 1126)">
   <path d="M 23.5352 2.24609 L 51.2207 2.24609 C 67.7246 2.24609 78.418 -6.39648 78.418 -19.5312 C 78.418 -29.3945 69.7754 -37.0117 59.375 -37.3047 L 59.375 -37.6953 C 68.2129 -38.8184 74.9023 -45.3125 74.9023 -53.9062 C 74.9023 -65.5273 65.6738 -72.6074 50.0488 -72.6074 L 23.5352 -72.6074 C 16.8457 -72.6074 12.4512 -68.6523 12.4512 -61.8164 L 12.4512 -8.49609 C 12.4512 -1.61133 16.8457 2.24609 23.5352 2.24609 Z M 37.5488 -42.5781 L 37.5488 -57.6172 L 41.2598 -57.6172 C 46.9727 -57.6172 50.4395 -54.7852 50.4395 -50.0977 C 50.4395 -45.5078 46.7773 -42.5781 40.8203 -42.5781 Z M 37.5488 -12.6953 L 37.5488 -30.0293 L 41.9434 -30.0293 C 48.8281 -30.0293 52.8809 -26.9043 52.8809 -21.5332 C 52.8809 -15.8203 50.1953 -12.6953 43.0664 -12.6953 Z"/>
  </g>
  <g id="Heavy-M" transform="matrix(1 0 0 1 2592.18 1126)">
   <path d="M 22.8516 1.66016 L 50.0488 1.66016 C 66.1621 1.66016 76.5625 -6.83594 76.5625 -19.7266 C 76.5625 -29.4922 68.3105 -36.9141 58.0078 -37.3047 L 58.0078 -37.6953 C 66.6992 -38.7695 73.1445 -45.2148 73.1445 -53.6133 C 73.1445 -65.0391 64.1113 -72.0215 48.9746 -72.0215 L 22.8516 -72.0215 C 16.5039 -72.0215 12.4512 -68.2617 12.4512 -61.8164 L 12.4512 -8.54492 C 12.4512 -2.05078 16.5039 1.66016 22.8516 1.66016 Z M 35.4492 -42.2363 L 35.4492 -57.9102 L 41.0645 -57.9102 C 47.0703 -57.9102 50.6836 -54.9316 50.6836 -50.0977 C 50.6836 -45.2637 46.8262 -42.2363 40.4785 -42.2363 Z M 35.4492 -12.4512 L 35.4492 -30.2734 L 41.6992 -30.2734 C 48.9746 -30.2734 53.1738 -27.0996 53.1738 -21.5332 C 53.1738 -15.625 50 -12.4512 42.627 -12.4512 Z"/>
  </g>
  <g id="Bold-M" transform="matrix(1 0 0 1 2296.52 1126)">
   <path d="M 22.1191 0.976562 L 48.6816 0.976562 C 64.4043 0.976562 74.4629 -7.32422 74.4629 -19.9219 C 74.4629 -29.5898 66.6992 -36.8652 56.543 -37.2559 L 56.543 -37.6465 C 65.0391 -38.7695 71.1426 -45.0684 71.1426 -53.2715 C 71.1426 -64.502 62.3535 -71.3867 47.7539 -71.3867 L 22.1191 -71.3867 C 16.1621 -71.3867 12.4512 -67.8711 12.4512 -61.7676 L 12.4512 -8.64258 C 12.4512 -2.49023 16.1621 0.976562 22.1191 0.976562 Z M 33.0566 -41.8457 L 33.0566 -58.1543 L 40.918 -58.1543 C 47.168 -58.1543 50.9277 -55.1758 50.9277 -50.1465 C 50.9277 -45.0195 46.875 -41.8457 40.0879 -41.8457 Z M 33.0566 -12.1582 L 33.0566 -30.5176 L 41.4062 -30.5176 C 49.1211 -30.5176 53.5156 -27.2949 53.5156 -21.4844 C 53.5156 -15.4297 49.8535 -12.1582 42.1387 -12.1582 Z"/>
  </g>
  <g id="Semibold-M" transform="matrix(1 0 0 1 2000.54 1126)">
   <path d="M 21.582 0.488281 L 47.7539 0.488281 C 63.1836 0.488281 72.998 -7.61719 72.998 -20.0195 C 72.998 -29.6875 65.5762 -36.7676 55.5176 -37.2559 L 55.5176 -37.6465 C 63.8672 -38.7695 69.7266 -44.9707 69.7266 -52.9785 C 69.7266 -64.1602 61.1328 -70.9473 46.9238 -70.9473 L 21.582 -70.9473 C 15.918 -70.9473 12.4512 -67.5781 12.4512 -61.7676 L 12.4512 -8.69141 C 12.4512 -2.83203 15.918 0.488281 21.582 0.488281 Z M 31.4453 -41.6016 L 31.4453 -58.3496 L 40.7715 -58.3496 C 47.2656 -58.3496 51.123 -55.3223 51.123 -50.1465 C 51.123 -44.8242 46.9238 -41.6016 39.8438 -41.6016 Z M 31.4453 -11.9629 L 31.4453 -30.7129 L 41.1621 -30.7129 C 49.2188 -30.7129 53.7109 -27.4414 53.7109 -21.4355 C 53.7109 -15.2832 49.7559 -11.9629 41.748 -11.9629 Z"/>
  </g>
  <g id="Medium-M" transform="matrix(1 0 0 1 1704.37 1126)">
   <path d="M 21.2402 0.146484 L 47.0703 0.146484 C 62.2559 0.146484 71.9238 -7.86133 71.9238 -20.1172 C 71.9238 -29.7363 64.7461 -36.7188 54.7363 -37.207 L 54.7363 -37.6465 C 62.9883 -38.7207 68.7012 -44.9219 68.7012 -52.832 C 68.7012 -63.8672 60.2051 -70.6055 46.2891 -70.6055 L 21.2402 -70.6055 C 15.7227 -70.6055 12.4512 -67.3828 12.4512 -61.7676 L 12.4512 -8.69141 C 12.4512 -3.07617 15.7227 0.146484 21.2402 0.146484 Z M 30.1758 -41.4062 L 30.1758 -58.4961 L 40.6738 -58.4961 C 47.3145 -58.4961 51.2695 -55.4199 51.2695 -50.1953 C 51.2695 -44.7266 46.9238 -41.4062 39.5996 -41.4062 Z M 30.1758 -11.8164 L 30.1758 -30.8594 L 41.0156 -30.8594 C 49.2676 -30.8594 53.9062 -27.5391 53.9062 -21.4355 C 53.9062 -15.1855 49.6582 -11.8164 41.5039 -11.8164 Z"/>
  </g>
  <g id="Regular-M" transform="matrix(1 0 0 1 1408.36 1126)">
   <path d="M 20.7031 -0.341797 L 46.1426 -0.341797 C 61.084 -0.341797 70.5078 -8.20312 70.5078 -20.2637 C 70.5078 -29.7852 63.623 -36.6699 53.7109 -37.207 L 53.7109 -37.5977 C 61.8164 -38.7207 67.334 -44.8242 67.334 -52.5879 C 67.334 -63.4766 58.9844 -70.166 45.459 -70.166 L 20.7031 -70.166 C 15.4785 -70.166 12.4512 -67.0898 12.4512 -61.7188 L 12.4512 -8.74023 C 12.4512 -3.41797 15.4785 -0.341797 20.7031 -0.341797 Z M 28.5645 -41.1621 L 28.5645 -58.6914 L 40.5762 -58.6914 C 47.4121 -58.6914 51.4648 -55.5664 51.4648 -50.1953 C 51.4648 -44.5312 46.9727 -41.1621 39.3555 -41.1621 Z M 28.5645 -11.6211 L 28.5645 -31.0059 L 40.8203 -31.0059 C 49.3652 -31.0059 54.1504 -27.6855 54.1504 -21.4355 C 54.1504 -15.0391 49.5605 -11.6211 41.1621 -11.6211 Z"/>
  </g>
  <g id="Light-M" transform="matrix(1 0 0 1 1112.56 1126)">
   <path d="M 19.4336 -0.195312 L 44.3359 -0.195312 C 59.3262 -0.195312 68.7012 -7.95898 68.7012 -20.0684 C 68.7012 -29.5898 61.8164 -36.4258 51.9043 -37.1582 L 51.9043 -37.5 C 59.8633 -38.6719 65.3809 -44.9707 65.3809 -52.6855 C 65.3809 -63.4766 57.0312 -70.2637 43.7988 -70.2637 L 19.4336 -70.2637 C 15.0391 -70.2637 12.4512 -67.627 12.4512 -63.0859 L 12.4512 -7.37305 C 12.4512 -2.83203 15.0391 -0.195312 19.4336 -0.195312 Z M 26.2695 -40.7227 L 26.2695 -60.0098 L 39.8438 -60.0098 C 47.3145 -60.0098 51.709 -56.5918 51.709 -50.6836 C 51.709 -44.4336 46.8262 -40.7227 38.3301 -40.7227 Z M 26.2695 -10.3516 L 26.2695 -31.543 L 39.9414 -31.543 C 49.4141 -31.543 54.6387 -27.8809 54.6387 -20.9961 C 54.6387 -14.1113 49.6094 -10.3516 40.4297 -10.3516 Z"/>
  </g>
  <g id="Thin-M" transform="matrix(1 0 0 1 817.042 1126)">
   <path d="M 17.7734 -0.0488281 L 41.8945 -0.0488281 C 57.0312 -0.0488281 66.3086 -7.61719 66.3086 -19.8242 C 66.3086 -29.3457 59.4238 -36.084 49.5605 -37.0605 L 49.5605 -37.4023 C 57.2266 -38.623 62.793 -45.166 62.793 -52.8809 C 62.793 -63.4766 54.3945 -70.3613 41.6016 -70.3613 L 17.7734 -70.3613 C 14.4531 -70.3613 12.4512 -68.2617 12.4512 -64.8926 L 12.4512 -5.51758 C 12.4512 -2.14844 14.4531 -0.0488281 17.7734 -0.0488281 Z M 23.1934 -40.1855 L 23.1934 -61.7676 L 38.8184 -61.7676 C 47.168 -61.7676 52.0996 -57.9102 52.0996 -51.3184 C 52.0996 -44.2871 46.582 -40.1855 37.0117 -40.1855 Z M 23.1934 -8.64258 L 23.1934 -32.2266 L 38.7695 -32.2266 C 49.5117 -32.2266 55.3223 -28.125 55.3223 -20.5078 C 55.3223 -12.8418 49.7559 -8.64258 39.4531 -8.64258 Z"/>
  </g>
  <g id="Ultralight-M" transform="matrix(1 0 0 1 520.942 1126)">
   <path d="M 16.9434 0 L 40.625 0 C 55.8594 0 65.0879 -7.4707 65.0879 -19.6777 C 65.0879 -29.1992 58.2031 -35.9375 48.3887 -37.0117 L 48.3887 -37.3047 C 55.9082 -38.623 61.4746 -45.2637 61.4746 -52.9785 C 61.4746 -63.4766 53.0273 -70.4102 40.4785 -70.4102 L 16.9434 -70.4102 C 14.1602 -70.4102 12.4512 -68.6523 12.4512 -65.8203 L 12.4512 -4.58984 C 12.4512 -1.75781 14.1602 0 16.9434 0 Z M 21.6309 -39.8926 L 21.6309 -62.6465 L 38.3301 -62.6465 C 47.1191 -62.6465 52.2949 -58.6426 52.2949 -51.6602 C 52.2949 -44.2383 46.4844 -39.8926 36.3281 -39.8926 Z M 21.6309 -7.76367 L 21.6309 -32.6172 L 38.1348 -32.6172 C 49.5605 -32.6172 55.6641 -28.2227 55.6641 -20.2148 C 55.6641 -12.207 49.8047 -7.76367 38.9648 -7.76367 Z"/>
  </g>
  <g id="Black-S" transform="matrix(1 0 0 1 2897.85 696)">
   <path d="M 18.4082 -5.9082 L 40.0879 -5.9082 C 52.9785 -5.9082 61.3281 -12.6953 61.3281 -22.9492 C 61.3281 -30.6641 54.5898 -36.6211 46.4355 -36.8652 L 46.4355 -37.1582 C 53.3691 -38.0371 58.5938 -43.1152 58.5938 -49.8535 C 58.5938 -58.9355 51.3672 -64.4531 39.1602 -64.4531 L 18.4082 -64.4531 C 13.1836 -64.4531 9.76562 -61.377 9.76562 -56.0547 L 9.76562 -14.3066 C 9.76562 -8.93555 13.1836 -5.9082 18.4082 -5.9082 Z M 29.2969 -40.9668 L 29.2969 -52.7832 L 32.3242 -52.7832 C 36.8164 -52.7832 39.5508 -50.5371 39.5508 -46.875 C 39.5508 -43.2617 36.6699 -40.9668 31.9824 -40.9668 Z M 29.2969 -17.5781 L 29.2969 -31.1523 L 32.8613 -31.1523 C 38.2812 -31.1523 41.4551 -28.7109 41.4551 -24.5117 C 41.4551 -20.0195 39.3066 -17.5781 33.7402 -17.5781 Z"/>
  </g>
  <g id="Heavy-S" transform="matrix(1 0 0 1 2601.75 696)">
   <path d="M 18.0176 -6.39648 L 39.3555 -6.39648 C 51.9531 -6.39648 60.1074 -13.0371 60.1074 -23.0957 C 60.1074 -30.7617 53.6621 -36.5723 45.6055 -36.8652 L 45.6055 -37.1582 C 52.4414 -38.0371 57.4219 -43.0176 57.4219 -49.6094 C 57.4219 -58.5449 50.3906 -64.0137 38.5254 -64.0137 L 18.0176 -64.0137 C 12.9883 -64.0137 9.76562 -61.0352 9.76562 -55.9082 L 9.76562 -14.502 C 9.76562 -9.32617 12.9883 -6.39648 18.0176 -6.39648 Z M 27.9297 -40.7715 L 27.9297 -52.832 L 32.2754 -52.832 C 36.9141 -52.832 39.6973 -50.5859 39.6973 -46.8262 C 39.6973 -43.1152 36.7188 -40.7715 31.8359 -40.7715 Z M 27.9297 -17.5293 L 27.9297 -31.2988 L 32.7637 -31.2988 C 38.3789 -31.2988 41.6016 -28.8086 41.6016 -24.5117 C 41.6016 -19.9707 39.1602 -17.5293 33.4473 -17.5293 Z"/>
  </g>
  <g id="Bold-S" transform="matrix(1 0 0 1 2305.72 696)">
   <path d="M 17.627 -6.93359 L 38.5742 -6.93359 C 50.8301 -6.93359 58.7402 -13.4277 58.7402 -23.291 C 58.7402 -30.8594 52.6855 -36.5723 44.6777 -36.8164 L 44.6777 -37.1582 C 51.3672 -37.9883 56.1523 -42.9199 56.1523 -49.3164 C 56.1523 -58.1543 49.2676 -63.5254 37.793 -63.5254 L 17.627 -63.5254 C 12.7441 -63.5254 9.76562 -60.6445 9.76562 -55.7129 L 9.76562 -14.7461 C 9.76562 -9.76562 12.7441 -6.93359 17.627 -6.93359 Z M 26.416 -40.5273 L 26.416 -52.8809 L 32.2266 -52.8809 C 37.0117 -52.8809 39.8438 -50.5859 39.8438 -46.7773 C 39.8438 -42.9199 36.7676 -40.5273 31.6406 -40.5273 Z M 26.416 -17.4805 L 26.416 -31.3965 L 32.666 -31.3965 C 38.4766 -31.3965 41.7969 -28.9551 41.7969 -24.5605 C 41.7969 -19.9707 39.0625 -17.4805 33.1543 -17.4805 Z"/>
  </g>
  <g id="Semibold-S" transform="matrix(1 0 0 1 2009.5 696)">
   <path d="M 17.334 -7.27539 L 38.0371 -7.27539 C 50.0488 -7.27539 57.7637 -13.7207 57.7637 -23.3887 C 57.7637 -30.957 51.9531 -36.5234 44.043 -36.8164 L 44.043 -37.1582 C 50.6836 -37.9883 55.2734 -42.8223 55.2734 -49.1211 C 55.2734 -57.8613 48.5352 -63.1836 37.3047 -63.1836 L 17.334 -63.1836 C 12.5977 -63.1836 9.76562 -60.4004 9.76562 -55.5664 L 9.76562 -14.8926 C 9.76562 -10.0586 12.5977 -7.27539 17.334 -7.27539 Z M 25.3418 -40.3809 L 25.3418 -52.9297 L 32.2266 -52.9297 C 37.0605 -52.9297 39.9902 -50.6348 39.9902 -46.7773 C 39.9902 -42.7734 36.8164 -40.3809 31.543 -40.3809 Z M 25.3418 -17.4316 L 25.3418 -31.4941 L 32.5684 -31.4941 C 38.5742 -31.4941 41.9434 -29.0527 41.9434 -24.5605 C 41.9434 -19.9219 38.9648 -17.4316 32.959 -17.4316 Z"/>
  </g>
  <g id="Medium-S" transform="matrix(1 0 0 1 1713.16 696)">
   <path d="M 17.1387 -7.56836 L 37.5977 -7.56836 C 49.4629 -7.56836 57.0312 -13.916 57.0312 -23.4863 C 57.0312 -31.0059 51.416 -36.5234 43.5547 -36.8164 L 43.5547 -37.1582 C 50.0977 -37.9883 54.5898 -42.7734 54.5898 -48.9258 C 54.5898 -57.666 47.9492 -62.8906 36.9141 -62.8906 L 17.1387 -62.8906 C 12.5 -62.8906 9.76562 -60.2051 9.76562 -55.4688 L 9.76562 -14.9902 C 9.76562 -10.2539 12.5 -7.56836 17.1387 -7.56836 Z M 24.5605 -40.2344 L 24.5605 -52.9297 L 32.1777 -52.9297 C 37.1094 -52.9297 40.0879 -50.6348 40.0879 -46.7285 C 40.0879 -42.6758 36.8652 -40.2344 31.4453 -40.2344 Z M 24.5605 -17.4316 L 24.5605 -31.5918 L 32.5195 -31.5918 C 38.623 -31.5918 42.041 -29.1504 42.041 -24.5605 C 42.041 -19.9219 38.8672 -17.4316 32.8125 -17.4316 Z"/>
  </g>
  <g id="Regular-S" transform="matrix(1 0 0 1 1416.91 696)">
   <path d="M 16.8457 -7.95898 L 37.0605 -7.95898 C 48.6816 -7.95898 56.1035 -14.1602 56.1035 -23.584 C 56.1035 -31.0547 50.7324 -36.4746 42.9199 -36.8164 L 42.9199 -37.1582 C 49.4141 -37.9883 53.7109 -42.6758 53.7109 -48.7305 C 53.7109 -57.373 47.2168 -62.5488 36.4258 -62.5488 L 16.8457 -62.5488 C 12.3535 -62.5488 9.76562 -59.9609 9.76562 -55.3223 L 9.76562 -15.1855 C 9.76562 -10.5469 12.3535 -7.95898 16.8457 -7.95898 Z M 23.5352 -40.0879 L 23.5352 -52.9785 L 32.1777 -52.9785 C 37.207 -52.9785 40.1855 -50.6348 40.1855 -46.7285 C 40.1855 -42.5781 36.8652 -40.0879 31.3477 -40.0879 Z M 23.5352 -17.3828 L 23.5352 -31.6895 L 32.4219 -31.6895 C 38.6719 -31.6895 42.1875 -29.248 42.1875 -24.6094 C 42.1875 -19.873 38.7695 -17.3828 32.6172 -17.3828 Z"/>
  </g>
  <g id="Light-S" transform="matrix(1 0 0 1 1120.98 696)">
   <path d="M 15.7227 -7.86133 L 35.4492 -7.86133 C 47.168 -7.86133 54.541 -13.9648 54.541 -23.4375 C 54.541 -30.9082 49.1699 -36.2793 41.3574 -36.7676 L 41.3574 -37.0605 C 47.6562 -37.9395 51.9531 -42.8223 51.9531 -48.877 C 51.9531 -57.373 45.459 -62.6465 34.9609 -62.6465 L 15.7227 -62.6465 C 11.9629 -62.6465 9.76562 -60.4004 9.76562 -56.543 L 9.76562 -13.916 C 9.76562 -10.0586 11.9629 -7.86133 15.7227 -7.86133 Z M 21.4844 -39.6973 L 21.4844 -54.1504 L 31.4941 -54.1504 C 37.1094 -54.1504 40.4297 -51.5625 40.4297 -47.168 C 40.4297 -42.4805 36.7188 -39.6973 30.4199 -39.6973 Z M 21.4844 -16.2109 L 21.4844 -32.1289 L 31.6406 -32.1289 C 38.7207 -32.1289 42.627 -29.3945 42.627 -24.2676 C 42.627 -19.043 38.8672 -16.2109 31.9336 -16.2109 Z"/>
  </g>
  <g id="Thin-S" transform="matrix(1 0 0 1 825.343 696)">
   <path d="M 14.2578 -7.71484 L 33.3008 -7.71484 C 45.1172 -7.71484 52.3926 -13.6719 52.3926 -23.1934 C 52.3926 -30.6641 47.0215 -35.9863 39.3066 -36.6699 L 39.3066 -36.9629 C 45.3613 -37.9395 49.707 -42.9688 49.707 -49.0234 C 49.707 -57.373 43.1152 -62.7441 33.0078 -62.7441 L 14.2578 -62.7441 C 11.4746 -62.7441 9.76562 -60.9863 9.76562 -58.1055 L 9.76562 -12.3047 C 9.76562 -9.42383 11.4746 -7.71484 14.2578 -7.71484 Z M 18.75 -39.209 L 18.75 -55.6641 L 30.6152 -55.6641 C 37.0117 -55.6641 40.7715 -52.7344 40.7715 -47.7051 C 40.7715 -42.3828 36.5723 -39.209 29.248 -39.209 Z M 18.75 -14.7461 L 18.75 -32.7637 L 30.6152 -32.7637 C 38.7695 -32.7637 43.2129 -29.5898 43.2129 -23.7793 C 43.2129 -17.9199 38.9648 -14.7461 31.1035 -14.7461 Z"/>
  </g>
  <g id="Ultralight-S" transform="matrix(1 0 0 1 529.169 696)">
   <path d="M 13.5254 -7.61719 L 32.1777 -7.61719 C 44.0918 -7.61719 51.3184 -13.5254 51.3184 -23.0957 C 51.3184 -30.5664 45.9473 -35.8398 38.2324 -36.6211 L 38.2324 -36.8652 C 44.1895 -37.8906 48.5352 -43.0664 48.5352 -49.1211 C 48.5352 -57.373 41.9434 -62.793 32.0312 -62.793 L 13.5254 -62.793 C 11.1816 -62.793 9.76562 -61.3281 9.76562 -58.9355 L 9.76562 -11.4746 C 9.76562 -9.13086 11.1816 -7.61719 13.5254 -7.61719 Z M 17.3828 -38.9648 L 17.3828 -56.4453 L 30.1758 -56.4453 C 36.9141 -56.4453 40.918 -53.3691 40.918 -48.0469 C 40.918 -42.2852 36.4258 -38.9648 28.6621 -38.9648 Z M 17.3828 -13.9648 L 17.3828 -33.1055 L 30.0781 -33.1055 C 38.8184 -33.1055 43.5547 -29.6875 43.5547 -23.5352 C 43.5547 -17.3828 39.0137 -13.9648 30.6641 -13.9648 Z"/>
  </g>
 </g>
</svg>
