<?xml version="1.0" encoding="UTF-8"?>
<!--Generator: Apple Native CoreSVG 129-->
<!DOCTYPE svg
PUBLIC "-//W3C//DTD SVG 1.1//EN"
       "http://www.w3.org/Graphics/SVG/1.1/DTD/svg11.dtd">
<svg version="1.1" xmlns="http://www.w3.org/2000/svg" xmlns:xlink="http://www.w3.org/1999/xlink" width="3300" height="2200">
 <!--glyph: "uni100301.medium", point size: 100.000000, font version: "Version 16.0d9e1", template writer version: "8"-->
 <g id="Notes">
  <rect height="2200" id="artboard" style="fill:white;opacity:1" width="3300" x="0" y="0"/>
  <line id="" style="fill:none;stroke:black;opacity:1;stroke-width:0.5;" x1="263" x2="3036" y1="292" y2="292"/>
  <text style="stroke:none;fill:black;font-family:-apple-system,&quot;SF Pro Display&quot;,&quot;SF Pro Text&quot;,Helvetica,sans-serif;font-weight:bold;" transform="matrix(1 0 0 1 263 322)">Weight/Scale Variations</text>
  <text style="stroke:none;fill:black;font-family:-apple-system,&quot;SF Pro Display&quot;,&quot;SF Pro Text&quot;,Helvetica,sans-serif;text-anchor:middle;" transform="matrix(1 0 0 1 559.711 322)">Ultralight</text>
  <text style="stroke:none;fill:black;font-family:-apple-system,&quot;SF Pro Display&quot;,&quot;SF Pro Text&quot;,Helvetica,sans-serif;text-anchor:middle;" transform="matrix(1 0 0 1 856.422 322)">Thin</text>
  <text style="stroke:none;fill:black;font-family:-apple-system,&quot;SF Pro Display&quot;,&quot;SF Pro Text&quot;,Helvetica,sans-serif;text-anchor:middle;" transform="matrix(1 0 0 1 1153.13 322)">Light</text>
  <text style="stroke:none;fill:black;font-family:-apple-system,&quot;SF Pro Display&quot;,&quot;SF Pro Text&quot;,Helvetica,sans-serif;text-anchor:middle;" transform="matrix(1 0 0 1 1449.84 322)">Regular</text>
  <text style="stroke:none;fill:black;font-family:-apple-system,&quot;SF Pro Display&quot;,&quot;SF Pro Text&quot;,Helvetica,sans-serif;text-anchor:middle;" transform="matrix(1 0 0 1 1746.56 322)">Medium</text>
  <text style="stroke:none;fill:black;font-family:-apple-system,&quot;SF Pro Display&quot;,&quot;SF Pro Text&quot;,Helvetica,sans-serif;text-anchor:middle;" transform="matrix(1 0 0 1 2043.27 322)">Semibold</text>
  <text style="stroke:none;fill:black;font-family:-apple-system,&quot;SF Pro Display&quot;,&quot;SF Pro Text&quot;,Helvetica,sans-serif;text-anchor:middle;" transform="matrix(1 0 0 1 2339.98 322)">Bold</text>
  <text style="stroke:none;fill:black;font-family:-apple-system,&quot;SF Pro Display&quot;,&quot;SF Pro Text&quot;,Helvetica,sans-serif;text-anchor:middle;" transform="matrix(1 0 0 1 2636.69 322)">Heavy</text>
  <text style="stroke:none;fill:black;font-family:-apple-system,&quot;SF Pro Display&quot;,&quot;SF Pro Text&quot;,Helvetica,sans-serif;text-anchor:middle;" transform="matrix(1 0 0 1 2933.4 322)">Black</text>
  <line id="" style="fill:none;stroke:black;opacity:1;stroke-width:0.5;" x1="263" x2="3036" y1="1903" y2="1903"/>
  <g id="" transform="matrix(1 0 0 1 263 1933)">
   <path d="M 9.24805 0.830078 C 13.5547 0.830078 17.1387 -2.74414 17.1387 -7.05078 C 17.1387 -11.3574 13.5449 -14.9316 9.23828 -14.9316 C 4.94141 -14.9316 1.36719 -11.3574 1.36719 -7.05078 C 1.36719 -2.74414 4.95117 0.830078 9.24805 0.830078 Z M 9.24805 -0.654297 C 5.70312 -0.654297 2.87109 -3.49609 2.87109 -7.05078 C 2.87109 -10.6055 5.69336 -13.4473 9.23828 -13.4473 C 12.793 -13.4473 15.6348 -10.6055 15.6445 -7.05078 C 15.6543 -3.49609 12.8027 -0.654297 9.24805 -0.654297 Z M 9.22852 -3.62305 C 9.69727 -3.62305 9.9707 -3.93555 9.9707 -4.45312 L 9.9707 -6.31836 L 12.002 -6.31836 C 12.5 -6.31836 12.832 -6.57227 12.832 -7.04102 C 12.832 -7.51953 12.5195 -7.7832 12.002 -7.7832 L 9.9707 -7.7832 L 9.9707 -9.81445 C 9.9707 -10.332 9.69727 -10.6543 9.22852 -10.6543 C 8.75977 -10.6543 8.50586 -10.3125 8.50586 -9.81445 L 8.50586 -7.7832 L 6.49414 -7.7832 C 5.97656 -7.7832 5.64453 -7.51953 5.64453 -7.04102 C 5.64453 -6.57227 5.99609 -6.31836 6.49414 -6.31836 L 8.50586 -6.31836 L 8.50586 -4.45312 C 8.50586 -3.95508 8.75977 -3.62305 9.22852 -3.62305 Z"/>
  </g>
  <g id="" transform="matrix(1 0 0 1 281.506 1933)">
   <path d="M 11.709 2.91016 C 17.1582 2.91016 21.6699 -1.61133 21.6699 -7.05078 C 21.6699 -12.5 17.1484 -17.0117 11.6992 -17.0117 C 6.25977 -17.0117 1.74805 -12.5 1.74805 -7.05078 C 1.74805 -1.61133 6.26953 2.91016 11.709 2.91016 Z M 11.709 1.25 C 7.09961 1.25 3.41797 -2.44141 3.41797 -7.05078 C 3.41797 -11.6602 7.08984 -15.3516 11.6992 -15.3516 C 16.3086 -15.3516 20 -11.6602 20.0098 -7.05078 C 20.0195 -2.44141 16.3184 1.25 11.709 1.25 Z M 11.6797 -2.66602 C 12.207 -2.66602 12.5098 -3.01758 12.5098 -3.59375 L 12.5098 -6.23047 L 15.3223 -6.23047 C 15.8691 -6.23047 16.25 -6.51367 16.25 -7.03125 C 16.25 -7.55859 15.8887 -7.86133 15.3223 -7.86133 L 12.5098 -7.86133 L 12.5098 -10.6836 C 12.5098 -11.25 12.207 -11.6113 11.6797 -11.6113 C 11.1621 -11.6113 10.8789 -11.2305 10.8789 -10.6836 L 10.8789 -7.86133 L 8.07617 -7.86133 C 7.50977 -7.86133 7.13867 -7.55859 7.13867 -7.03125 C 7.13867 -6.51367 7.5293 -6.23047 8.07617 -6.23047 L 10.8789 -6.23047 L 10.8789 -3.59375 C 10.8789 -3.03711 11.1621 -2.66602 11.6797 -2.66602 Z"/>
  </g>
  <g id="" transform="matrix(1 0 0 1 304.924 1933)">
   <path d="M 14.9707 5.66406 C 21.9336 5.66406 27.6953 -0.0976562 27.6953 -7.05078 C 27.6953 -14.0137 21.9238 -19.7754 14.9609 -19.7754 C 8.00781 -19.7754 2.25586 -14.0137 2.25586 -7.05078 C 2.25586 -0.0976562 8.01758 5.66406 14.9707 5.66406 Z M 14.9707 3.84766 C 8.93555 3.84766 4.08203 -1.01562 4.08203 -7.05078 C 4.08203 -13.0957 8.92578 -17.9492 14.9609 -17.9492 C 21.0059 -17.9492 25.8594 -13.0957 25.8691 -7.05078 C 25.8789 -1.01562 21.0156 3.84766 14.9707 3.84766 Z M 14.9414 -1.38672 C 15.5176 -1.38672 15.8594 -1.77734 15.8594 -2.38281 L 15.8594 -6.13281 L 19.7754 -6.13281 C 20.3711 -6.13281 20.7812 -6.46484 20.7812 -7.02148 C 20.7812 -7.59766 20.3906 -7.93945 19.7754 -7.93945 L 15.8594 -7.93945 L 15.8594 -11.8652 C 15.8594 -12.4805 15.5176 -12.8711 14.9414 -12.8711 C 14.375 -12.8711 14.0527 -12.4609 14.0527 -11.8652 L 14.0527 -7.93945 L 10.1465 -7.93945 C 9.53125 -7.93945 9.13086 -7.59766 9.13086 -7.02148 C 9.13086 -6.46484 9.55078 -6.13281 10.1465 -6.13281 L 14.0527 -6.13281 L 14.0527 -2.38281 C 14.0527 -1.79688 14.375 -1.38672 14.9414 -1.38672 Z"/>
  </g>
  <text style="stroke:none;fill:black;font-family:-apple-system,&quot;SF Pro Display&quot;,&quot;SF Pro Text&quot;,Helvetica,sans-serif;font-weight:bold;" transform="matrix(1 0 0 1 263 1953)">Design Variations</text>
  <text style="stroke:none;fill:black;font-family:-apple-system,&quot;SF Pro Display&quot;,&quot;SF Pro Text&quot;,Helvetica,sans-serif;" transform="matrix(1 0 0 1 263 1971)">Symbols are supported in up to nine weights and three scales.</text>
  <text style="stroke:none;fill:black;font-family:-apple-system,&quot;SF Pro Display&quot;,&quot;SF Pro Text&quot;,Helvetica,sans-serif;" transform="matrix(1 0 0 1 263 1989)">For optimal layout with text and other symbols, vertically align</text>
  <text style="stroke:none;fill:black;font-family:-apple-system,&quot;SF Pro Display&quot;,&quot;SF Pro Text&quot;,Helvetica,sans-serif;" transform="matrix(1 0 0 1 263 2007)">symbols with the adjacent text.</text>
  <line id="" style="fill:none;stroke:#00AEEF;stroke-width:0.5;opacity:1.0;" x1="776" x2="776" y1="1919" y2="1933"/>
  <g id="" transform="matrix(1 0 0 1 776 1933)">
   <path d="M 3.31055 0.126953 C 3.82812 0.126953 4.08203 -0.0683594 4.26758 -0.605469 L 5.52734 -4.0625 L 11.2891 -4.0625 L 12.5488 -0.605469 C 12.7344 -0.0683594 12.9883 0.126953 13.4961 0.126953 C 14.0137 0.126953 14.3457 -0.185547 14.3457 -0.673828 C 14.3457 -0.839844 14.3164 -0.986328 14.2383 -1.20117 L 9.6582 -13.3887 C 9.43359 -13.9941 9.0332 -14.2871 8.4082 -14.2871 C 7.80273 -14.2871 7.39258 -13.9941 7.17773 -13.3984 L 2.59766 -1.19141 C 2.51953 -0.976562 2.49023 -0.830078 2.49023 -0.664062 C 2.49023 -0.175781 2.80273 0.126953 3.31055 0.126953 Z M 6.00586 -5.53711 L 8.37891 -12.1094 L 8.42773 -12.1094 L 10.8008 -5.53711 Z"/>
  </g>
  <line id="" style="fill:none;stroke:#00AEEF;stroke-width:0.5;opacity:1.0;" x1="792.836" x2="792.836" y1="1919" y2="1933"/>
  <text style="stroke:none;fill:black;font-family:-apple-system,&quot;SF Pro Display&quot;,&quot;SF Pro Text&quot;,Helvetica,sans-serif;font-weight:bold;" transform="matrix(1 0 0 1 776 1953)">Margins</text>
  <text style="stroke:none;fill:black;font-family:-apple-system,&quot;SF Pro Display&quot;,&quot;SF Pro Text&quot;,Helvetica,sans-serif;" transform="matrix(1 0 0 1 776 1971)">Leading and trailing margins on the left and right side of each symbol</text>
  <text style="stroke:none;fill:black;font-family:-apple-system,&quot;SF Pro Display&quot;,&quot;SF Pro Text&quot;,Helvetica,sans-serif;" transform="matrix(1 0 0 1 776 1989)">can be adjusted by modifying the x-location of the margin guidelines.</text>
  <text style="stroke:none;fill:black;font-family:-apple-system,&quot;SF Pro Display&quot;,&quot;SF Pro Text&quot;,Helvetica,sans-serif;" transform="matrix(1 0 0 1 776 2007)">Modifications are automatically applied proportionally to all</text>
  <text style="stroke:none;fill:black;font-family:-apple-system,&quot;SF Pro Display&quot;,&quot;SF Pro Text&quot;,Helvetica,sans-serif;" transform="matrix(1 0 0 1 776 2025)">scales and weights.</text>
  <g id="" transform="matrix(1 0 0 1 1289 1933)">
   <path d="M 2.8418 1.86523 L 4.54102 3.57422 C 5.40039 4.44336 6.38672 4.38477 7.31445 3.35938 L 17.4902 -7.85156 C 17.7539 -7.76367 18.0273 -7.7832 18.3398 -7.8418 L 19.4043 -8.03711 L 20.0684 -7.36328 L 20.0293 -6.80664 C 19.9902 -6.30859 20.1172 -5.92773 20.6055 -5.44922 L 21.3672 -4.70703 C 21.8457 -4.22852 22.4609 -4.19922 22.9297 -4.66797 L 25.8398 -7.58789 C 26.3086 -8.05664 26.2891 -8.65234 25.8105 -9.13086 L 25.0391 -9.89258 C 24.5605 -10.3711 24.1895 -10.5273 23.7109 -10.4883 L 23.1348 -10.4395 L 22.4902 -11.0742 L 22.7344 -12.1973 C 22.8613 -12.7637 22.7051 -13.2031 22.1191 -13.7891 L 19.9219 -15.9766 C 16.582 -19.2969 12.1484 -19.2188 9.25781 -16.3281 C 8.83789 -15.918 8.80859 -15.3418 9.04297 -14.9512 C 9.27734 -14.5898 9.73633 -14.3555 10.3809 -14.5215 C 11.8457 -14.8633 13.3691 -14.9219 14.7949 -13.9844 L 14.209 -12.5293 C 14.0137 -12.0508 13.9844 -11.6504 14.1113 -11.2891 L 3.04688 -0.898438 C 2.06055 0.0195312 1.98242 0.996094 2.8418 1.86523 Z M 10.752 -15.957 C 13.1836 -17.7344 16.4746 -17.4316 18.7012 -15.2051 L 21.1328 -12.793 C 21.3672 -12.5586 21.4062 -12.373 21.3379 -12.0312 L 21.0156 -10.5469 L 22.5195 -9.0625 L 23.5059 -9.12109 C 23.7598 -9.13086 23.8379 -9.11133 24.0332 -8.91602 L 24.6094 -8.33984 L 22.168 -5.89844 L 21.5918 -6.47461 C 21.3965 -6.66992 21.3672 -6.74805 21.377 -7.01172 L 21.4453 -7.98828 L 19.9512 -9.47266 L 18.4277 -9.21875 C 18.1055 -9.15039 17.959 -9.17969 17.7148 -9.41406 L 15.7129 -11.416 C 15.459 -11.6504 15.4297 -11.8164 15.5859 -12.1875 L 16.4648 -14.2773 C 14.9023 -15.7324 12.8711 -16.3574 10.8398 -15.7617 C 10.6836 -15.7227 10.625 -15.8496 10.752 -15.957 Z M 5.27344 2.30469 L 4.10156 1.14258 C 3.63281 0.683594 3.74023 0.341797 4.14062 -0.0195312 L 14.9512 -10.1953 L 16.416 -8.71094 L 6.42578 2.27539 C 6.07422 2.67578 5.74219 2.77344 5.27344 2.30469 Z"/>
  </g>
  <text style="stroke:none;fill:black;font-family:-apple-system,&quot;SF Pro Display&quot;,&quot;SF Pro Text&quot;,Helvetica,sans-serif;font-weight:bold;" transform="matrix(1 0 0 1 1289 1953)">Exporting</text>
  <text style="stroke:none;fill:black;font-family:-apple-system,&quot;SF Pro Display&quot;,&quot;SF Pro Text&quot;,Helvetica,sans-serif;" transform="matrix(1 0 0 1 1289 1971)">Symbols should be outlined when exporting to ensure the</text>
  <text style="stroke:none;fill:black;font-family:-apple-system,&quot;SF Pro Display&quot;,&quot;SF Pro Text&quot;,Helvetica,sans-serif;" transform="matrix(1 0 0 1 1289 1989)">design is preserved when submitting to Xcode.</text>
  <text id="template-version" style="stroke:none;fill:black;font-family:-apple-system,&quot;SF Pro Display&quot;,&quot;SF Pro Text&quot;,Helvetica,sans-serif;text-anchor:end;" transform="matrix(1 0 0 1 3036 1933)">Template v.2.0</text>
  <text style="stroke:none;fill:black;font-family:-apple-system,&quot;SF Pro Display&quot;,&quot;SF Pro Text&quot;,Helvetica,sans-serif;text-anchor:end;" transform="matrix(1 0 0 1 3036 1951)">Requires Xcode 12 or greater</text>
  <text style="stroke:none;fill:black;font-family:-apple-system,&quot;SF Pro Display&quot;,&quot;SF Pro Text&quot;,Helvetica,sans-serif;text-anchor:end;" transform="matrix(1 0 0 1 3036 1969)">Generated from text.aligncenter</text>
  <text style="stroke:none;fill:black;font-family:-apple-system,&quot;SF Pro Display&quot;,&quot;SF Pro Text&quot;,Helvetica,sans-serif;text-anchor:end;" transform="matrix(1 0 0 1 3036 1987)">Typeset at 100 points</text>
  <text style="stroke:none;fill:black;font-family:-apple-system,&quot;SF Pro Display&quot;,&quot;SF Pro Text&quot;,Helvetica,sans-serif;" transform="matrix(1 0 0 1 263 726)">Small</text>
  <text style="stroke:none;fill:black;font-family:-apple-system,&quot;SF Pro Display&quot;,&quot;SF Pro Text&quot;,Helvetica,sans-serif;" transform="matrix(1 0 0 1 263 1156)">Medium</text>
  <text style="stroke:none;fill:black;font-family:-apple-system,&quot;SF Pro Display&quot;,&quot;SF Pro Text&quot;,Helvetica,sans-serif;" transform="matrix(1 0 0 1 263 1586)">Large</text>
 </g>
 <g id="Guides">
  <g id="H-reference" style="fill:#27AAE1;stroke:none;" transform="matrix(1 0 0 1 339 696)">
   <path d="M 0.976562 0 L 3.66211 0 L 12.9883 -24.4629 L 45.7031 -24.4629 L 55.0781 0 L 57.7148 0 L 30.6152 -70.459 L 28.125 -70.459 Z M 29.2969 -67.1387 L 29.3945 -67.1387 L 44.873 -26.709 L 13.8672 -26.709 Z"/>
  </g>
  <line id="Baseline-S" style="fill:none;stroke:#27AAE1;opacity:1;stroke-width:0.5;" x1="263" x2="3036" y1="696" y2="696"/>
  <line id="Capline-S" style="fill:none;stroke:#27AAE1;opacity:1;stroke-width:0.5;" x1="263" x2="3036" y1="625.541" y2="625.541"/>
  <g id="H-reference" style="fill:#27AAE1;stroke:none;" transform="matrix(1 0 0 1 339 1126)">
   <path d="M 0.976562 0 L 3.66211 0 L 12.9883 -24.4629 L 45.7031 -24.4629 L 55.0781 0 L 57.7148 0 L 30.6152 -70.459 L 28.125 -70.459 Z M 29.2969 -67.1387 L 29.3945 -67.1387 L 44.873 -26.709 L 13.8672 -26.709 Z"/>
  </g>
  <line id="Baseline-M" style="fill:none;stroke:#27AAE1;opacity:1;stroke-width:0.5;" x1="263" x2="3036" y1="1126" y2="1126"/>
  <line id="Capline-M" style="fill:none;stroke:#27AAE1;opacity:1;stroke-width:0.5;" x1="263" x2="3036" y1="1055.54" y2="1055.54"/>
  <g id="H-reference" style="fill:#27AAE1;stroke:none;" transform="matrix(1 0 0 1 339 1556)">
   <path d="M 0.976562 0 L 3.66211 0 L 12.9883 -24.4629 L 45.7031 -24.4629 L 55.0781 0 L 57.7148 0 L 30.6152 -70.459 L 28.125 -70.459 Z M 29.2969 -67.1387 L 29.3945 -67.1387 L 44.873 -26.709 L 13.8672 -26.709 Z"/>
  </g>
  <line id="Baseline-L" style="fill:none;stroke:#27AAE1;opacity:1;stroke-width:0.5;" x1="263" x2="3036" y1="1556" y2="1556"/>
  <line id="Capline-L" style="fill:none;stroke:#27AAE1;opacity:1;stroke-width:0.5;" x1="263" x2="3036" y1="1485.54" y2="1485.54"/>
  <line id="left-margin" style="fill:none;stroke:#00AEEF;stroke-width:0.5;opacity:1.0;" x1="1388.2" x2="1388.2" y1="1030.79" y2="1150.12"/>
  <line id="right-margin" style="fill:none;stroke:#00AEEF;stroke-width:0.5;opacity:1.0;" x1="1511.49" x2="1511.49" y1="1030.79" y2="1150.12"/>
 </g>
 <g id="Symbols">
  <g id="Black-L" transform="matrix(1 0 0 1 2847.17 1556)">
   <path d="M 24.4629 -76.6113 L 147.998 -76.6113 C 152.686 -76.6113 156.396 -80.3223 156.396 -84.9609 C 156.396 -89.6484 152.686 -93.3594 147.998 -93.3594 L 24.4629 -93.3594 C 19.7754 -93.3594 16.0645 -89.6484 16.0645 -84.9609 C 16.0645 -80.3223 19.7754 -76.6113 24.4629 -76.6113 Z M 51.4648 -43.6035 L 120.996 -43.6035 C 125.635 -43.6035 129.395 -47.3633 129.395 -52.002 C 129.395 -56.6406 125.635 -60.3516 120.996 -60.3516 L 51.4648 -60.3516 C 46.8262 -60.3516 43.1152 -56.6406 43.1152 -52.002 C 43.1152 -47.3633 46.8262 -43.6035 51.4648 -43.6035 Z M 24.4629 -10.6445 L 147.998 -10.6445 C 152.686 -10.6445 156.396 -14.3555 156.396 -19.043 C 156.396 -23.6816 152.686 -27.3926 147.998 -27.3926 L 24.4629 -27.3926 C 19.7754 -27.3926 16.0645 -23.6816 16.0645 -19.043 C 16.0645 -14.3555 19.7754 -10.6445 24.4629 -10.6445 Z M 51.4648 22.3145 L 120.996 22.3145 C 125.635 22.3145 129.395 18.6035 129.395 13.9648 C 129.395 9.27734 125.635 5.56641 120.996 5.56641 L 51.4648 5.56641 C 46.8262 5.56641 43.1152 9.27734 43.1152 13.9648 C 43.1152 18.6035 46.8262 22.3145 51.4648 22.3145 Z"/>
  </g>
  <g id="Heavy-L" transform="matrix(1 0 0 1 2552.19 1556)">
   <path d="M 23.4375 -77.5879 L 145.557 -77.5879 C 149.658 -77.5879 152.93 -80.8594 152.93 -84.9609 C 152.93 -89.0625 149.658 -92.334 145.557 -92.334 L 23.4375 -92.334 C 19.3359 -92.334 16.0645 -89.0625 16.0645 -84.9609 C 16.0645 -80.8594 19.3359 -77.5879 23.4375 -77.5879 Z M 49.4141 -44.6289 L 119.531 -44.6289 C 123.633 -44.6289 126.953 -47.9004 126.953 -51.9531 C 126.953 -56.0547 123.633 -59.3262 119.531 -59.3262 L 49.4141 -59.3262 C 45.3125 -59.3262 42.041 -56.0547 42.041 -51.9531 C 42.041 -47.9004 45.3125 -44.6289 49.4141 -44.6289 Z M 23.4375 -11.6211 L 145.557 -11.6211 C 149.658 -11.6211 152.93 -14.8926 152.93 -18.9941 C 152.93 -23.0957 149.658 -26.3672 145.557 -26.3672 L 23.4375 -26.3672 C 19.3359 -26.3672 16.0645 -23.0957 16.0645 -18.9941 C 16.0645 -14.8926 19.3359 -11.6211 23.4375 -11.6211 Z M 49.4141 21.3379 L 119.531 21.3379 C 123.633 21.3379 126.953 18.1152 126.953 14.0137 C 126.953 9.91211 123.633 6.64062 119.531 6.64062 L 49.4141 6.64062 C 45.3125 6.64062 42.041 9.91211 42.041 14.0137 C 42.041 18.1152 45.3125 21.3379 49.4141 21.3379 Z"/>
  </g>
  <g id="Bold-L" transform="matrix(1 0 0 1 2257.43 1556)">
   <path d="M 22.3145 -78.7109 L 142.773 -78.7109 C 146.24 -78.7109 149.023 -81.4941 149.023 -84.9609 C 149.023 -88.4277 146.24 -91.1621 142.773 -91.1621 L 22.3145 -91.1621 C 18.7988 -91.1621 16.0645 -88.4277 16.0645 -84.9609 C 16.0645 -81.4941 18.7988 -78.7109 22.3145 -78.7109 Z M 47.1191 -45.7031 L 117.969 -45.7031 C 121.436 -45.7031 124.219 -48.4863 124.219 -51.9531 C 124.219 -55.4199 121.436 -58.1543 117.969 -58.1543 L 47.1191 -58.1543 C 43.6035 -58.1543 40.8691 -55.4199 40.8691 -51.9531 C 40.8691 -48.4863 43.6035 -45.7031 47.1191 -45.7031 Z M 22.3145 -12.7441 L 142.773 -12.7441 C 146.24 -12.7441 149.023 -15.4785 149.023 -18.9453 C 149.023 -22.4121 146.24 -25.1953 142.773 -25.1953 L 22.3145 -25.1953 C 18.7988 -25.1953 16.0645 -22.4121 16.0645 -18.9453 C 16.0645 -15.4785 18.7988 -12.7441 22.3145 -12.7441 Z M 47.1191 20.2637 L 117.969 20.2637 C 121.436 20.2637 124.219 17.5293 124.219 14.0625 C 124.219 10.5957 121.436 7.8125 117.969 7.8125 L 47.1191 7.8125 C 43.6035 7.8125 40.8691 10.5957 40.8691 14.0625 C 40.8691 17.5293 43.6035 20.2637 47.1191 20.2637 Z"/>
  </g>
  <g id="Semibold-L" transform="matrix(1 0 0 1 1962.07 1556)">
   <path d="M 21.5332 -79.4922 L 140.869 -79.4922 C 143.896 -79.4922 146.338 -81.8848 146.338 -84.9609 C 146.338 -87.9883 143.896 -90.3809 140.869 -90.3809 L 21.5332 -90.3809 C 18.457 -90.3809 16.0645 -87.9883 16.0645 -84.9609 C 16.0645 -81.8848 18.457 -79.4922 21.5332 -79.4922 Z M 45.5078 -46.4844 L 116.846 -46.4844 C 119.922 -46.4844 122.314 -48.877 122.314 -51.9531 C 122.314 -54.9805 119.922 -57.373 116.846 -57.373 L 45.5078 -57.373 C 42.4805 -57.373 40.0391 -54.9805 40.0391 -51.9531 C 40.0391 -48.877 42.4805 -46.4844 45.5078 -46.4844 Z M 21.5332 -13.4766 L 140.869 -13.4766 C 143.896 -13.4766 146.338 -15.8691 146.338 -18.8965 C 146.338 -21.9727 143.896 -24.3652 140.869 -24.3652 L 21.5332 -24.3652 C 18.457 -24.3652 16.0645 -21.9727 16.0645 -18.8965 C 16.0645 -15.8691 18.457 -13.4766 21.5332 -13.4766 Z M 45.5078 19.5312 L 116.846 19.5312 C 119.922 19.5312 122.314 17.1387 122.314 14.1113 C 122.314 11.0352 119.922 8.64258 116.846 8.64258 L 45.5078 8.64258 C 42.4805 8.64258 40.0391 11.0352 40.0391 14.1113 C 40.0391 17.1387 42.4805 19.5312 45.5078 19.5312 Z"/>
  </g>
  <g id="Medium-L" transform="matrix(1 0 0 1 1666.38 1556)">
   <path d="M 20.8984 -80.0781 L 139.404 -80.0781 C 142.139 -80.0781 144.287 -82.2266 144.287 -84.9609 C 144.287 -87.6465 142.139 -89.7949 139.404 -89.7949 L 20.8984 -89.7949 C 18.2129 -89.7949 16.0645 -87.6465 16.0645 -84.9609 C 16.0645 -82.2266 18.2129 -80.0781 20.8984 -80.0781 Z M 44.2871 -47.0703 L 116.016 -47.0703 C 118.75 -47.0703 120.898 -49.2188 120.898 -51.9043 C 120.898 -54.6387 118.75 -56.7871 116.016 -56.7871 L 44.2871 -56.7871 C 41.5527 -56.7871 39.4531 -54.6387 39.4531 -51.9043 C 39.4531 -49.2188 41.5527 -47.0703 44.2871 -47.0703 Z M 20.8984 -14.0625 L 139.404 -14.0625 C 142.139 -14.0625 144.287 -16.1621 144.287 -18.8965 C 144.287 -21.6309 142.139 -23.7305 139.404 -23.7305 L 20.8984 -23.7305 C 18.2129 -23.7305 16.0645 -21.6309 16.0645 -18.8965 C 16.0645 -16.1621 18.2129 -14.0625 20.8984 -14.0625 Z M 44.2871 18.9941 L 116.016 18.9941 C 118.75 18.9941 120.898 16.8457 120.898 14.1113 C 120.898 11.4258 118.75 9.27734 116.016 9.27734 L 44.2871 9.27734 C 41.5527 9.27734 39.4531 11.4258 39.4531 14.1113 C 39.4531 16.8457 41.5527 18.9941 44.2871 18.9941 Z"/>
  </g>
  <g id="Regular-L" transform="matrix(1 0 0 1 1370.99 1556)">
   <path d="M 20.166 -80.8594 L 137.5 -80.8594 C 139.795 -80.8594 141.65 -82.6172 141.65 -84.9609 C 141.65 -87.2559 139.795 -89.0137 137.5 -89.0137 L 20.166 -89.0137 C 17.8223 -89.0137 16.0645 -87.2559 16.0645 -84.9609 C 16.0645 -82.6172 17.8223 -80.8594 20.166 -80.8594 Z M 42.7246 -47.8027 L 114.941 -47.8027 C 117.236 -47.8027 119.043 -49.6094 119.043 -51.9043 C 119.043 -54.1992 117.236 -56.0059 114.941 -56.0059 L 42.7246 -56.0059 C 40.4297 -56.0059 38.623 -54.1992 38.623 -51.9043 C 38.623 -49.6094 40.4297 -47.8027 42.7246 -47.8027 Z M 20.166 -14.7949 L 137.5 -14.7949 C 139.795 -14.7949 141.65 -16.5527 141.65 -18.8477 C 141.65 -21.1914 139.795 -22.9492 137.5 -22.9492 L 20.166 -22.9492 C 17.8223 -22.9492 16.0645 -21.1914 16.0645 -18.8477 C 16.0645 -16.5527 17.8223 -14.7949 20.166 -14.7949 Z M 42.7246 18.2617 L 114.941 18.2617 C 117.236 18.2617 119.043 16.4551 119.043 14.1602 C 119.043 11.8652 117.236 10.1074 114.941 10.1074 L 42.7246 10.1074 C 40.4297 10.1074 38.623 11.8652 38.623 14.1602 C 38.623 16.4551 40.4297 18.2617 42.7246 18.2617 Z"/>
  </g>
  <g id="Light-L" transform="matrix(1 0 0 1 1075.2 1556)">
   <path d="M 19.2383 -81.7871 L 136.621 -81.7871 C 138.379 -81.7871 139.795 -83.1055 139.795 -84.9121 C 139.795 -86.7188 138.379 -88.0859 136.621 -88.0859 L 19.2383 -88.0859 C 17.4316 -88.0859 16.0645 -86.7188 16.0645 -84.9121 C 16.0645 -83.1055 17.4316 -81.7871 19.2383 -81.7871 Z M 40.8691 -48.6816 L 114.941 -48.6816 C 116.748 -48.6816 118.115 -50.0488 118.115 -51.8555 C 118.115 -53.6621 116.748 -54.9805 114.941 -54.9805 L 40.8691 -54.9805 C 39.0625 -54.9805 37.6953 -53.6621 37.6953 -51.8555 C 37.6953 -50.0488 39.0625 -48.6816 40.8691 -48.6816 Z M 19.2383 -15.625 L 136.621 -15.625 C 138.379 -15.625 139.795 -16.9922 139.795 -18.7988 C 139.795 -20.5566 138.379 -21.9238 136.621 -21.9238 L 19.2383 -21.9238 C 17.4316 -21.9238 16.0645 -20.5566 16.0645 -18.7988 C 16.0645 -16.9922 17.4316 -15.625 19.2383 -15.625 Z M 40.8691 17.4316 L 114.941 17.4316 C 116.748 17.4316 118.115 16.1133 118.115 14.3066 C 118.115 12.5 116.748 11.1328 114.941 11.1328 L 40.8691 11.1328 C 39.0625 11.1328 37.6953 12.5 37.6953 14.3066 C 37.6953 16.1133 39.0625 17.4316 40.8691 17.4316 Z"/>
  </g>
  <g id="Thin-L" transform="matrix(1 0 0 1 779.713 1556)">
   <path d="M 18.0176 -82.959 L 135.4 -82.959 C 136.523 -82.959 137.354 -83.7402 137.354 -84.9121 C 137.354 -86.0352 136.523 -86.8164 135.4 -86.8164 L 18.0176 -86.8164 C 16.8457 -86.8164 16.0645 -86.0352 16.0645 -84.9121 C 16.0645 -83.7402 16.8457 -82.959 18.0176 -82.959 Z M 38.4277 -49.8535 L 114.99 -49.8535 C 116.113 -49.8535 116.895 -50.6348 116.895 -51.7578 C 116.895 -52.9297 116.113 -53.7109 114.99 -53.7109 L 38.4277 -53.7109 C 37.3047 -53.7109 36.4746 -52.9297 36.4746 -51.7578 C 36.4746 -50.6348 37.3047 -49.8535 38.4277 -49.8535 Z M 18.0176 -16.6992 L 135.4 -16.6992 C 136.523 -16.6992 137.354 -17.5293 137.354 -18.6523 C 137.354 -19.7754 136.523 -20.6055 135.4 -20.6055 L 18.0176 -20.6055 C 16.8457 -20.6055 16.0645 -19.7754 16.0645 -18.6523 C 16.0645 -17.5293 16.8457 -16.6992 18.0176 -16.6992 Z M 38.4277 16.4062 L 114.99 16.4062 C 116.113 16.4062 116.895 15.625 116.895 14.4531 C 116.895 13.3301 116.113 12.5488 114.99 12.5488 L 38.4277 12.5488 C 37.3047 12.5488 36.4746 13.3301 36.4746 14.4531 C 36.4746 15.625 37.3047 16.4062 38.4277 16.4062 Z"/>
  </g>
  <g id="Ultralight-L" transform="matrix(1 0 0 1 483.637 1556)">
   <path d="M 17.3828 -83.5938 L 134.766 -83.5938 C 135.596 -83.5938 136.084 -84.082 136.084 -84.8633 C 136.084 -85.6934 135.596 -86.1816 134.766 -86.1816 L 17.3828 -86.1816 C 16.5527 -86.1816 16.0645 -85.6934 16.0645 -84.8633 C 16.0645 -84.082 16.5527 -83.5938 17.3828 -83.5938 Z M 37.1582 -50.4395 L 114.99 -50.4395 C 115.771 -50.4395 116.309 -50.9277 116.309 -51.7578 C 116.309 -52.5391 115.771 -53.0273 114.99 -53.0273 L 37.1582 -53.0273 C 36.377 -53.0273 35.8887 -52.5391 35.8887 -51.7578 C 35.8887 -50.9277 36.377 -50.4395 37.1582 -50.4395 Z M 17.3828 -17.2852 L 134.766 -17.2852 C 135.596 -17.2852 136.084 -17.7734 136.084 -18.6035 C 136.084 -19.3848 135.596 -19.9219 134.766 -19.9219 L 17.3828 -19.9219 C 16.5527 -19.9219 16.0645 -19.3848 16.0645 -18.6035 C 16.0645 -17.7734 16.5527 -17.2852 17.3828 -17.2852 Z M 37.1582 15.8691 L 114.99 15.8691 C 115.771 15.8691 116.309 15.332 116.309 14.5508 C 116.309 13.7695 115.771 13.2324 114.99 13.2324 L 37.1582 13.2324 C 36.377 13.2324 35.8887 13.7695 35.8887 14.5508 C 35.8887 15.332 36.377 15.8691 37.1582 15.8691 Z"/>
  </g>
  <g id="Black-M" transform="matrix(1 0 0 1 2864.7 1126)">
   <path d="M 19.8242 -66.4062 L 117.578 -66.4062 C 121.68 -66.4062 124.951 -69.6777 124.951 -73.7793 C 124.951 -77.8809 121.68 -81.1523 117.578 -81.1523 L 19.8242 -81.1523 C 15.7227 -81.1523 12.4512 -77.8809 12.4512 -73.7793 C 12.4512 -69.6777 15.7227 -66.4062 19.8242 -66.4062 Z M 41.6992 -40.8691 L 95.7031 -40.8691 C 99.7559 -40.8691 103.027 -44.1406 103.027 -48.2422 C 103.027 -52.2949 99.7559 -55.5664 95.7031 -55.5664 L 41.6992 -55.5664 C 37.5977 -55.5664 34.3262 -52.2949 34.3262 -48.2422 C 34.3262 -44.1406 37.5977 -40.8691 41.6992 -40.8691 Z M 19.8242 -15.2832 L 117.578 -15.2832 C 121.68 -15.2832 124.951 -18.6035 124.951 -22.6562 C 124.951 -26.7578 121.68 -30.0293 117.578 -30.0293 L 19.8242 -30.0293 C 15.7227 -30.0293 12.4512 -26.7578 12.4512 -22.6562 C 12.4512 -18.6035 15.7227 -15.2832 19.8242 -15.2832 Z M 41.6992 10.2539 L 95.7031 10.2539 C 99.7559 10.2539 103.027 6.98242 103.027 2.88086 C 103.027 -1.2207 99.7559 -4.49219 95.7031 -4.49219 L 41.6992 -4.49219 C 37.5977 -4.49219 34.3262 -1.2207 34.3262 2.88086 C 34.3262 6.98242 37.5977 10.2539 41.6992 10.2539 Z"/>
  </g>
  <g id="Heavy-M" transform="matrix(1 0 0 1 2569.65 1126)">
   <path d="M 18.9453 -67.2852 L 115.088 -67.2852 C 118.701 -67.2852 121.631 -70.166 121.631 -73.7793 C 121.631 -77.3926 118.701 -80.2734 115.088 -80.2734 L 18.9453 -80.2734 C 15.332 -80.2734 12.4512 -77.3926 12.4512 -73.7793 C 12.4512 -70.166 15.332 -67.2852 18.9453 -67.2852 Z M 39.9414 -41.6992 L 94.1406 -41.6992 C 97.7539 -41.6992 100.635 -44.5801 100.635 -48.1934 C 100.635 -51.8066 97.7539 -54.6875 94.1406 -54.6875 L 39.9414 -54.6875 C 36.3281 -54.6875 33.4473 -51.8066 33.4473 -48.1934 C 33.4473 -44.5801 36.3281 -41.6992 39.9414 -41.6992 Z M 18.9453 -16.1621 L 115.088 -16.1621 C 118.701 -16.1621 121.631 -19.043 121.631 -22.6562 C 121.631 -26.2695 118.701 -29.1504 115.088 -29.1504 L 18.9453 -29.1504 C 15.332 -29.1504 12.4512 -26.2695 12.4512 -22.6562 C 12.4512 -19.043 15.332 -16.1621 18.9453 -16.1621 Z M 39.9414 9.42383 L 94.1406 9.42383 C 97.7539 9.42383 100.635 6.49414 100.635 2.88086 C 100.635 -0.732422 97.7539 -3.61328 94.1406 -3.61328 L 39.9414 -3.61328 C 36.3281 -3.61328 33.4473 -0.732422 33.4473 2.88086 C 33.4473 6.49414 36.3281 9.42383 39.9414 9.42383 Z"/>
  </g>
  <g id="Bold-M" transform="matrix(1 0 0 1 2274.82 1126)">
   <path d="M 17.9688 -68.2617 L 112.354 -68.2617 C 115.43 -68.2617 117.871 -70.7031 117.871 -73.7793 C 117.871 -76.8555 115.43 -79.2969 112.354 -79.2969 L 17.9688 -79.2969 C 14.8926 -79.2969 12.4512 -76.8555 12.4512 -73.7793 C 12.4512 -70.7031 14.8926 -68.2617 17.9688 -68.2617 Z M 37.9395 -42.6758 L 92.3828 -42.6758 C 95.459 -42.6758 97.9004 -45.1172 97.9004 -48.1934 C 97.9004 -51.2695 95.459 -53.7109 92.3828 -53.7109 L 37.9395 -53.7109 C 34.8633 -53.7109 32.4219 -51.2695 32.4219 -48.1934 C 32.4219 -45.1172 34.8633 -42.6758 37.9395 -42.6758 Z M 17.9688 -17.0898 L 112.354 -17.0898 C 115.43 -17.0898 117.871 -19.5801 117.871 -22.6562 C 117.871 -25.7324 115.43 -28.1738 112.354 -28.1738 L 17.9688 -28.1738 C 14.8926 -28.1738 12.4512 -25.7324 12.4512 -22.6562 C 12.4512 -19.5801 14.8926 -17.0898 17.9688 -17.0898 Z M 37.9395 8.44727 L 92.3828 8.44727 C 95.459 8.44727 97.9004 6.00586 97.9004 2.92969 C 97.9004 -0.146484 95.459 -2.58789 92.3828 -2.58789 L 37.9395 -2.58789 C 34.8633 -2.58789 32.4219 -0.146484 32.4219 2.92969 C 32.4219 6.00586 34.8633 8.44727 37.9395 8.44727 Z"/>
  </g>
  <g id="Semibold-M" transform="matrix(1 0 0 1 1979.38 1126)">
   <path d="M 17.2852 -68.8965 L 110.4 -68.8965 C 113.135 -68.8965 115.332 -71.0449 115.332 -73.7793 C 115.332 -76.4648 113.135 -78.6133 110.4 -78.6133 L 17.2852 -78.6133 C 14.5996 -78.6133 12.4512 -76.4648 12.4512 -73.7793 C 12.4512 -71.0449 14.5996 -68.8965 17.2852 -68.8965 Z M 36.5723 -43.3594 L 91.1621 -43.3594 C 93.8965 -43.3594 96.0449 -45.5078 96.0449 -48.1934 C 96.0449 -50.9277 93.8965 -53.0762 91.1621 -53.0762 L 36.5723 -53.0762 C 33.8379 -53.0762 31.6895 -50.9277 31.6895 -48.1934 C 31.6895 -45.5078 33.8379 -43.3594 36.5723 -43.3594 Z M 17.2852 -17.7734 L 110.4 -17.7734 C 113.135 -17.7734 115.332 -19.9219 115.332 -22.6074 C 115.332 -25.3418 113.135 -27.4902 110.4 -27.4902 L 17.2852 -27.4902 C 14.5996 -27.4902 12.4512 -25.3418 12.4512 -22.6074 C 12.4512 -19.9219 14.5996 -17.7734 17.2852 -17.7734 Z M 36.5723 7.8125 L 91.1621 7.8125 C 93.8965 7.8125 96.0449 5.66406 96.0449 2.92969 C 96.0449 0.244141 93.8965 -1.9043 91.1621 -1.9043 L 36.5723 -1.9043 C 33.8379 -1.9043 31.6895 0.244141 31.6895 2.92969 C 31.6895 5.66406 33.8379 7.8125 36.5723 7.8125 Z"/>
  </g>
  <g id="Medium-M" transform="matrix(1 0 0 1 1683.64 1126)">
   <path d="M 16.7969 -69.4336 L 108.984 -69.4336 C 111.426 -69.4336 113.379 -71.3379 113.379 -73.7793 C 113.379 -76.1719 111.426 -78.125 108.984 -78.125 L 16.7969 -78.125 C 14.3555 -78.125 12.4512 -76.1719 12.4512 -73.7793 C 12.4512 -71.3379 14.3555 -69.4336 16.7969 -69.4336 Z M 35.498 -43.8477 L 90.2344 -43.8477 C 92.6758 -43.8477 94.6289 -45.752 94.6289 -48.1934 C 94.6289 -50.6348 92.6758 -52.5391 90.2344 -52.5391 L 35.498 -52.5391 C 33.1055 -52.5391 31.1523 -50.6348 31.1523 -48.1934 C 31.1523 -45.752 33.1055 -43.8477 35.498 -43.8477 Z M 16.7969 -18.2617 L 108.984 -18.2617 C 111.426 -18.2617 113.379 -20.166 113.379 -22.6074 C 113.379 -25.0488 111.426 -26.9531 108.984 -26.9531 L 16.7969 -26.9531 C 14.3555 -26.9531 12.4512 -25.0488 12.4512 -22.6074 C 12.4512 -20.166 14.3555 -18.2617 16.7969 -18.2617 Z M 35.498 7.32422 L 90.2344 7.32422 C 92.6758 7.32422 94.6289 5.37109 94.6289 2.97852 C 94.6289 0.537109 92.6758 -1.36719 90.2344 -1.36719 L 35.498 -1.36719 C 33.1055 -1.36719 31.1523 0.537109 31.1523 2.97852 C 31.1523 5.37109 33.1055 7.32422 35.498 7.32422 Z"/>
  </g>
  <g id="Regular-M" transform="matrix(1 0 0 1 1388.2 1126)">
   <path d="M 16.1133 -70.0684 L 107.08 -70.0684 C 109.131 -70.0684 110.84 -71.6797 110.84 -73.7793 C 110.84 -75.8301 109.131 -77.4414 107.08 -77.4414 L 16.1133 -77.4414 C 14.0625 -77.4414 12.4512 -75.8301 12.4512 -73.7793 C 12.4512 -71.6797 14.0625 -70.0684 16.1133 -70.0684 Z M 34.1797 -44.4824 L 89.0625 -44.4824 C 91.1133 -44.4824 92.7734 -46.0938 92.7734 -48.1934 C 92.7734 -50.2441 91.1133 -51.8555 89.0625 -51.8555 L 34.1797 -51.8555 C 32.0801 -51.8555 30.4688 -50.2441 30.4688 -48.1934 C 30.4688 -46.0938 32.0801 -44.4824 34.1797 -44.4824 Z M 16.1133 -18.8965 L 107.08 -18.8965 C 109.131 -18.8965 110.84 -20.5566 110.84 -22.6074 C 110.84 -24.6582 109.131 -26.2695 107.08 -26.2695 L 16.1133 -26.2695 C 14.0625 -26.2695 12.4512 -24.6582 12.4512 -22.6074 C 12.4512 -20.5566 14.0625 -18.8965 16.1133 -18.8965 Z M 34.1797 6.64062 L 89.0625 6.64062 C 91.1133 6.64062 92.7734 5.0293 92.7734 2.97852 C 92.7734 0.927734 91.1133 -0.732422 89.0625 -0.732422 L 34.1797 -0.732422 C 32.0801 -0.732422 30.4688 0.927734 30.4688 2.97852 C 30.4688 5.0293 32.0801 6.64062 34.1797 6.64062 Z"/>
  </g>
  <g id="Light-M" transform="matrix(1 0 0 1 1092.32 1126)">
   <path d="M 15.332 -70.8984 L 106.25 -70.8984 C 107.91 -70.8984 109.18 -72.1191 109.18 -73.7305 C 109.18 -75.3418 107.91 -76.6113 106.25 -76.6113 L 15.332 -76.6113 C 13.6719 -76.6113 12.4512 -75.3418 12.4512 -73.7305 C 12.4512 -72.1191 13.6719 -70.8984 15.332 -70.8984 Z M 32.5195 -45.2637 L 89.0625 -45.2637 C 90.6738 -45.2637 91.9922 -46.5332 91.9922 -48.1445 C 91.9922 -49.7559 90.6738 -50.9766 89.0625 -50.9766 L 32.5195 -50.9766 C 30.8594 -50.9766 29.6387 -49.7559 29.6387 -48.1445 C 29.6387 -46.5332 30.8594 -45.2637 32.5195 -45.2637 Z M 15.332 -19.6777 L 106.25 -19.6777 C 107.91 -19.6777 109.18 -20.8984 109.18 -22.5098 C 109.18 -24.1211 107.91 -25.3906 106.25 -25.3906 L 15.332 -25.3906 C 13.6719 -25.3906 12.4512 -24.1211 12.4512 -22.5098 C 12.4512 -20.8984 13.6719 -19.6777 15.332 -19.6777 Z M 32.5195 5.95703 L 89.0625 5.95703 C 90.6738 5.95703 91.9922 4.6875 91.9922 3.07617 C 91.9922 1.46484 90.6738 0.244141 89.0625 0.244141 L 32.5195 0.244141 C 30.8594 0.244141 29.6387 1.46484 29.6387 3.07617 C 29.6387 4.6875 30.8594 5.95703 32.5195 5.95703 Z"/>
  </g>
  <g id="Thin-M" transform="matrix(1 0 0 1 796.705 1126)">
   <path d="M 14.209 -71.9727 L 105.176 -71.9727 C 106.201 -71.9727 106.982 -72.7051 106.982 -73.7305 C 106.982 -74.7559 106.201 -75.4883 105.176 -75.4883 L 14.209 -75.4883 C 13.1836 -75.4883 12.4512 -74.7559 12.4512 -73.7305 C 12.4512 -72.7051 13.1836 -71.9727 14.209 -71.9727 Z M 30.3223 -46.2891 L 89.1113 -46.2891 C 90.1367 -46.2891 90.8691 -47.0215 90.8691 -48.0469 C 90.8691 -49.0723 90.1367 -49.8535 89.1113 -49.8535 L 30.3223 -49.8535 C 29.2969 -49.8535 28.5645 -49.0723 28.5645 -48.0469 C 28.5645 -47.0215 29.2969 -46.2891 30.3223 -46.2891 Z M 14.209 -20.6543 L 105.176 -20.6543 C 106.201 -20.6543 106.982 -21.3867 106.982 -22.4121 C 106.982 -23.4375 106.201 -24.1699 105.176 -24.1699 L 14.209 -24.1699 C 13.1836 -24.1699 12.4512 -23.4375 12.4512 -22.4121 C 12.4512 -21.3867 13.1836 -20.6543 14.209 -20.6543 Z M 30.3223 5.0293 L 89.1113 5.0293 C 90.1367 5.0293 90.8691 4.24805 90.8691 3.22266 C 90.8691 2.19727 90.1367 1.46484 89.1113 1.46484 L 30.3223 1.46484 C 29.2969 1.46484 28.5645 2.19727 28.5645 3.22266 C 28.5645 4.24805 29.2969 5.0293 30.3223 5.0293 Z"/>
  </g>
  <g id="Ultralight-M" transform="matrix(1 0 0 1 500.556 1126)">
   <path d="M 13.6719 -72.5098 L 104.639 -72.5098 C 105.371 -72.5098 105.859 -72.998 105.859 -73.7305 C 105.859 -74.4141 105.371 -74.9023 104.639 -74.9023 L 13.6719 -74.9023 C 12.9395 -74.9023 12.4512 -74.4141 12.4512 -73.7305 C 12.4512 -72.998 12.9395 -72.5098 13.6719 -72.5098 Z M 29.1992 -46.8262 L 89.1113 -46.8262 C 89.8438 -46.8262 90.332 -47.3145 90.332 -48.0469 C 90.332 -48.7793 89.8438 -49.2188 89.1113 -49.2188 L 29.1992 -49.2188 C 28.4668 -49.2188 27.9785 -48.7793 27.9785 -48.0469 C 27.9785 -47.3145 28.4668 -46.8262 29.1992 -46.8262 Z M 13.6719 -21.1426 L 104.639 -21.1426 C 105.371 -21.1426 105.859 -21.6309 105.859 -22.3633 C 105.859 -23.0957 105.371 -23.5352 104.639 -23.5352 L 13.6719 -23.5352 C 12.9395 -23.5352 12.4512 -23.0957 12.4512 -22.3633 C 12.4512 -21.6309 12.9395 -21.1426 13.6719 -21.1426 Z M 29.1992 4.54102 L 89.1113 4.54102 C 89.8438 4.54102 90.332 4.05273 90.332 3.32031 C 90.332 2.58789 89.8438 2.09961 89.1113 2.09961 L 29.1992 2.09961 C 28.4668 2.09961 27.9785 2.58789 27.9785 3.32031 C 27.9785 4.05273 28.4668 4.54102 29.1992 4.54102 Z"/>
  </g>
  <g id="Black-S" transform="matrix(1 0 0 1 2879.69 696)">
   <path d="M 15.4785 -59.7168 L 91.9434 -59.7168 C 95.1172 -59.7168 97.6562 -62.2559 97.6562 -65.4297 C 97.6562 -68.6035 95.1172 -71.1426 91.9434 -71.1426 L 15.4785 -71.1426 C 12.3047 -71.1426 9.76562 -68.6035 9.76562 -65.4297 C 9.76562 -62.2559 12.3047 -59.7168 15.4785 -59.7168 Z M 32.5684 -39.6973 L 74.8535 -39.6973 C 78.0273 -39.6973 80.5664 -42.2363 80.5664 -45.4102 C 80.5664 -48.584 78.0273 -51.123 74.8535 -51.123 L 32.5684 -51.123 C 29.3945 -51.123 26.8555 -48.584 26.8555 -45.4102 C 26.8555 -42.2363 29.3945 -39.6973 32.5684 -39.6973 Z M 15.4785 -19.6777 L 91.9434 -19.6777 C 95.1172 -19.6777 97.6562 -22.2168 97.6562 -25.3906 C 97.6562 -28.5645 95.1172 -31.1035 91.9434 -31.1035 L 15.4785 -31.1035 C 12.3047 -31.1035 9.76562 -28.5645 9.76562 -25.3906 C 9.76562 -22.2168 12.3047 -19.6777 15.4785 -19.6777 Z M 32.5684 0.341797 L 74.8535 0.341797 C 78.0273 0.341797 80.5664 -2.19727 80.5664 -5.37109 C 80.5664 -8.54492 78.0273 -11.084 74.8535 -11.084 L 32.5684 -11.084 C 29.3945 -11.084 26.8555 -8.54492 26.8555 -5.37109 C 26.8555 -2.19727 29.3945 0.341797 32.5684 0.341797 Z"/>
  </g>
  <g id="Heavy-S" transform="matrix(1 0 0 1 2584.15 696)">
   <path d="M 14.8926 -60.3027 L 90.1367 -60.3027 C 93.0176 -60.3027 95.3125 -62.5488 95.3125 -65.4297 C 95.3125 -68.3105 93.0176 -70.5566 90.1367 -70.5566 L 14.8926 -70.5566 C 12.0605 -70.5566 9.76562 -68.3105 9.76562 -65.4297 C 9.76562 -62.5488 12.0605 -60.3027 14.8926 -60.3027 Z M 31.3965 -40.2832 L 73.6328 -40.2832 C 76.5137 -40.2832 78.8086 -42.5293 78.8086 -45.4102 C 78.8086 -48.2422 76.5137 -50.5371 73.6328 -50.5371 L 31.3965 -50.5371 C 28.5156 -50.5371 26.2695 -48.2422 26.2695 -45.4102 C 26.2695 -42.5293 28.5156 -40.2832 31.3965 -40.2832 Z M 14.8926 -20.2637 L 90.1367 -20.2637 C 93.0176 -20.2637 95.3125 -22.5098 95.3125 -25.3906 C 95.3125 -28.2227 93.0176 -30.5176 90.1367 -30.5176 L 14.8926 -30.5176 C 12.0605 -30.5176 9.76562 -28.2227 9.76562 -25.3906 C 9.76562 -22.5098 12.0605 -20.2637 14.8926 -20.2637 Z M 31.3965 -0.244141 L 73.6328 -0.244141 C 76.5137 -0.244141 78.8086 -2.49023 78.8086 -5.37109 C 78.8086 -8.20312 76.5137 -10.498 73.6328 -10.498 L 31.3965 -10.498 C 28.5156 -10.498 26.2695 -8.20312 26.2695 -5.37109 C 26.2695 -2.49023 28.5156 -0.244141 31.3965 -0.244141 Z"/>
  </g>
  <g id="Bold-S" transform="matrix(1 0 0 1 2288.78 696)">
   <path d="M 14.2578 -60.9375 L 88.1348 -60.9375 C 90.625 -60.9375 92.627 -62.9395 92.627 -65.4297 C 92.627 -67.9199 90.625 -69.9219 88.1348 -69.9219 L 14.2578 -69.9219 C 11.7676 -69.9219 9.76562 -67.9199 9.76562 -65.4297 C 9.76562 -62.9395 11.7676 -60.9375 14.2578 -60.9375 Z M 30.0781 -40.918 L 72.3145 -40.918 C 74.8047 -40.918 76.8555 -42.9199 76.8555 -45.4102 C 76.8555 -47.9004 74.8047 -49.9023 72.3145 -49.9023 L 30.0781 -49.9023 C 27.5879 -49.9023 25.5859 -47.9004 25.5859 -45.4102 C 25.5859 -42.9199 27.5879 -40.918 30.0781 -40.918 Z M 14.2578 -20.8984 L 88.1348 -20.8984 C 90.625 -20.8984 92.627 -22.9004 92.627 -25.3906 C 92.627 -27.8809 90.625 -29.8828 88.1348 -29.8828 L 14.2578 -29.8828 C 11.7676 -29.8828 9.76562 -27.8809 9.76562 -25.3906 C 9.76562 -22.9004 11.7676 -20.8984 14.2578 -20.8984 Z M 30.0781 -0.878906 L 72.3145 -0.878906 C 74.8047 -0.878906 76.8555 -2.88086 76.8555 -5.37109 C 76.8555 -7.86133 74.8047 -9.86328 72.3145 -9.86328 L 30.0781 -9.86328 C 27.5879 -9.86328 25.5859 -7.86133 25.5859 -5.37109 C 25.5859 -2.88086 27.5879 -0.878906 30.0781 -0.878906 Z"/>
  </g>
  <g id="Semibold-S" transform="matrix(1 0 0 1 1992.97 696)">
   <path d="M 13.8184 -61.377 L 86.7188 -61.377 C 89.0137 -61.377 90.8203 -63.1836 90.8203 -65.4297 C 90.8203 -67.6758 89.0137 -69.4824 86.7188 -69.4824 L 13.8184 -69.4824 C 11.5723 -69.4824 9.76562 -67.6758 9.76562 -65.4297 C 9.76562 -63.1836 11.5723 -61.377 13.8184 -61.377 Z M 29.1504 -41.3574 L 71.3867 -41.3574 C 73.6328 -41.3574 75.4883 -43.1641 75.4883 -45.4102 C 75.4883 -47.6562 73.6328 -49.4629 71.3867 -49.4629 L 29.1504 -49.4629 C 26.9043 -49.4629 25.0977 -47.6562 25.0977 -45.4102 C 25.0977 -43.1641 26.9043 -41.3574 29.1504 -41.3574 Z M 13.8184 -21.3379 L 86.7188 -21.3379 C 89.0137 -21.3379 90.8203 -23.1445 90.8203 -25.3906 C 90.8203 -27.6367 89.0137 -29.4434 86.7188 -29.4434 L 13.8184 -29.4434 C 11.5723 -29.4434 9.76562 -27.6367 9.76562 -25.3906 C 9.76562 -23.1445 11.5723 -21.3379 13.8184 -21.3379 Z M 29.1504 -1.31836 L 71.3867 -1.31836 C 73.6328 -1.31836 75.4883 -3.07617 75.4883 -5.37109 C 75.4883 -7.61719 73.6328 -9.42383 71.3867 -9.42383 L 29.1504 -9.42383 C 26.9043 -9.42383 25.0977 -7.61719 25.0977 -5.37109 C 25.0977 -3.07617 26.9043 -1.31836 29.1504 -1.31836 Z"/>
  </g>
  <g id="Medium-S" transform="matrix(1 0 0 1 1696.95 696)">
   <path d="M 13.4766 -61.7188 L 85.6934 -61.7188 C 87.7441 -61.7188 89.4531 -63.3301 89.4531 -65.4297 C 89.4531 -67.4805 87.7441 -69.1406 85.6934 -69.1406 L 13.4766 -69.1406 C 11.4258 -69.1406 9.76562 -67.4805 9.76562 -65.4297 C 9.76562 -63.3301 11.4258 -61.7188 13.4766 -61.7188 Z M 28.4668 -41.6992 L 70.7031 -41.6992 C 72.7539 -41.6992 74.4629 -43.3105 74.4629 -45.4102 C 74.4629 -47.4609 72.7539 -49.1211 70.7031 -49.1211 L 28.4668 -49.1211 C 26.416 -49.1211 24.7559 -47.4609 24.7559 -45.4102 C 24.7559 -43.3105 26.416 -41.6992 28.4668 -41.6992 Z M 13.4766 -21.6309 L 85.6934 -21.6309 C 87.7441 -21.6309 89.4531 -23.291 89.4531 -25.3906 C 89.4531 -27.4414 87.7441 -29.1016 85.6934 -29.1016 L 13.4766 -29.1016 C 11.4258 -29.1016 9.76562 -27.4414 9.76562 -25.3906 C 9.76562 -23.291 11.4258 -21.6309 13.4766 -21.6309 Z M 28.4668 -1.61133 L 70.7031 -1.61133 C 72.7539 -1.61133 74.4629 -3.27148 74.4629 -5.37109 C 74.4629 -7.42188 72.7539 -9.08203 70.7031 -9.08203 L 28.4668 -9.08203 C 26.416 -9.08203 24.7559 -7.42188 24.7559 -5.37109 C 24.7559 -3.27148 26.416 -1.61133 28.4668 -1.61133 Z"/>
  </g>
  <g id="Regular-S" transform="matrix(1 0 0 1 1401.14 696)">
   <path d="M 13.0371 -62.1582 L 84.2773 -62.1582 C 86.1328 -62.1582 87.6465 -63.5742 87.6465 -65.4297 C 87.6465 -67.2852 86.1328 -68.7012 84.2773 -68.7012 L 13.0371 -68.7012 C 11.2305 -68.7012 9.76562 -67.2852 9.76562 -65.4297 C 9.76562 -63.5742 11.2305 -62.1582 13.0371 -62.1582 Z M 27.5879 -42.0898 L 69.7754 -42.0898 C 71.6309 -42.0898 73.0957 -43.5547 73.0957 -45.4102 C 73.0957 -47.2168 71.6309 -48.6816 69.7754 -48.6816 L 27.5879 -48.6816 C 25.7324 -48.6816 24.2676 -47.2168 24.2676 -45.4102 C 24.2676 -43.5547 25.7324 -42.0898 27.5879 -42.0898 Z M 13.0371 -22.0703 L 84.2773 -22.0703 C 86.1328 -22.0703 87.6465 -23.5352 87.6465 -25.3906 C 87.6465 -27.1973 86.1328 -28.6621 84.2773 -28.6621 L 13.0371 -28.6621 C 11.2305 -28.6621 9.76562 -27.1973 9.76562 -25.3906 C 9.76562 -23.5352 11.2305 -22.0703 13.0371 -22.0703 Z M 27.5879 -2.05078 L 69.7754 -2.05078 C 71.6309 -2.05078 73.0957 -3.51562 73.0957 -5.37109 C 73.0957 -7.17773 71.6309 -8.64258 69.7754 -8.64258 L 27.5879 -8.64258 C 25.7324 -8.64258 24.2676 -7.17773 24.2676 -5.37109 C 24.2676 -3.51562 25.7324 -2.05078 27.5879 -2.05078 Z"/>
  </g>
  <g id="Light-S" transform="matrix(1 0 0 1 1105.16 696)">
   <path d="M 12.3047 -62.8418 L 83.5938 -62.8418 C 85.0098 -62.8418 86.1816 -63.9648 86.1816 -65.4297 C 86.1816 -66.8457 85.0098 -67.9688 83.5938 -67.9688 L 12.3047 -67.9688 C 10.8887 -67.9688 9.76562 -66.8457 9.76562 -65.4297 C 9.76562 -63.9648 10.8887 -62.8418 12.3047 -62.8418 Z M 26.123 -42.8223 L 69.7754 -42.8223 C 71.2402 -42.8223 72.3633 -43.8965 72.3633 -45.3613 C 72.3633 -46.7773 71.2402 -47.9004 69.7754 -47.9004 L 26.123 -47.9004 C 24.6582 -47.9004 23.5352 -46.7773 23.5352 -45.3613 C 23.5352 -43.8965 24.6582 -42.8223 26.123 -42.8223 Z M 12.3047 -22.7539 L 83.5938 -22.7539 C 85.0098 -22.7539 86.1816 -23.877 86.1816 -25.293 C 86.1816 -26.7578 85.0098 -27.8809 83.5938 -27.8809 L 12.3047 -27.8809 C 10.8887 -27.8809 9.76562 -26.7578 9.76562 -25.293 C 9.76562 -23.877 10.8887 -22.7539 12.3047 -22.7539 Z M 26.123 -2.68555 L 69.7754 -2.68555 C 71.2402 -2.68555 72.3633 -3.80859 72.3633 -5.27344 C 72.3633 -6.68945 71.2402 -7.8125 69.7754 -7.8125 L 26.123 -7.8125 C 24.6582 -7.8125 23.5352 -6.68945 23.5352 -5.27344 C 23.5352 -3.80859 24.6582 -2.68555 26.123 -2.68555 Z"/>
  </g>
  <g id="Thin-S" transform="matrix(1 0 0 1 809.425 696)">
   <path d="M 11.377 -63.8184 L 82.6172 -63.8184 C 83.5449 -63.8184 84.2285 -64.4531 84.2285 -65.3809 C 84.2285 -66.3086 83.5449 -66.9922 82.6172 -66.9922 L 11.377 -66.9922 C 10.4492 -66.9922 9.76562 -66.3086 9.76562 -65.3809 C 9.76562 -64.4531 10.4492 -63.8184 11.377 -63.8184 Z M 24.1699 -43.7012 L 69.8242 -43.7012 C 70.752 -43.7012 71.4355 -44.3848 71.4355 -45.3125 C 71.4355 -46.2402 70.752 -46.875 69.8242 -46.875 L 24.1699 -46.875 C 23.2422 -46.875 22.6074 -46.2402 22.6074 -45.3125 C 22.6074 -44.3848 23.2422 -43.7012 24.1699 -43.7012 Z M 11.377 -23.6328 L 82.6172 -23.6328 C 83.5449 -23.6328 84.2285 -24.2676 84.2285 -25.1953 C 84.2285 -26.123 83.5449 -26.8066 82.6172 -26.8066 L 11.377 -26.8066 C 10.4492 -26.8066 9.76562 -26.123 9.76562 -25.1953 C 9.76562 -24.2676 10.4492 -23.6328 11.377 -23.6328 Z M 24.1699 -3.51562 L 69.8242 -3.51562 C 70.752 -3.51562 71.4355 -4.19922 71.4355 -5.12695 C 71.4355 -6.05469 70.752 -6.68945 69.8242 -6.68945 L 24.1699 -6.68945 C 23.2422 -6.68945 22.6074 -6.05469 22.6074 -5.12695 C 22.6074 -4.19922 23.2422 -3.51562 24.1699 -3.51562 Z"/>
  </g>
  <g id="Ultralight-S" transform="matrix(1 0 0 1 513.202 696)">
   <path d="M 10.8398 -64.3066 L 82.1289 -64.3066 C 82.8125 -64.3066 83.252 -64.7461 83.252 -65.3809 C 83.252 -66.0156 82.8125 -66.4551 82.1289 -66.4551 L 10.8398 -66.4551 C 10.2051 -66.4551 9.76562 -66.0156 9.76562 -65.3809 C 9.76562 -64.7461 10.2051 -64.3066 10.8398 -64.3066 Z M 23.1934 -44.1895 L 69.8242 -44.1895 C 70.459 -44.1895 70.8984 -44.6289 70.8984 -45.2637 C 70.8984 -45.8984 70.459 -46.3379 69.8242 -46.3379 L 23.1934 -46.3379 C 22.5098 -46.3379 22.0703 -45.8984 22.0703 -45.2637 C 22.0703 -44.6289 22.5098 -44.1895 23.1934 -44.1895 Z M 10.8398 -24.0723 L 82.1289 -24.0723 C 82.8125 -24.0723 83.252 -24.5117 83.252 -25.1465 C 83.252 -25.7812 82.8125 -26.2695 82.1289 -26.2695 L 10.8398 -26.2695 C 10.2051 -26.2695 9.76562 -25.7812 9.76562 -25.1465 C 9.76562 -24.5117 10.2051 -24.0723 10.8398 -24.0723 Z M 23.1934 -3.95508 L 69.8242 -3.95508 C 70.459 -3.95508 70.8984 -4.39453 70.8984 -5.0293 C 70.8984 -5.71289 70.459 -6.15234 69.8242 -6.15234 L 23.1934 -6.15234 C 22.5098 -6.15234 22.0703 -5.71289 22.0703 -5.0293 C 22.0703 -4.39453 22.5098 -3.95508 23.1934 -3.95508 Z"/>
  </g>
 </g>
</svg>
