<?xml version="1.0" encoding="UTF-8"?>
<!--Generator: Apple Native CoreSVG 129-->
<!DOCTYPE svg
PUBLIC "-//W3C//DTD SVG 1.1//EN"
       "http://www.w3.org/Graphics/SVG/1.1/DTD/svg11.dtd">
<svg version="1.1" xmlns="http://www.w3.org/2000/svg" xmlns:xlink="http://www.w3.org/1999/xlink" width="3300" height="2200">
 <!--glyph: "uni10023F.medium", point size: 100.000000, font version: "Version 16.0d9e1", template writer version: "8"-->
 <g id="Notes">
  <rect height="2200" id="artboard" style="fill:white;opacity:1" width="3300" x="0" y="0"/>
  <line id="" style="fill:none;stroke:black;opacity:1;stroke-width:0.5;" x1="263" x2="3036" y1="292" y2="292"/>
  <text style="stroke:none;fill:black;font-family:-apple-system,&quot;SF Pro Display&quot;,&quot;SF Pro Text&quot;,Helvetica,sans-serif;font-weight:bold;" transform="matrix(1 0 0 1 263 322)">Weight/Scale Variations</text>
  <text style="stroke:none;fill:black;font-family:-apple-system,&quot;SF Pro Display&quot;,&quot;SF Pro Text&quot;,Helvetica,sans-serif;text-anchor:middle;" transform="matrix(1 0 0 1 559.711 322)">Ultralight</text>
  <text style="stroke:none;fill:black;font-family:-apple-system,&quot;SF Pro Display&quot;,&quot;SF Pro Text&quot;,Helvetica,sans-serif;text-anchor:middle;" transform="matrix(1 0 0 1 856.422 322)">Thin</text>
  <text style="stroke:none;fill:black;font-family:-apple-system,&quot;SF Pro Display&quot;,&quot;SF Pro Text&quot;,Helvetica,sans-serif;text-anchor:middle;" transform="matrix(1 0 0 1 1153.13 322)">Light</text>
  <text style="stroke:none;fill:black;font-family:-apple-system,&quot;SF Pro Display&quot;,&quot;SF Pro Text&quot;,Helvetica,sans-serif;text-anchor:middle;" transform="matrix(1 0 0 1 1449.84 322)">Regular</text>
  <text style="stroke:none;fill:black;font-family:-apple-system,&quot;SF Pro Display&quot;,&quot;SF Pro Text&quot;,Helvetica,sans-serif;text-anchor:middle;" transform="matrix(1 0 0 1 1746.56 322)">Medium</text>
  <text style="stroke:none;fill:black;font-family:-apple-system,&quot;SF Pro Display&quot;,&quot;SF Pro Text&quot;,Helvetica,sans-serif;text-anchor:middle;" transform="matrix(1 0 0 1 2043.27 322)">Semibold</text>
  <text style="stroke:none;fill:black;font-family:-apple-system,&quot;SF Pro Display&quot;,&quot;SF Pro Text&quot;,Helvetica,sans-serif;text-anchor:middle;" transform="matrix(1 0 0 1 2339.98 322)">Bold</text>
  <text style="stroke:none;fill:black;font-family:-apple-system,&quot;SF Pro Display&quot;,&quot;SF Pro Text&quot;,Helvetica,sans-serif;text-anchor:middle;" transform="matrix(1 0 0 1 2636.69 322)">Heavy</text>
  <text style="stroke:none;fill:black;font-family:-apple-system,&quot;SF Pro Display&quot;,&quot;SF Pro Text&quot;,Helvetica,sans-serif;text-anchor:middle;" transform="matrix(1 0 0 1 2933.4 322)">Black</text>
  <line id="" style="fill:none;stroke:black;opacity:1;stroke-width:0.5;" x1="263" x2="3036" y1="1903" y2="1903"/>
  <g id="" transform="matrix(1 0 0 1 263 1933)">
   <path d="M 9.24805 0.830078 C 13.5547 0.830078 17.1387 -2.74414 17.1387 -7.05078 C 17.1387 -11.3574 13.5449 -14.9316 9.23828 -14.9316 C 4.94141 -14.9316 1.36719 -11.3574 1.36719 -7.05078 C 1.36719 -2.74414 4.95117 0.830078 9.24805 0.830078 Z M 9.24805 -0.654297 C 5.70312 -0.654297 2.87109 -3.49609 2.87109 -7.05078 C 2.87109 -10.6055 5.69336 -13.4473 9.23828 -13.4473 C 12.793 -13.4473 15.6348 -10.6055 15.6445 -7.05078 C 15.6543 -3.49609 12.8027 -0.654297 9.24805 -0.654297 Z M 9.22852 -3.62305 C 9.69727 -3.62305 9.9707 -3.93555 9.9707 -4.45312 L 9.9707 -6.31836 L 12.002 -6.31836 C 12.5 -6.31836 12.832 -6.57227 12.832 -7.04102 C 12.832 -7.51953 12.5195 -7.7832 12.002 -7.7832 L 9.9707 -7.7832 L 9.9707 -9.81445 C 9.9707 -10.332 9.69727 -10.6543 9.22852 -10.6543 C 8.75977 -10.6543 8.50586 -10.3125 8.50586 -9.81445 L 8.50586 -7.7832 L 6.49414 -7.7832 C 5.97656 -7.7832 5.64453 -7.51953 5.64453 -7.04102 C 5.64453 -6.57227 5.99609 -6.31836 6.49414 -6.31836 L 8.50586 -6.31836 L 8.50586 -4.45312 C 8.50586 -3.95508 8.75977 -3.62305 9.22852 -3.62305 Z"/>
  </g>
  <g id="" transform="matrix(1 0 0 1 281.506 1933)">
   <path d="M 11.709 2.91016 C 17.1582 2.91016 21.6699 -1.61133 21.6699 -7.05078 C 21.6699 -12.5 17.1484 -17.0117 11.6992 -17.0117 C 6.25977 -17.0117 1.74805 -12.5 1.74805 -7.05078 C 1.74805 -1.61133 6.26953 2.91016 11.709 2.91016 Z M 11.709 1.25 C 7.09961 1.25 3.41797 -2.44141 3.41797 -7.05078 C 3.41797 -11.6602 7.08984 -15.3516 11.6992 -15.3516 C 16.3086 -15.3516 20 -11.6602 20.0098 -7.05078 C 20.0195 -2.44141 16.3184 1.25 11.709 1.25 Z M 11.6797 -2.66602 C 12.207 -2.66602 12.5098 -3.01758 12.5098 -3.59375 L 12.5098 -6.23047 L 15.3223 -6.23047 C 15.8691 -6.23047 16.25 -6.51367 16.25 -7.03125 C 16.25 -7.55859 15.8887 -7.86133 15.3223 -7.86133 L 12.5098 -7.86133 L 12.5098 -10.6836 C 12.5098 -11.25 12.207 -11.6113 11.6797 -11.6113 C 11.1621 -11.6113 10.8789 -11.2305 10.8789 -10.6836 L 10.8789 -7.86133 L 8.07617 -7.86133 C 7.50977 -7.86133 7.13867 -7.55859 7.13867 -7.03125 C 7.13867 -6.51367 7.5293 -6.23047 8.07617 -6.23047 L 10.8789 -6.23047 L 10.8789 -3.59375 C 10.8789 -3.03711 11.1621 -2.66602 11.6797 -2.66602 Z"/>
  </g>
  <g id="" transform="matrix(1 0 0 1 304.924 1933)">
   <path d="M 14.9707 5.66406 C 21.9336 5.66406 27.6953 -0.0976562 27.6953 -7.05078 C 27.6953 -14.0137 21.9238 -19.7754 14.9609 -19.7754 C 8.00781 -19.7754 2.25586 -14.0137 2.25586 -7.05078 C 2.25586 -0.0976562 8.01758 5.66406 14.9707 5.66406 Z M 14.9707 3.84766 C 8.93555 3.84766 4.08203 -1.01562 4.08203 -7.05078 C 4.08203 -13.0957 8.92578 -17.9492 14.9609 -17.9492 C 21.0059 -17.9492 25.8594 -13.0957 25.8691 -7.05078 C 25.8789 -1.01562 21.0156 3.84766 14.9707 3.84766 Z M 14.9414 -1.38672 C 15.5176 -1.38672 15.8594 -1.77734 15.8594 -2.38281 L 15.8594 -6.13281 L 19.7754 -6.13281 C 20.3711 -6.13281 20.7812 -6.46484 20.7812 -7.02148 C 20.7812 -7.59766 20.3906 -7.93945 19.7754 -7.93945 L 15.8594 -7.93945 L 15.8594 -11.8652 C 15.8594 -12.4805 15.5176 -12.8711 14.9414 -12.8711 C 14.375 -12.8711 14.0527 -12.4609 14.0527 -11.8652 L 14.0527 -7.93945 L 10.1465 -7.93945 C 9.53125 -7.93945 9.13086 -7.59766 9.13086 -7.02148 C 9.13086 -6.46484 9.55078 -6.13281 10.1465 -6.13281 L 14.0527 -6.13281 L 14.0527 -2.38281 C 14.0527 -1.79688 14.375 -1.38672 14.9414 -1.38672 Z"/>
  </g>
  <text style="stroke:none;fill:black;font-family:-apple-system,&quot;SF Pro Display&quot;,&quot;SF Pro Text&quot;,Helvetica,sans-serif;font-weight:bold;" transform="matrix(1 0 0 1 263 1953)">Design Variations</text>
  <text style="stroke:none;fill:black;font-family:-apple-system,&quot;SF Pro Display&quot;,&quot;SF Pro Text&quot;,Helvetica,sans-serif;" transform="matrix(1 0 0 1 263 1971)">Symbols are supported in up to nine weights and three scales.</text>
  <text style="stroke:none;fill:black;font-family:-apple-system,&quot;SF Pro Display&quot;,&quot;SF Pro Text&quot;,Helvetica,sans-serif;" transform="matrix(1 0 0 1 263 1989)">For optimal layout with text and other symbols, vertically align</text>
  <text style="stroke:none;fill:black;font-family:-apple-system,&quot;SF Pro Display&quot;,&quot;SF Pro Text&quot;,Helvetica,sans-serif;" transform="matrix(1 0 0 1 263 2007)">symbols with the adjacent text.</text>
  <line id="" style="fill:none;stroke:#00AEEF;stroke-width:0.5;opacity:1.0;" x1="776" x2="776" y1="1919" y2="1933"/>
  <g id="" transform="matrix(1 0 0 1 776 1933)">
   <path d="M 3.31055 0.126953 C 3.82812 0.126953 4.08203 -0.0683594 4.26758 -0.605469 L 5.52734 -4.0625 L 11.2891 -4.0625 L 12.5488 -0.605469 C 12.7344 -0.0683594 12.9883 0.126953 13.4961 0.126953 C 14.0137 0.126953 14.3457 -0.185547 14.3457 -0.673828 C 14.3457 -0.839844 14.3164 -0.986328 14.2383 -1.20117 L 9.6582 -13.3887 C 9.43359 -13.9941 9.0332 -14.2871 8.4082 -14.2871 C 7.80273 -14.2871 7.39258 -13.9941 7.17773 -13.3984 L 2.59766 -1.19141 C 2.51953 -0.976562 2.49023 -0.830078 2.49023 -0.664062 C 2.49023 -0.175781 2.80273 0.126953 3.31055 0.126953 Z M 6.00586 -5.53711 L 8.37891 -12.1094 L 8.42773 -12.1094 L 10.8008 -5.53711 Z"/>
  </g>
  <line id="" style="fill:none;stroke:#00AEEF;stroke-width:0.5;opacity:1.0;" x1="792.836" x2="792.836" y1="1919" y2="1933"/>
  <text style="stroke:none;fill:black;font-family:-apple-system,&quot;SF Pro Display&quot;,&quot;SF Pro Text&quot;,Helvetica,sans-serif;font-weight:bold;" transform="matrix(1 0 0 1 776 1953)">Margins</text>
  <text style="stroke:none;fill:black;font-family:-apple-system,&quot;SF Pro Display&quot;,&quot;SF Pro Text&quot;,Helvetica,sans-serif;" transform="matrix(1 0 0 1 776 1971)">Leading and trailing margins on the left and right side of each symbol</text>
  <text style="stroke:none;fill:black;font-family:-apple-system,&quot;SF Pro Display&quot;,&quot;SF Pro Text&quot;,Helvetica,sans-serif;" transform="matrix(1 0 0 1 776 1989)">can be adjusted by modifying the x-location of the margin guidelines.</text>
  <text style="stroke:none;fill:black;font-family:-apple-system,&quot;SF Pro Display&quot;,&quot;SF Pro Text&quot;,Helvetica,sans-serif;" transform="matrix(1 0 0 1 776 2007)">Modifications are automatically applied proportionally to all</text>
  <text style="stroke:none;fill:black;font-family:-apple-system,&quot;SF Pro Display&quot;,&quot;SF Pro Text&quot;,Helvetica,sans-serif;" transform="matrix(1 0 0 1 776 2025)">scales and weights.</text>
  <g id="" transform="matrix(1 0 0 1 1289 1933)">
   <path d="M 2.8418 1.86523 L 4.54102 3.57422 C 5.40039 4.44336 6.38672 4.38477 7.31445 3.35938 L 17.4902 -7.85156 C 17.7539 -7.76367 18.0273 -7.7832 18.3398 -7.8418 L 19.4043 -8.03711 L 20.0684 -7.36328 L 20.0293 -6.80664 C 19.9902 -6.30859 20.1172 -5.92773 20.6055 -5.44922 L 21.3672 -4.70703 C 21.8457 -4.22852 22.4609 -4.19922 22.9297 -4.66797 L 25.8398 -7.58789 C 26.3086 -8.05664 26.2891 -8.65234 25.8105 -9.13086 L 25.0391 -9.89258 C 24.5605 -10.3711 24.1895 -10.5273 23.7109 -10.4883 L 23.1348 -10.4395 L 22.4902 -11.0742 L 22.7344 -12.1973 C 22.8613 -12.7637 22.7051 -13.2031 22.1191 -13.7891 L 19.9219 -15.9766 C 16.582 -19.2969 12.1484 -19.2188 9.25781 -16.3281 C 8.83789 -15.918 8.80859 -15.3418 9.04297 -14.9512 C 9.27734 -14.5898 9.73633 -14.3555 10.3809 -14.5215 C 11.8457 -14.8633 13.3691 -14.9219 14.7949 -13.9844 L 14.209 -12.5293 C 14.0137 -12.0508 13.9844 -11.6504 14.1113 -11.2891 L 3.04688 -0.898438 C 2.06055 0.0195312 1.98242 0.996094 2.8418 1.86523 Z M 10.752 -15.957 C 13.1836 -17.7344 16.4746 -17.4316 18.7012 -15.2051 L 21.1328 -12.793 C 21.3672 -12.5586 21.4062 -12.373 21.3379 -12.0312 L 21.0156 -10.5469 L 22.5195 -9.0625 L 23.5059 -9.12109 C 23.7598 -9.13086 23.8379 -9.11133 24.0332 -8.91602 L 24.6094 -8.33984 L 22.168 -5.89844 L 21.5918 -6.47461 C 21.3965 -6.66992 21.3672 -6.74805 21.377 -7.01172 L 21.4453 -7.98828 L 19.9512 -9.47266 L 18.4277 -9.21875 C 18.1055 -9.15039 17.959 -9.17969 17.7148 -9.41406 L 15.7129 -11.416 C 15.459 -11.6504 15.4297 -11.8164 15.5859 -12.1875 L 16.4648 -14.2773 C 14.9023 -15.7324 12.8711 -16.3574 10.8398 -15.7617 C 10.6836 -15.7227 10.625 -15.8496 10.752 -15.957 Z M 5.27344 2.30469 L 4.10156 1.14258 C 3.63281 0.683594 3.74023 0.341797 4.14062 -0.0195312 L 14.9512 -10.1953 L 16.416 -8.71094 L 6.42578 2.27539 C 6.07422 2.67578 5.74219 2.77344 5.27344 2.30469 Z"/>
  </g>
  <text style="stroke:none;fill:black;font-family:-apple-system,&quot;SF Pro Display&quot;,&quot;SF Pro Text&quot;,Helvetica,sans-serif;font-weight:bold;" transform="matrix(1 0 0 1 1289 1953)">Exporting</text>
  <text style="stroke:none;fill:black;font-family:-apple-system,&quot;SF Pro Display&quot;,&quot;SF Pro Text&quot;,Helvetica,sans-serif;" transform="matrix(1 0 0 1 1289 1971)">Symbols should be outlined when exporting to ensure the</text>
  <text style="stroke:none;fill:black;font-family:-apple-system,&quot;SF Pro Display&quot;,&quot;SF Pro Text&quot;,Helvetica,sans-serif;" transform="matrix(1 0 0 1 1289 1989)">design is preserved when submitting to Xcode.</text>
  <text id="template-version" style="stroke:none;fill:black;font-family:-apple-system,&quot;SF Pro Display&quot;,&quot;SF Pro Text&quot;,Helvetica,sans-serif;text-anchor:end;" transform="matrix(1 0 0 1 3036 1933)">Template v.2.0</text>
  <text style="stroke:none;fill:black;font-family:-apple-system,&quot;SF Pro Display&quot;,&quot;SF Pro Text&quot;,Helvetica,sans-serif;text-anchor:end;" transform="matrix(1 0 0 1 3036 1951)">Requires Xcode 12 or greater</text>
  <text style="stroke:none;fill:black;font-family:-apple-system,&quot;SF Pro Display&quot;,&quot;SF Pro Text&quot;,Helvetica,sans-serif;text-anchor:end;" transform="matrix(1 0 0 1 3036 1969)">Generated from doc.text</text>
  <text style="stroke:none;fill:black;font-family:-apple-system,&quot;SF Pro Display&quot;,&quot;SF Pro Text&quot;,Helvetica,sans-serif;text-anchor:end;" transform="matrix(1 0 0 1 3036 1987)">Typeset at 100 points</text>
  <text style="stroke:none;fill:black;font-family:-apple-system,&quot;SF Pro Display&quot;,&quot;SF Pro Text&quot;,Helvetica,sans-serif;" transform="matrix(1 0 0 1 263 726)">Small</text>
  <text style="stroke:none;fill:black;font-family:-apple-system,&quot;SF Pro Display&quot;,&quot;SF Pro Text&quot;,Helvetica,sans-serif;" transform="matrix(1 0 0 1 263 1156)">Medium</text>
  <text style="stroke:none;fill:black;font-family:-apple-system,&quot;SF Pro Display&quot;,&quot;SF Pro Text&quot;,Helvetica,sans-serif;" transform="matrix(1 0 0 1 263 1586)">Large</text>
 </g>
 <g id="Guides">
  <g id="H-reference" style="fill:#27AAE1;stroke:none;" transform="matrix(1 0 0 1 339 696)">
   <path d="M 0.976562 0 L 3.66211 0 L 12.9883 -24.4629 L 45.7031 -24.4629 L 55.0781 0 L 57.7148 0 L 30.6152 -70.459 L 28.125 -70.459 Z M 29.2969 -67.1387 L 29.3945 -67.1387 L 44.873 -26.709 L 13.8672 -26.709 Z"/>
  </g>
  <line id="Baseline-S" style="fill:none;stroke:#27AAE1;opacity:1;stroke-width:0.5;" x1="263" x2="3036" y1="696" y2="696"/>
  <line id="Capline-S" style="fill:none;stroke:#27AAE1;opacity:1;stroke-width:0.5;" x1="263" x2="3036" y1="625.541" y2="625.541"/>
  <g id="H-reference" style="fill:#27AAE1;stroke:none;" transform="matrix(1 0 0 1 339 1126)">
   <path d="M 0.976562 0 L 3.66211 0 L 12.9883 -24.4629 L 45.7031 -24.4629 L 55.0781 0 L 57.7148 0 L 30.6152 -70.459 L 28.125 -70.459 Z M 29.2969 -67.1387 L 29.3945 -67.1387 L 44.873 -26.709 L 13.8672 -26.709 Z"/>
  </g>
  <line id="Baseline-M" style="fill:none;stroke:#27AAE1;opacity:1;stroke-width:0.5;" x1="263" x2="3036" y1="1126" y2="1126"/>
  <line id="Capline-M" style="fill:none;stroke:#27AAE1;opacity:1;stroke-width:0.5;" x1="263" x2="3036" y1="1055.54" y2="1055.54"/>
  <g id="H-reference" style="fill:#27AAE1;stroke:none;" transform="matrix(1 0 0 1 339 1556)">
   <path d="M 0.976562 0 L 3.66211 0 L 12.9883 -24.4629 L 45.7031 -24.4629 L 55.0781 0 L 57.7148 0 L 30.6152 -70.459 L 28.125 -70.459 Z M 29.2969 -67.1387 L 29.3945 -67.1387 L 44.873 -26.709 L 13.8672 -26.709 Z"/>
  </g>
  <line id="Baseline-L" style="fill:none;stroke:#27AAE1;opacity:1;stroke-width:0.5;" x1="263" x2="3036" y1="1556" y2="1556"/>
  <line id="Capline-L" style="fill:none;stroke:#27AAE1;opacity:1;stroke-width:0.5;" x1="263" x2="3036" y1="1485.54" y2="1485.54"/>
  <line id="left-margin" style="fill:none;stroke:#00AEEF;stroke-width:0.5;opacity:1.0;" x1="1396.33" x2="1396.33" y1="1030.79" y2="1150.12"/>
  <line id="right-margin" style="fill:none;stroke:#00AEEF;stroke-width:0.5;opacity:1.0;" x1="1503.36" x2="1503.36" y1="1030.79" y2="1150.12"/>
 </g>
 <g id="Symbols">
  <g id="Black-L" transform="matrix(1 0 0 1 2859.65 1556)">
   <path d="M 39.8926 35.2539 L 107.617 35.2539 C 122.803 35.2539 131.445 26.5625 131.445 11.3281 L 131.445 -45.3613 C 131.445 -56.4453 129.688 -62.207 122.559 -69.3848 L 95.4102 -96.7773 C 88.3789 -103.809 82.4707 -105.664 71.7285 -105.664 L 39.8926 -105.664 C 24.707 -105.664 16.0645 -96.9727 16.0645 -81.7383 L 16.0645 11.3281 C 16.0645 26.5625 24.707 35.2539 39.8926 35.2539 Z M 42.7246 14.9902 C 38.1836 14.9902 36.3281 12.8418 36.3281 8.59375 L 36.3281 -79.0039 C 36.3281 -83.252 38.1836 -85.4004 42.7246 -85.4004 L 65.332 -85.4004 L 65.332 -58.1055 C 65.332 -45.2637 71.2891 -39.3066 84.1309 -39.3066 L 111.23 -39.3066 L 111.23 8.59375 C 111.23 12.8418 109.326 14.9902 104.785 14.9902 Z M 85.4492 -55.2246 C 82.666 -55.2246 81.25 -56.6406 81.25 -59.4727 L 81.25 -84.4727 L 110.254 -55.2246 Z M 92.7246 -26.123 L 54.2969 -26.123 C 51.6113 -26.123 49.707 -24.1699 49.707 -21.6797 C 49.707 -19.0918 51.6113 -17.0898 54.2969 -17.0898 L 92.7246 -17.0898 C 95.3125 -17.0898 97.2656 -19.0918 97.2656 -21.6797 C 97.2656 -24.1699 95.3125 -26.123 92.7246 -26.123 Z M 92.7246 -7.86133 L 54.2969 -7.86133 C 51.6113 -7.86133 49.707 -5.85938 49.707 -3.27148 C 49.707 -0.78125 51.6113 1.17188 54.2969 1.17188 L 92.7246 1.17188 C 95.3125 1.17188 97.2656 -0.78125 97.2656 -3.27148 C 97.2656 -5.85938 95.3125 -7.86133 92.7246 -7.86133 Z"/>
  </g>
  <g id="Heavy-L" transform="matrix(1 0 0 1 2564.18 1556)">
   <path d="M 38.7207 34.4727 L 106.348 34.4727 C 120.898 34.4727 128.955 26.3672 128.955 11.7188 L 128.955 -45.3613 C 128.955 -55.5664 127.393 -60.6934 120.898 -67.2363 L 91.6016 -96.8262 C 85.2051 -103.271 79.8828 -104.932 70.1172 -104.932 L 38.7207 -104.932 C 24.1699 -104.932 16.0645 -96.7773 16.0645 -82.1777 L 16.0645 11.7188 C 16.0645 26.3672 24.1211 34.4727 38.7207 34.4727 Z M 40.9668 16.9922 C 35.8887 16.9922 33.5938 14.4531 33.5938 9.61914 L 33.5938 -80.0293 C 33.5938 -84.8633 35.8887 -87.4023 41.0156 -87.4023 L 65.0879 -87.4023 L 65.0879 -57.7148 C 65.0879 -46.1426 70.5078 -40.7227 82.0801 -40.7227 L 111.475 -40.7227 L 111.475 9.61914 C 111.475 14.4531 109.18 16.9922 104.053 16.9922 Z M 83.3008 -54.834 C 80.5176 -54.834 79.1504 -56.1523 79.1504 -58.9844 L 79.1504 -86.2793 L 110.303 -54.834 Z M 92.6758 -26.1719 L 51.7578 -26.1719 C 49.2676 -26.1719 47.4121 -24.3164 47.4121 -21.9727 C 47.4121 -19.5801 49.2676 -17.6758 51.7578 -17.6758 L 92.6758 -17.6758 C 95.0684 -17.6758 96.9238 -19.5801 96.9238 -21.9727 C 96.9238 -24.3164 95.0684 -26.1719 92.6758 -26.1719 Z M 92.6758 -6.98242 L 51.7578 -6.98242 C 49.2676 -6.98242 47.4121 -5.12695 47.4121 -2.68555 C 47.4121 -0.341797 49.2676 1.46484 51.7578 1.46484 L 92.6758 1.46484 C 95.0684 1.46484 96.9238 -0.341797 96.9238 -2.68555 C 96.9238 -5.12695 95.0684 -6.98242 92.6758 -6.98242 Z"/>
  </g>
  <g id="Bold-L" transform="matrix(1 0 0 1 2268.86 1556)">
   <path d="M 37.4023 33.6426 L 104.883 33.6426 C 118.701 33.6426 126.172 26.123 126.172 12.207 L 126.172 -45.3613 C 126.172 -54.541 124.854 -59.0332 119.043 -64.8926 L 87.3535 -96.9238 C 81.6895 -102.637 76.9531 -104.053 68.3594 -104.053 L 37.4023 -104.053 C 23.584 -104.053 16.0645 -96.5332 16.0645 -82.6172 L 16.0645 12.207 C 16.0645 26.123 23.5352 33.6426 37.4023 33.6426 Z M 39.0137 19.1895 C 33.252 19.1895 30.5176 16.2598 30.5176 10.7422 L 30.5176 -81.1523 C 30.5176 -86.6211 33.252 -89.6484 39.0625 -89.6484 L 64.7949 -89.6484 L 64.7949 -57.2754 C 64.7949 -47.1191 69.6777 -42.334 79.7363 -42.334 L 111.719 -42.334 L 111.719 10.7422 C 111.719 16.2598 108.984 19.1895 103.223 19.1895 Z M 80.8594 -54.3945 C 78.0762 -54.3945 76.8066 -55.6152 76.8066 -58.3984 L 76.8066 -88.2812 L 110.4 -54.3945 Z M 92.5781 -26.2207 L 48.9258 -26.2207 C 46.582 -26.2207 44.873 -24.5117 44.873 -22.3145 C 44.873 -20.0684 46.582 -18.3105 48.9258 -18.3105 L 92.5781 -18.3105 C 94.8242 -18.3105 96.5332 -20.0684 96.5332 -22.3145 C 96.5332 -24.5117 94.8242 -26.2207 92.5781 -26.2207 Z M 92.5781 -6.05469 L 48.9258 -6.05469 C 46.582 -6.05469 44.873 -4.29688 44.873 -2.05078 C 44.873 0.146484 46.582 1.80664 48.9258 1.80664 L 92.5781 1.80664 C 94.8242 1.80664 96.5332 0.146484 96.5332 -2.05078 C 96.5332 -4.29688 94.8242 -6.05469 92.5781 -6.05469 Z"/>
  </g>
  <g id="Semibold-L" transform="matrix(1 0 0 1 1973.1 1556)">
   <path d="M 36.4746 33.0566 L 103.857 33.0566 C 117.188 33.0566 124.268 25.9277 124.268 12.5 L 124.268 -45.3613 C 124.268 -53.8574 123.096 -57.8613 117.725 -63.2812 L 84.4238 -96.9727 C 79.248 -102.246 74.9512 -103.516 67.1387 -103.516 L 36.4746 -103.516 C 23.1445 -103.516 16.0645 -96.3867 16.0645 -82.9102 L 16.0645 12.5 C 16.0645 25.9766 23.0957 33.0566 36.4746 33.0566 Z M 37.6465 20.752 C 31.4453 20.752 28.418 17.5293 28.418 11.5234 L 28.418 -81.9336 C 28.418 -87.8418 31.4453 -91.1621 37.6953 -91.1621 L 64.5996 -91.1621 L 64.5996 -56.9824 C 64.5996 -47.8027 69.0918 -43.4082 78.125 -43.4082 L 111.914 -43.4082 L 111.914 11.5234 C 111.914 17.5293 108.838 20.752 102.637 20.752 Z M 79.1992 -54.0527 C 76.416 -54.0527 75.2441 -55.2734 75.2441 -58.0566 L 75.2441 -89.6973 L 110.449 -54.0527 Z M 92.4805 -26.2695 L 46.9727 -26.2695 C 44.7266 -26.2695 43.1152 -24.6582 43.1152 -22.5586 C 43.1152 -20.459 44.7266 -18.7988 46.9727 -18.7988 L 92.4805 -18.7988 C 94.6289 -18.7988 96.2402 -20.459 96.2402 -22.5586 C 96.2402 -24.6582 94.6289 -26.2695 92.4805 -26.2695 Z M 92.4805 -5.41992 L 46.9727 -5.41992 C 44.7266 -5.41992 43.1152 -3.75977 43.1152 -1.61133 C 43.1152 0.439453 44.7266 2.05078 46.9727 2.05078 L 92.4805 2.05078 C 94.6289 2.05078 96.2402 0.439453 96.2402 -1.61133 C 96.2402 -3.75977 94.6289 -5.41992 92.4805 -5.41992 Z"/>
  </g>
  <g id="Medium-L" transform="matrix(1 0 0 1 1677.12 1556)">
   <path d="M 35.791 32.666 L 103.076 32.666 C 116.064 32.666 122.803 25.8301 122.803 12.7441 L 122.803 -45.3613 C 122.803 -53.3203 121.729 -56.9824 116.748 -62.0117 L 82.2266 -97.0215 C 77.4414 -101.904 73.4375 -103.076 66.2109 -103.076 L 35.791 -103.076 C 22.8516 -103.076 16.0645 -96.2402 16.0645 -83.1543 L 16.0645 12.7441 C 16.0645 25.8789 22.8027 32.666 35.791 32.666 Z M 36.6211 21.9238 C 30.127 21.9238 26.8066 18.457 26.8066 12.1094 L 26.8066 -82.5684 C 26.8066 -88.7695 30.127 -92.334 36.6699 -92.334 L 64.4531 -92.334 L 64.4531 -56.7383 C 64.4531 -48.291 68.6035 -44.2871 76.9043 -44.2871 L 112.061 -44.2871 L 112.061 12.1094 C 112.061 18.457 108.74 21.9238 102.197 21.9238 Z M 77.9297 -53.8086 C 75.1465 -53.8086 74.0234 -54.9805 74.0234 -57.7637 L 74.0234 -90.7227 L 110.449 -53.8086 Z M 92.4316 -26.2695 L 45.459 -26.2695 C 43.3594 -26.2695 41.7969 -24.7559 41.7969 -22.7539 C 41.7969 -20.7031 43.3594 -19.1406 45.459 -19.1406 L 92.4316 -19.1406 C 94.5312 -19.1406 96.0449 -20.7031 96.0449 -22.7539 C 96.0449 -24.7559 94.5312 -26.2695 92.4316 -26.2695 Z M 92.4316 -4.93164 L 45.459 -4.93164 C 43.3594 -4.93164 41.7969 -3.32031 41.7969 -1.26953 C 41.7969 0.732422 43.3594 2.24609 45.459 2.24609 L 92.4316 2.24609 C 94.5312 2.24609 96.0449 0.732422 96.0449 -1.26953 C 96.0449 -3.32031 94.5312 -4.93164 92.4316 -4.93164 Z"/>
  </g>
  <g id="Regular-L" transform="matrix(1 0 0 1 1381.36 1556)">
   <path d="M 34.8633 32.0801 L 102.1 32.0801 C 114.6 32.0801 120.898 25.6348 120.898 13.0859 L 120.898 -45.3613 C 120.898 -52.6367 120.02 -55.8105 115.479 -60.4004 L 79.2969 -97.0703 C 75 -101.514 71.4844 -102.49 64.9902 -102.49 L 34.8633 -102.49 C 22.4609 -102.49 16.0645 -96.0938 16.0645 -83.4961 L 16.0645 13.0859 C 16.0645 25.6836 22.3633 32.0801 34.8633 32.0801 Z M 35.3027 23.4375 C 28.3203 23.4375 24.707 19.7266 24.707 12.8906 L 24.707 -83.3008 C 24.707 -89.9902 28.3203 -93.8477 35.3516 -93.8477 L 64.2578 -93.8477 L 64.2578 -56.4453 C 64.2578 -48.9746 68.0176 -45.3613 75.3418 -45.3613 L 112.256 -45.3613 L 112.256 12.8906 C 112.256 19.7266 108.643 23.4375 101.611 23.4375 Z M 76.2695 -53.5156 C 73.5352 -53.5156 72.4121 -54.5898 72.4121 -57.373 L 72.4121 -92.1387 L 110.547 -53.5156 Z M 92.3828 -26.3184 L 43.5547 -26.3184 C 41.5527 -26.3184 40.0879 -24.8535 40.0879 -22.998 C 40.0879 -21.0938 41.5527 -19.5801 43.5547 -19.5801 L 92.3828 -19.5801 C 94.3359 -19.5801 95.8008 -21.0938 95.8008 -22.998 C 95.8008 -24.8535 94.3359 -26.3184 92.3828 -26.3184 Z M 92.3828 -4.29688 L 43.5547 -4.29688 C 41.5527 -4.29688 40.0879 -2.7832 40.0879 -0.830078 C 40.0879 1.02539 41.5527 2.49023 43.5547 2.49023 L 92.3828 2.49023 C 94.3359 2.49023 95.8008 1.02539 95.8008 -0.830078 C 95.8008 -2.7832 94.3359 -4.29688 92.3828 -4.29688 Z"/>
  </g>
  <g id="Light-L" transform="matrix(1 0 0 1 1085.43 1556)">
   <path d="M 33.9355 31.7871 L 101.514 31.7871 C 113.281 31.7871 119.336 25.6348 119.336 13.7695 L 119.336 -46.2891 C 119.336 -52.4414 118.506 -55.1758 114.697 -59.0332 L 76.5625 -97.4609 C 72.9004 -101.172 69.9219 -102.1 64.3066 -102.1 L 33.9355 -102.1 C 22.2168 -102.1 16.0645 -95.9961 16.0645 -84.1309 L 16.0645 13.7695 C 16.0645 25.6836 22.1191 31.7871 33.9355 31.7871 Z M 34.2285 25.1465 C 26.6113 25.1465 22.7051 21.1426 22.7051 13.623 L 22.7051 -83.9844 C 22.7051 -91.2598 26.6113 -95.5078 34.2773 -95.5078 L 64.4531 -95.5078 L 64.4531 -56.8848 C 64.4531 -50.0488 67.9199 -46.9238 74.4629 -46.9238 L 112.744 -46.9238 L 112.744 13.623 C 112.744 21.1426 108.789 25.1465 101.172 25.1465 Z M 75.0977 -53.2227 C 72.0215 -53.2227 70.752 -54.4434 70.752 -57.5684 L 70.752 -94.0918 L 111.328 -53.2227 Z M 92.627 -25.6836 L 42.334 -25.6836 C 40.6738 -25.6836 39.502 -24.5117 39.502 -22.998 C 39.502 -21.4844 40.6738 -20.2637 42.334 -20.2637 L 92.627 -20.2637 C 94.1895 -20.2637 95.4102 -21.4844 95.4102 -22.998 C 95.4102 -24.5117 94.1895 -25.6836 92.627 -25.6836 Z M 92.627 -3.51562 L 42.334 -3.51562 C 40.6738 -3.51562 39.502 -2.29492 39.502 -0.78125 C 39.502 0.732422 40.6738 1.9043 42.334 1.9043 L 92.627 1.9043 C 94.1895 1.9043 95.4102 0.732422 95.4102 -0.78125 C 95.4102 -2.29492 94.1895 -3.51562 92.627 -3.51562 Z"/>
  </g>
  <g id="Thin-L" transform="matrix(1 0 0 1 789.747 1556)">
   <path d="M 32.666 31.3477 L 100.732 31.3477 C 111.572 31.3477 117.285 25.6348 117.285 14.7461 L 117.285 -47.5098 C 117.285 -52.1484 116.455 -54.2969 113.672 -57.1777 L 72.9004 -97.9492 C 70.1172 -100.781 67.9199 -101.611 63.3789 -101.611 L 32.666 -101.611 C 21.9238 -101.611 16.0645 -95.8496 16.0645 -84.9609 L 16.0645 14.7461 C 16.0645 25.6348 21.7773 31.3477 32.666 31.3477 Z M 32.8613 27.4414 C 24.3652 27.4414 19.9707 22.998 19.9707 14.5996 L 19.9707 -84.8145 C 19.9707 -92.9688 24.3652 -97.6562 32.8613 -97.6562 L 64.7461 -97.6562 L 64.7461 -57.5195 C 64.7461 -51.5137 67.7246 -48.9746 73.291 -48.9746 L 113.379 -48.9746 L 113.379 14.5996 C 113.379 22.998 108.984 27.4414 100.537 27.4414 Z M 73.584 -52.832 C 69.9707 -52.832 68.6035 -54.248 68.6035 -57.8125 L 68.6035 -96.6797 L 112.354 -52.832 Z M 92.9199 -24.8535 L 40.7227 -24.8535 C 39.5996 -24.8535 38.7695 -24.0723 38.7695 -23.0469 C 38.7695 -22.0215 39.5996 -21.1914 40.7227 -21.1914 L 92.9199 -21.1914 C 94.043 -21.1914 94.873 -22.0215 94.873 -23.0469 C 94.873 -24.0723 94.043 -24.8535 92.9199 -24.8535 Z M 92.9199 -2.53906 L 40.7227 -2.53906 C 39.5996 -2.53906 38.7695 -1.70898 38.7695 -0.732422 C 38.7695 0.292969 39.5996 1.12305 40.7227 1.12305 L 92.9199 1.12305 C 94.043 1.12305 94.873 0.292969 94.873 -0.732422 C 94.873 -1.70898 94.043 -2.53906 92.9199 -2.53906 Z"/>
  </g>
  <g id="Ultralight-L" transform="matrix(1 0 0 1 493.549 1556)">
   <path d="M 31.9824 31.1523 L 100.293 31.1523 C 110.693 31.1523 116.26 25.5859 116.26 15.2344 L 116.26 -48.0957 C 116.26 -52.002 115.43 -53.8574 113.135 -56.2012 L 71.0449 -98.1934 C 68.7012 -100.537 66.8945 -101.318 62.8906 -101.318 L 31.9824 -101.318 C 21.7773 -101.318 16.0645 -95.8008 16.0645 -85.4004 L 16.0645 15.2344 C 16.0645 25.5859 21.6309 31.1523 31.9824 31.1523 Z M 32.1289 28.5645 C 23.2422 28.5645 18.6035 23.9746 18.6035 15.0879 L 18.6035 -85.2539 C 18.6035 -93.8477 23.2422 -98.7793 32.1289 -98.7793 L 64.8438 -98.7793 L 64.8438 -57.8613 C 64.8438 -52.2949 67.6758 -50 72.7051 -50 L 113.672 -50 L 113.672 15.0879 C 113.672 23.9746 109.082 28.5645 100.195 28.5645 Z M 72.8027 -52.6367 C 68.9453 -52.6367 67.4805 -54.1016 67.4805 -57.9102 L 67.4805 -97.998 L 112.891 -52.6367 Z M 93.1152 -24.4629 L 39.8926 -24.4629 C 39.0137 -24.4629 38.3789 -23.8281 38.3789 -23.0469 C 38.3789 -22.3145 39.0137 -21.6797 39.8926 -21.6797 L 93.1152 -21.6797 C 93.9453 -21.6797 94.5801 -22.3145 94.5801 -23.0469 C 94.5801 -23.8281 93.9453 -24.4629 93.1152 -24.4629 Z M 93.1152 -2.05078 L 39.8926 -2.05078 C 39.0137 -2.05078 38.3789 -1.41602 38.3789 -0.683594 C 38.3789 0.0976562 39.0137 0.732422 39.8926 0.732422 L 93.1152 0.732422 C 93.9453 0.732422 94.5801 0.0976562 94.5801 -0.683594 C 94.5801 -1.41602 93.9453 -2.05078 93.1152 -2.05078 Z"/>
  </g>
  <g id="Black-M" transform="matrix(1 0 0 1 2874.98 1126)">
   <path d="M 31.9824 20.2148 L 84.8633 20.2148 C 97.1191 20.2148 104.395 12.9395 104.395 0.683594 L 104.395 -43.6035 C 104.395 -52.7832 102.734 -57.8125 96.7773 -63.7695 L 77.5879 -83.0078 C 71.582 -88.9648 66.6016 -90.625 57.3242 -90.625 L 31.9824 -90.625 C 19.7266 -90.625 12.4512 -83.3496 12.4512 -71.0938 L 12.4512 0.683594 C 12.4512 12.9395 19.7266 20.2148 31.9824 20.2148 Z M 34.9121 1.9043 C 31.8359 1.9043 30.7617 0.585938 30.7617 -2.24609 L 30.7617 -68.1641 C 30.7617 -70.9961 31.8359 -72.3145 34.9121 -72.3145 L 51.0742 -72.3145 L 51.0742 -53.7598 C 51.0742 -42.4316 56.2012 -37.3047 67.5293 -37.3047 L 86.1328 -37.3047 L 86.1328 -2.24609 C 86.1328 0.585938 85.0098 1.9043 81.9336 1.9043 Z M 68.5547 -51.123 C 66.1621 -51.123 64.8926 -52.3926 64.8926 -54.7852 L 64.8926 -71.9727 L 85.791 -51.123 Z M 72.1191 -27.7344 L 44.8242 -27.7344 C 42.7734 -27.7344 41.3086 -26.2695 41.3086 -24.3164 C 41.3086 -22.3145 42.7734 -20.752 44.8242 -20.752 L 72.1191 -20.752 C 74.1211 -20.752 75.5859 -22.3145 75.5859 -24.3164 C 75.5859 -26.2695 74.1211 -27.7344 72.1191 -27.7344 Z M 72.1191 -14.7461 L 44.8242 -14.7461 C 42.7734 -14.7461 41.3086 -13.1836 41.3086 -11.1816 C 41.3086 -9.27734 42.7734 -7.76367 44.8242 -7.76367 L 72.1191 -7.76367 C 74.1211 -7.76367 75.5859 -9.27734 75.5859 -11.1816 C 75.5859 -13.1836 74.1211 -14.7461 72.1191 -14.7461 Z"/>
  </g>
  <g id="Heavy-M" transform="matrix(1 0 0 1 2579.41 1126)">
   <path d="M 30.957 19.4824 L 83.5938 19.4824 C 95.3125 19.4824 102.1 12.6953 102.1 0.927734 L 102.1 -43.3594 C 102.1 -51.8555 100.635 -56.3477 95.166 -61.8652 L 74.1211 -83.0078 C 68.7012 -88.4277 64.1602 -89.8926 55.8105 -89.8926 L 30.957 -89.8926 C 19.1895 -89.8926 12.4512 -83.1055 12.4512 -71.3379 L 12.4512 0.927734 C 12.4512 12.7441 19.1895 19.4824 30.957 19.4824 Z M 33.252 3.66211 C 29.7363 3.66211 28.2715 2.00195 28.2715 -1.31836 L 28.2715 -69.0918 C 28.2715 -72.3633 29.7363 -74.0723 33.3008 -74.0723 L 50.7324 -74.0723 L 50.7324 -53.2227 C 50.7324 -43.1152 55.4199 -38.4277 65.4785 -38.4277 L 86.2793 -38.4277 L 86.2793 -1.31836 C 86.2793 2.00195 84.8145 3.66211 81.25 3.66211 Z M 66.4551 -50.7324 C 64.209 -50.7324 63.0371 -51.9043 63.0371 -54.1992 L 63.0371 -73.4375 L 85.6445 -50.7324 Z M 71.9727 -27.9785 L 42.3828 -27.9785 C 40.3809 -27.9785 38.9648 -26.5137 38.9648 -24.6582 C 38.9648 -22.7051 40.3809 -21.2402 42.3828 -21.2402 L 71.9727 -21.2402 C 73.877 -21.2402 75.3418 -22.7051 75.3418 -24.6582 C 75.3418 -26.5137 73.877 -27.9785 71.9727 -27.9785 Z M 71.9727 -14.0137 L 42.3828 -14.0137 C 40.3809 -14.0137 38.9648 -12.5 38.9648 -10.5957 C 38.9648 -8.74023 40.3809 -7.27539 42.3828 -7.27539 L 71.9727 -7.27539 C 73.877 -7.27539 75.3418 -8.74023 75.3418 -10.5957 C 75.3418 -12.5 73.877 -14.0137 71.9727 -14.0137 Z"/>
  </g>
  <g id="Bold-M" transform="matrix(1 0 0 1 2284 1126)">
   <path d="M 29.7852 18.6523 L 82.1777 18.6523 C 93.3105 18.6523 99.5117 12.4512 99.5117 1.2207 L 99.5117 -43.0664 C 99.5117 -50.8301 98.291 -54.6875 93.3594 -59.668 L 70.3125 -83.0078 C 65.4785 -87.8418 61.4258 -89.1113 54.0527 -89.1113 L 29.7852 -89.1113 C 18.6035 -89.1113 12.4512 -82.8613 12.4512 -71.6797 L 12.4512 1.2207 C 12.4512 12.5 18.6035 18.6523 29.7852 18.6523 Z M 31.4453 5.56641 C 27.3926 5.56641 25.5371 3.56445 25.5371 -0.292969 L 25.5371 -70.1172 C 25.5371 -73.9746 27.3926 -76.0254 31.4453 -76.0254 L 50.3906 -76.0254 L 50.3906 -52.5879 C 50.3906 -43.8477 54.4922 -39.7461 63.2324 -39.7461 L 86.4258 -39.7461 L 86.4258 -0.292969 C 86.4258 3.56445 84.5703 5.56641 80.4688 5.56641 Z M 64.1602 -50.3418 C 62.0117 -50.3418 60.9863 -51.3672 60.9863 -53.5156 L 60.9863 -75.0977 L 85.498 -50.3418 Z M 71.7773 -28.2227 L 39.6484 -28.2227 C 37.7441 -28.2227 36.3281 -26.8066 36.3281 -25.0488 C 36.3281 -23.1934 37.7441 -21.7285 39.6484 -21.7285 L 71.7773 -21.7285 C 73.6328 -21.7285 75.0488 -23.1934 75.0488 -25.0488 C 75.0488 -26.8066 73.6328 -28.2227 71.7773 -28.2227 Z M 71.7773 -13.1836 L 39.6484 -13.1836 C 37.7441 -13.1836 36.3281 -11.7676 36.3281 -9.91211 C 36.3281 -8.10547 37.7441 -6.68945 39.6484 -6.68945 L 71.7773 -6.68945 C 73.6328 -6.68945 75.0488 -8.10547 75.0488 -9.91211 C 75.0488 -11.7676 73.6328 -13.1836 71.7773 -13.1836 Z"/>
  </g>
  <g id="Semibold-M" transform="matrix(1 0 0 1 1988.19 1126)">
   <path d="M 29.0039 18.1152 L 81.1523 18.1152 C 91.9434 18.1152 97.7051 12.2559 97.7051 1.41602 L 97.7051 -42.8711 C 97.7051 -50.0977 96.6797 -53.5645 92.1387 -58.1543 L 67.6758 -82.959 C 63.2324 -87.4512 59.5215 -88.5254 52.8809 -88.5254 L 29.0039 -88.5254 C 18.2129 -88.5254 12.4512 -82.7148 12.4512 -71.875 L 12.4512 1.41602 C 12.4512 12.3047 18.2129 18.1152 29.0039 18.1152 Z M 30.1758 6.93359 C 25.7324 6.93359 23.6328 4.63867 23.6328 0.439453 L 23.6328 -70.8496 C 23.6328 -75.0488 25.7324 -77.3438 30.1758 -77.3438 L 50.1465 -77.3438 L 50.1465 -52.1484 C 50.1465 -44.3359 53.9062 -40.625 61.6211 -40.625 L 86.5234 -40.625 L 86.5234 0.439453 C 86.5234 4.63867 84.375 6.93359 79.9805 6.93359 Z M 62.5488 -50.0488 C 60.498 -50.0488 59.5703 -50.9766 59.5703 -53.0762 L 59.5703 -76.2207 L 85.4004 -50.0488 Z M 71.6797 -28.3691 L 37.7441 -28.3691 C 35.8887 -28.3691 34.5215 -27.0508 34.5215 -25.293 C 34.5215 -23.4863 35.8887 -22.0703 37.7441 -22.0703 L 71.6797 -22.0703 C 73.4863 -22.0703 74.8535 -23.4863 74.8535 -25.293 C 74.8535 -27.0508 73.4863 -28.3691 71.6797 -28.3691 Z M 71.6797 -12.6465 L 37.7441 -12.6465 C 35.8887 -12.6465 34.5215 -11.2305 34.5215 -9.42383 C 34.5215 -7.66602 35.8887 -6.34766 37.7441 -6.34766 L 71.6797 -6.34766 C 73.4863 -6.34766 74.8535 -7.66602 74.8535 -9.42383 C 74.8535 -11.2305 73.4863 -12.6465 71.6797 -12.6465 Z"/>
  </g>
  <g id="Medium-M" transform="matrix(1 0 0 1 1692.16 1126)">
   <path d="M 28.3691 17.6758 L 80.4199 17.6758 C 90.918 17.6758 96.3379 12.1582 96.3379 1.61133 L 96.3379 -42.7246 C 96.3379 -49.5605 95.459 -52.6855 91.2109 -57.0312 L 65.6738 -82.959 C 61.5234 -87.1582 58.1055 -88.1348 51.9531 -88.1348 L 28.3691 -88.1348 C 17.9199 -88.1348 12.4512 -82.6172 12.4512 -72.0215 L 12.4512 1.61133 C 12.4512 12.1582 17.9199 17.6758 28.3691 17.6758 Z M 29.1992 7.91016 C 24.5117 7.91016 22.168 5.46875 22.168 0.976562 L 22.168 -71.4355 C 22.168 -75.8789 24.5117 -78.3691 29.248 -78.3691 L 49.9512 -78.3691 L 49.9512 -51.8066 C 49.9512 -44.7266 53.418 -41.3086 60.4492 -41.3086 L 86.6211 -41.3086 L 86.6211 0.976562 C 86.6211 5.46875 84.2773 7.91016 79.541 7.91016 Z M 61.377 -49.8535 C 59.3262 -49.8535 58.4473 -50.7324 58.4473 -52.7344 L 58.4473 -77.0996 L 85.3027 -49.8535 Z M 71.582 -28.5156 L 36.3281 -28.5156 C 34.4727 -28.5156 33.1543 -27.1973 33.1543 -25.4883 C 33.1543 -23.7305 34.4727 -22.3633 36.3281 -22.3633 L 71.582 -22.3633 C 73.3398 -22.3633 74.6582 -23.7305 74.6582 -25.4883 C 74.6582 -27.1973 73.3398 -28.5156 71.582 -28.5156 Z M 71.582 -12.207 L 36.3281 -12.207 C 34.4727 -12.207 33.1543 -10.8398 33.1543 -9.08203 C 33.1543 -7.37305 34.4727 -6.05469 36.3281 -6.05469 L 71.582 -6.05469 C 73.3398 -6.05469 74.6582 -7.37305 74.6582 -9.08203 C 74.6582 -10.8398 73.3398 -12.207 71.582 -12.207 Z"/>
  </g>
  <g id="Regular-M" transform="matrix(1 0 0 1 1396.33 1126)">
   <path d="M 27.5879 17.0898 L 79.4434 17.0898 C 89.5508 17.0898 94.5801 11.9629 94.5801 1.80664 L 94.5801 -42.5293 C 94.5801 -48.8281 93.8477 -51.5625 89.9414 -55.5664 L 63.0371 -82.959 C 59.3262 -86.7676 56.25 -87.5977 50.7812 -87.5977 L 27.5879 -87.5977 C 17.5293 -87.5977 12.4512 -82.4219 12.4512 -72.2656 L 12.4512 1.80664 C 12.4512 12.0117 17.4805 17.0898 27.5879 17.0898 Z M 27.9297 9.22852 C 22.9004 9.22852 20.3125 6.54297 20.3125 1.66016 L 20.3125 -72.1191 C 20.3125 -76.9531 22.9004 -79.7363 27.9785 -79.7363 L 49.707 -79.7363 L 49.707 -51.3672 C 49.707 -45.2148 52.7832 -42.1875 58.8867 -42.1875 L 86.7188 -42.1875 L 86.7188 1.66016 C 86.7188 6.54297 84.1309 9.22852 79.0527 9.22852 Z M 59.7656 -49.5605 C 57.8125 -49.5605 57.0801 -50.3418 57.0801 -52.2949 L 57.0801 -78.2227 L 85.2051 -49.5605 Z M 71.4844 -28.7109 L 34.4238 -28.7109 C 32.666 -28.7109 31.3477 -27.3926 31.3477 -25.7324 C 31.3477 -24.0234 32.666 -22.7051 34.4238 -22.7051 L 71.4844 -22.7051 C 73.1934 -22.7051 74.4629 -24.0234 74.4629 -25.7324 C 74.4629 -27.3926 73.1934 -28.7109 71.4844 -28.7109 Z M 71.4844 -11.6699 L 34.4238 -11.6699 C 32.666 -11.6699 31.3477 -10.3027 31.3477 -8.59375 C 31.3477 -6.93359 32.666 -5.66406 34.4238 -5.66406 L 71.4844 -5.66406 C 73.1934 -5.66406 74.4629 -6.93359 74.4629 -8.59375 C 74.4629 -10.3027 73.1934 -11.6699 71.4844 -11.6699 Z"/>
  </g>
  <g id="Light-M" transform="matrix(1 0 0 1 1100.33 1126)">
   <path d="M 26.709 16.8457 L 78.9062 16.8457 C 88.3789 16.8457 93.1641 11.9629 93.1641 2.44141 L 93.1641 -43.3594 C 93.1641 -48.6328 92.4805 -50.9766 89.2578 -54.2969 L 60.5469 -83.3008 C 57.4219 -86.4746 54.8828 -87.207 50.1465 -87.207 L 26.709 -87.207 C 17.334 -87.207 12.4512 -82.373 12.4512 -72.8516 L 12.4512 2.44141 C 12.4512 11.9629 17.2852 16.8457 26.709 16.8457 Z M 27.002 10.791 C 21.3867 10.791 18.5059 7.8125 18.5059 2.29492 L 18.5059 -72.7051 C 18.5059 -78.0762 21.3867 -81.2012 27.0508 -81.2012 L 49.8535 -81.2012 L 49.8535 -51.8066 C 49.8535 -46.2402 52.6855 -43.6035 58.1055 -43.6035 L 87.1582 -43.6035 L 87.1582 2.29492 C 87.1582 7.8125 84.2285 10.791 78.6133 10.791 Z M 58.7402 -49.3164 C 56.4941 -49.3164 55.5664 -50.1953 55.5664 -52.4414 L 55.5664 -79.9805 L 85.9375 -49.3164 Z M 71.6797 -28.125 L 33.3496 -28.125 C 31.9336 -28.125 30.8594 -27.0996 30.8594 -25.7324 C 30.8594 -24.4141 31.9336 -23.3398 33.3496 -23.3398 L 71.6797 -23.3398 C 73.0469 -23.3398 74.1211 -24.4141 74.1211 -25.7324 C 74.1211 -27.0996 73.0469 -28.125 71.6797 -28.125 Z M 71.6797 -10.9863 L 33.3496 -10.9863 C 31.9336 -10.9863 30.8594 -9.91211 30.8594 -8.54492 C 30.8594 -7.22656 31.9336 -6.20117 33.3496 -6.20117 L 71.6797 -6.20117 C 73.0469 -6.20117 74.1211 -7.22656 74.1211 -8.54492 C 74.1211 -9.91211 73.0469 -10.9863 71.6797 -10.9863 Z"/>
  </g>
  <g id="Thin-M" transform="matrix(1 0 0 1 804.518 1126)">
   <path d="M 25.5859 16.4551 L 78.2227 16.4551 C 86.8164 16.4551 91.3574 11.9141 91.3574 3.27148 L 91.3574 -44.4824 C 91.3574 -48.3887 90.7227 -50.1953 88.3301 -52.6367 L 57.3242 -83.7402 C 54.9316 -86.084 53.0762 -86.7676 49.3164 -86.7676 L 25.5859 -86.7676 C 17.041 -86.7676 12.4512 -82.2266 12.4512 -73.584 L 12.4512 3.27148 C 12.4512 11.9629 16.9434 16.4551 25.5859 16.4551 Z M 25.7324 12.8418 C 19.3848 12.8418 16.0645 9.52148 16.0645 3.17383 L 16.0645 -73.4863 C 16.0645 -79.5898 19.3848 -83.1543 25.7812 -83.1543 L 50.0977 -83.1543 L 50.0977 -52.3926 C 50.0977 -47.5586 52.5391 -45.4102 57.0801 -45.4102 L 87.7441 -45.4102 L 87.7441 3.17383 C 87.7441 9.52148 84.4238 12.8418 78.0273 12.8418 Z M 57.373 -48.9258 C 54.6875 -48.9258 53.6133 -50 53.6133 -52.6855 L 53.6133 -82.2754 L 86.8652 -48.9258 Z M 71.9727 -27.3926 L 31.8848 -27.3926 C 30.9082 -27.3926 30.2246 -26.6602 30.2246 -25.7812 C 30.2246 -24.8535 30.9082 -24.1699 31.8848 -24.1699 L 71.9727 -24.1699 C 72.9004 -24.1699 73.6328 -24.8535 73.6328 -25.7812 C 73.6328 -26.6602 72.9004 -27.3926 71.9727 -27.3926 Z M 71.9727 -10.1074 L 31.8848 -10.1074 C 30.9082 -10.1074 30.2246 -9.375 30.2246 -8.49609 C 30.2246 -7.61719 30.9082 -6.88477 31.8848 -6.88477 L 71.9727 -6.88477 C 72.9004 -6.88477 73.6328 -7.61719 73.6328 -8.49609 C 73.6328 -9.375 72.9004 -10.1074 71.9727 -10.1074 Z"/>
  </g>
  <g id="Ultralight-M" transform="matrix(1 0 0 1 508.295 1126)">
   <path d="M 25 16.2598 L 77.8809 16.2598 C 86.0352 16.2598 90.3809 11.9141 90.3809 3.71094 L 90.3809 -45.0195 C 90.3809 -48.291 89.7949 -49.8047 87.8418 -51.7578 L 55.6152 -83.9355 C 53.6621 -85.9375 52.1484 -86.5234 48.877 -86.5234 L 25 -86.5234 C 16.9434 -86.5234 12.4512 -82.1777 12.4512 -73.9746 L 12.4512 3.71094 C 12.4512 11.9141 16.7969 16.2598 25 16.2598 Z M 25.0977 13.8672 C 18.3594 13.8672 14.8438 10.3516 14.8438 3.61328 L 14.8438 -73.877 C 14.8438 -80.3711 18.3594 -84.1309 25.0977 -84.1309 L 50.2441 -84.1309 L 50.2441 -52.6855 C 50.2441 -48.1934 52.4414 -46.3867 56.543 -46.3867 L 87.9883 -46.3867 L 87.9883 3.61328 C 87.9883 10.3516 84.5215 13.8672 77.7344 13.8672 Z M 56.6406 -48.7793 C 53.7598 -48.7793 52.6367 -49.9023 52.6367 -52.7832 L 52.6367 -83.4961 L 87.3535 -48.7793 Z M 72.1191 -27.002 L 31.1523 -27.002 C 30.4199 -27.002 29.8828 -26.4648 29.8828 -25.7812 C 29.8828 -25.0977 30.4199 -24.5605 31.1523 -24.5605 L 72.1191 -24.5605 C 72.8516 -24.5605 73.3887 -25.0977 73.3887 -25.7812 C 73.3887 -26.4648 72.8516 -27.002 72.1191 -27.002 Z M 72.1191 -9.66797 L 31.1523 -9.66797 C 30.4199 -9.66797 29.8828 -9.13086 29.8828 -8.44727 C 29.8828 -7.8125 30.4199 -7.22656 31.1523 -7.22656 L 72.1191 -7.22656 C 72.8516 -7.22656 73.3887 -7.8125 73.3887 -8.44727 C 73.3887 -9.13086 72.8516 -9.66797 72.1191 -9.66797 Z"/>
  </g>
  <g id="Black-S" transform="matrix(1 0 0 1 2887.7 696)">
   <path d="M 25 8.1543 L 66.4062 8.1543 C 75.9766 8.1543 81.6406 2.49023 81.6406 -7.08008 L 81.6406 -41.748 C 81.6406 -48.9258 80.3711 -52.832 75.7324 -57.4707 L 60.5469 -72.6562 C 55.9082 -77.2949 52.002 -78.5645 44.8242 -78.5645 L 25 -78.5645 C 15.4297 -78.5645 9.76562 -72.9004 9.76562 -63.3301 L 9.76562 -7.08008 C 9.76562 2.49023 15.4297 8.1543 25 8.1543 Z M 27.2461 -6.00586 C 24.8047 -6.00586 23.9258 -7.08008 23.9258 -9.32617 L 23.9258 -61.084 C 23.9258 -63.3301 24.8047 -64.4043 27.2461 -64.4043 L 39.9902 -64.4043 L 39.9902 -49.707 C 39.9902 -40.918 43.9941 -36.9141 52.7832 -36.9141 L 67.4805 -36.9141 L 67.4805 -9.32617 C 67.4805 -7.08008 66.6016 -6.00586 64.1602 -6.00586 Z M 53.5645 -47.6562 C 51.709 -47.6562 50.7324 -48.6328 50.7324 -50.4883 L 50.7324 -64.1113 L 67.1875 -47.6562 Z M 56.4941 -29.3945 L 34.9609 -29.3945 C 33.3496 -29.3945 32.1777 -28.2227 32.1777 -26.709 C 32.1777 -25.1465 33.3496 -23.9258 34.9609 -23.9258 L 56.4941 -23.9258 C 58.0566 -23.9258 59.2285 -25.1465 59.2285 -26.709 C 59.2285 -28.2227 58.0566 -29.3945 56.4941 -29.3945 Z M 56.4941 -19.1406 L 34.9609 -19.1406 C 33.3496 -19.1406 32.1777 -17.9199 32.1777 -16.3574 C 32.1777 -14.8438 33.3496 -13.6719 34.9609 -13.6719 L 56.4941 -13.6719 C 58.0566 -13.6719 59.2285 -14.8438 59.2285 -16.3574 C 59.2285 -17.9199 58.0566 -19.1406 56.4941 -19.1406 Z"/>
  </g>
  <g id="Heavy-S" transform="matrix(1 0 0 1 2591.79 696)">
   <path d="M 24.3164 7.61719 L 65.4785 7.61719 C 74.7559 7.61719 80.0293 2.29492 80.0293 -6.93359 L 80.0293 -41.4551 C 80.0293 -48.2422 78.9062 -51.7578 74.5605 -56.1035 L 58.2031 -72.6074 C 53.9062 -76.9043 50.293 -78.0762 43.7012 -78.0762 L 24.3164 -78.0762 C 15.0391 -78.0762 9.76562 -72.7539 9.76562 -63.4766 L 9.76562 -6.93359 C 9.76562 2.34375 15.0391 7.61719 24.3164 7.61719 Z M 26.0742 -4.83398 C 23.3887 -4.83398 22.2656 -6.15234 22.2656 -8.69141 L 22.2656 -61.7188 C 22.2656 -64.3066 23.3887 -65.5762 26.123 -65.5762 L 39.6973 -65.5762 L 39.6973 -49.2188 C 39.6973 -41.3086 43.4082 -37.6465 51.3184 -37.6465 L 67.5293 -37.6465 L 67.5293 -8.69141 C 67.5293 -6.15234 66.4062 -4.83398 63.6719 -4.83398 Z M 52.0996 -47.4121 C 50.3418 -47.4121 49.4629 -48.291 49.4629 -50 L 49.4629 -65.0391 L 66.9922 -47.4121 Z M 56.3477 -29.6387 L 33.2031 -29.6387 C 31.5918 -29.6387 30.4199 -28.4668 30.4199 -26.9531 C 30.4199 -25.3906 31.5918 -24.2188 33.2031 -24.2188 L 56.3477 -24.2188 C 57.9102 -24.2188 59.082 -25.3906 59.082 -26.9531 C 59.082 -28.4668 57.9102 -29.6387 56.3477 -29.6387 Z M 56.3477 -18.6523 L 33.2031 -18.6523 C 31.5918 -18.6523 30.4199 -17.4316 30.4199 -15.918 C 30.4199 -14.4043 31.5918 -13.2324 33.2031 -13.2324 L 56.3477 -13.2324 C 57.9102 -13.2324 59.082 -14.4043 59.082 -15.918 C 59.082 -17.4316 57.9102 -18.6523 56.3477 -18.6523 Z"/>
  </g>
  <g id="Bold-S" transform="matrix(1 0 0 1 2295.98 696)">
   <path d="M 23.5352 7.03125 L 64.4531 7.03125 C 73.3398 7.03125 78.2227 2.09961 78.2227 -6.78711 L 78.2227 -41.1621 C 78.2227 -47.4609 77.2949 -50.5859 73.291 -54.6387 L 55.5664 -72.5586 C 51.6602 -76.5137 48.3887 -77.4902 42.4805 -77.4902 L 23.5352 -77.4902 C 14.6484 -77.4902 9.76562 -72.5586 9.76562 -63.623 L 9.76562 -6.78711 C 9.76562 2.14844 14.6484 7.03125 23.5352 7.03125 Z M 24.8047 -3.56445 C 21.7773 -3.56445 20.3613 -5.07812 20.3613 -7.95898 L 20.3613 -62.4512 C 20.3613 -65.332 21.7773 -66.8945 24.8047 -66.8945 L 39.4043 -66.8945 L 39.4043 -48.6816 C 39.4043 -41.748 42.7246 -38.4766 49.6582 -38.4766 L 67.627 -38.4766 L 67.627 -7.95898 C 67.627 -5.07812 66.2109 -3.56445 63.1348 -3.56445 Z M 50.4395 -47.1191 C 48.8281 -47.1191 48.0957 -47.9004 48.0957 -49.5117 L 48.0957 -66.0645 L 66.7969 -47.1191 Z M 56.2012 -29.8828 L 31.25 -29.8828 C 29.6387 -29.8828 28.5156 -28.7598 28.5156 -27.2461 C 28.5156 -25.7324 29.6387 -24.5117 31.25 -24.5117 L 56.2012 -24.5117 C 57.7148 -24.5117 58.8867 -25.7324 58.8867 -27.2461 C 58.8867 -28.7598 57.7148 -29.8828 56.2012 -29.8828 Z M 56.2012 -18.1152 L 31.25 -18.1152 C 29.6387 -18.1152 28.5156 -16.8945 28.5156 -15.3809 C 28.5156 -13.8672 29.6387 -12.7441 31.25 -12.7441 L 56.2012 -12.7441 C 57.7148 -12.7441 58.8867 -13.8672 58.8867 -15.3809 C 58.8867 -16.8945 57.7148 -18.1152 56.2012 -18.1152 Z"/>
  </g>
  <g id="Semibold-S" transform="matrix(1 0 0 1 1999.91 696)">
   <path d="M 22.998 6.64062 L 63.7695 6.64062 C 72.4121 6.64062 76.9531 2.00195 76.9531 -6.68945 L 76.9531 -40.918 C 76.9531 -46.9238 76.1719 -49.7559 72.4121 -53.5645 L 53.7598 -72.5098 C 50.0977 -76.2207 47.0703 -77.0996 41.6016 -77.0996 L 22.998 -77.0996 C 14.3555 -77.0996 9.76562 -72.4609 9.76562 -63.7695 L 9.76562 -6.68945 C 9.76562 2.00195 14.3555 6.64062 22.998 6.64062 Z M 23.9258 -2.68555 C 20.6543 -2.68555 19.0918 -4.39453 19.0918 -7.4707 L 19.0918 -62.9883 C 19.0918 -66.0645 20.6543 -67.7734 23.9258 -67.7734 L 39.209 -67.7734 L 39.209 -48.3398 C 39.209 -42.041 42.2363 -39.0137 48.4863 -39.0137 L 67.6758 -39.0137 L 67.6758 -7.4707 C 67.6758 -4.39453 66.0645 -2.68555 62.793 -2.68555 Z M 49.3164 -46.9238 C 47.8027 -46.9238 47.1191 -47.6074 47.1191 -49.1211 L 47.1191 -66.7969 L 66.6504 -46.9238 Z M 56.1035 -30.0781 L 29.8828 -30.0781 C 28.3203 -30.0781 27.1484 -28.9062 27.1484 -27.4414 C 27.1484 -25.9277 28.3203 -24.707 29.8828 -24.707 L 56.1035 -24.707 C 57.6172 -24.707 58.7402 -25.9277 58.7402 -27.4414 C 58.7402 -28.9062 57.6172 -30.0781 56.1035 -30.0781 Z M 56.1035 -17.7246 L 29.8828 -17.7246 C 28.3203 -17.7246 27.1484 -16.5527 27.1484 -15.0391 C 27.1484 -13.5254 28.3203 -12.4023 29.8828 -12.4023 L 56.1035 -12.4023 C 57.6172 -12.4023 58.7402 -13.5254 58.7402 -15.0391 C 58.7402 -16.5527 57.6172 -17.7246 56.1035 -17.7246 Z"/>
  </g>
  <g id="Medium-S" transform="matrix(1 0 0 1 1703.66 696)">
   <path d="M 22.5586 6.29883 L 63.2324 6.29883 C 71.6797 6.29883 76.0254 1.9043 76.0254 -6.64062 L 76.0254 -40.7715 C 76.0254 -46.4844 75.293 -49.1211 71.7285 -52.7832 L 52.3926 -72.5098 C 48.9258 -76.0254 46.0449 -76.8066 40.918 -76.8066 L 22.5586 -76.8066 C 14.1113 -76.8066 9.76562 -72.3633 9.76562 -63.8672 L 9.76562 -6.64062 C 9.76562 1.9043 14.1113 6.29883 22.5586 6.29883 Z M 23.2422 -2.00195 C 19.8242 -2.00195 18.0664 -3.85742 18.0664 -7.12891 L 18.0664 -63.3789 C 18.0664 -66.6504 19.8242 -68.457 23.291 -68.457 L 39.0625 -68.457 L 39.0625 -48.0469 C 39.0625 -42.2852 41.8945 -39.4531 47.6562 -39.4531 L 67.6758 -39.4531 L 67.6758 -7.12891 C 67.6758 -3.85742 65.9668 -2.00195 62.5 -2.00195 Z M 48.4863 -46.7773 C 47.0215 -46.7773 46.3867 -47.4121 46.3867 -48.877 L 46.3867 -67.334 L 66.5527 -46.7773 Z M 56.0059 -30.2246 L 28.8574 -30.2246 C 27.2949 -30.2246 26.1719 -29.0527 26.1719 -27.5879 C 26.1719 -26.0742 27.2949 -24.9023 28.8574 -24.9023 L 56.0059 -24.9023 C 57.5195 -24.9023 58.6426 -26.0742 58.6426 -27.5879 C 58.6426 -29.0527 57.5195 -30.2246 56.0059 -30.2246 Z M 56.0059 -17.4316 L 28.8574 -17.4316 C 27.2949 -17.4316 26.1719 -16.2598 26.1719 -14.7461 C 26.1719 -13.2812 27.2949 -12.1582 28.8574 -12.1582 L 56.0059 -12.1582 C 57.5195 -12.1582 58.6426 -13.2812 58.6426 -14.7461 C 58.6426 -16.2598 57.5195 -17.4316 56.0059 -17.4316 Z"/>
  </g>
  <g id="Regular-S" transform="matrix(1 0 0 1 1407.56 696)">
   <path d="M 22.0215 5.9082 L 62.5 5.9082 C 70.7031 5.9082 74.8047 1.75781 74.8047 -6.54297 L 74.8047 -40.5762 C 74.8047 -45.9473 74.2188 -48.291 70.8496 -51.7578 L 50.5859 -72.4609 C 47.4121 -75.7324 44.7754 -76.416 40.0879 -76.416 L 22.0215 -76.416 C 13.8184 -76.416 9.76562 -72.2656 9.76562 -63.9648 L 9.76562 -6.54297 C 9.76562 1.80664 13.8184 5.9082 22.0215 5.9082 Z M 22.3633 -1.12305 C 18.7012 -1.12305 16.7969 -3.125 16.7969 -6.64062 L 16.7969 -63.8672 C 16.7969 -67.3828 18.7012 -69.3848 22.4121 -69.3848 L 38.8672 -69.3848 L 38.8672 -47.6562 C 38.8672 -42.5781 41.4551 -39.9902 46.5332 -39.9902 L 67.7246 -39.9902 L 67.7246 -6.64062 C 67.7246 -3.125 65.8203 -1.12305 62.1582 -1.12305 Z M 47.3633 -46.582 C 45.9961 -46.582 45.4102 -47.168 45.4102 -48.5352 L 45.4102 -68.0664 L 66.4062 -46.582 Z M 55.9082 -30.3711 L 27.5391 -30.3711 C 25.9766 -30.3711 24.8047 -29.248 24.8047 -27.7832 C 24.8047 -26.2695 25.9766 -25.0977 27.5391 -25.0977 L 55.9082 -25.0977 C 57.4219 -25.0977 58.5449 -26.2695 58.5449 -27.7832 C 58.5449 -29.248 57.4219 -30.3711 55.9082 -30.3711 Z M 55.9082 -17.0898 L 27.5391 -17.0898 C 25.9766 -17.0898 24.8047 -15.918 24.8047 -14.4043 C 24.8047 -12.9395 25.9766 -11.8164 27.5391 -11.8164 L 55.9082 -11.8164 C 57.4219 -11.8164 58.5449 -12.9395 58.5449 -14.4043 C 58.5449 -15.918 57.4219 -17.0898 55.9082 -17.0898 Z"/>
  </g>
  <g id="Light-S" transform="matrix(1 0 0 1 1111.48 696)">
   <path d="M 21.2891 5.66406 L 62.0605 5.66406 C 69.6777 5.66406 73.5352 1.75781 73.5352 -5.95703 L 73.5352 -41.3086 C 73.5352 -45.8008 72.998 -47.8027 70.2148 -50.6348 L 48.3887 -72.7539 C 45.752 -75.4883 43.5547 -76.123 39.5508 -76.123 L 21.2891 -76.123 C 13.6719 -76.123 9.76562 -72.168 9.76562 -64.4531 L 9.76562 -5.95703 C 9.76562 1.75781 13.623 5.66406 21.2891 5.66406 Z M 21.5332 0.244141 C 17.3828 0.244141 15.1855 -2.00195 15.1855 -6.05469 L 15.1855 -64.3555 C 15.1855 -68.3594 17.3828 -70.6543 21.582 -70.6543 L 39.0137 -70.6543 L 39.0137 -48.0469 C 39.0137 -43.457 41.3574 -41.2598 45.8008 -41.2598 L 68.1152 -41.2598 L 68.1152 -6.05469 C 68.1152 -2.00195 65.9668 0.244141 61.7676 0.244141 Z M 46.4355 -46.3379 C 44.7754 -46.3379 44.1406 -47.0215 44.1406 -48.6816 L 44.1406 -69.5801 L 67.041 -46.3379 Z M 56.1035 -29.8828 L 26.5625 -29.8828 C 25.293 -29.8828 24.3652 -28.9551 24.3652 -27.7832 C 24.3652 -26.6113 25.293 -25.6348 26.5625 -25.6348 L 56.1035 -25.6348 C 57.3242 -25.6348 58.2031 -26.6113 58.2031 -27.7832 C 58.2031 -28.9551 57.3242 -29.8828 56.1035 -29.8828 Z M 56.1035 -16.5039 L 26.5625 -16.5039 C 25.293 -16.5039 24.3652 -15.5762 24.3652 -14.3555 C 24.3652 -13.1836 25.293 -12.2559 26.5625 -12.2559 L 56.1035 -12.2559 C 57.3242 -12.2559 58.2031 -13.1836 58.2031 -14.3555 C 58.2031 -15.5762 57.3242 -16.5039 56.1035 -16.5039 Z"/>
  </g>
  <g id="Thin-S" transform="matrix(1 0 0 1 815.578 696)">
   <path d="M 20.2637 5.32227 L 61.4258 5.32227 C 68.3594 5.32227 71.9238 1.70898 71.9238 -5.22461 L 71.9238 -42.2363 C 71.9238 -45.6055 71.4355 -47.1191 69.3848 -49.1699 L 45.5078 -73.1445 C 43.5547 -75.1465 41.9434 -75.6836 38.8184 -75.6836 L 20.2637 -75.6836 C 13.4277 -75.6836 9.76562 -72.0703 9.76562 -65.1367 L 9.76562 -5.22461 C 9.76562 1.75781 13.3789 5.32227 20.2637 5.32227 Z M 20.4102 2.05078 C 15.5762 2.05078 13.0859 -0.488281 13.0859 -5.32227 L 13.0859 -65.0391 C 13.0859 -69.7266 15.5762 -72.4121 20.459 -72.4121 L 39.209 -72.4121 L 39.209 -48.5352 C 39.209 -44.6289 41.2109 -42.8711 44.9219 -42.8711 L 68.6035 -42.8711 L 68.6035 -5.32227 C 68.6035 -0.488281 66.1133 2.05078 61.2793 2.05078 Z M 45.2148 -46.0449 C 43.2129 -46.0449 42.3828 -46.8262 42.3828 -48.8281 L 42.3828 -71.6309 L 67.8711 -46.0449 Z M 56.3477 -29.248 L 25.293 -29.248 C 24.4141 -29.248 23.8281 -28.6133 23.8281 -27.832 C 23.8281 -27.002 24.4141 -26.3672 25.293 -26.3672 L 56.3477 -26.3672 C 57.1777 -26.3672 57.8125 -27.002 57.8125 -27.832 C 57.8125 -28.6133 57.1777 -29.248 56.3477 -29.248 Z M 56.3477 -15.7227 L 25.293 -15.7227 C 24.4141 -15.7227 23.8281 -15.0879 23.8281 -14.3066 C 23.8281 -13.5254 24.4141 -12.8906 25.293 -12.8906 L 56.3477 -12.8906 C 57.1777 -12.8906 57.8125 -13.5254 57.8125 -14.3066 C 57.8125 -15.0879 57.1777 -15.7227 56.3477 -15.7227 Z"/>
  </g>
  <g id="Ultralight-S" transform="matrix(1 0 0 1 519.281 696)">
   <path d="M 19.7266 5.17578 L 61.084 5.17578 C 67.627 5.17578 71.0938 1.70898 71.0938 -4.83398 L 71.0938 -42.7734 C 71.0938 -45.5078 70.6055 -46.7773 68.9453 -48.4375 L 44.043 -73.3398 C 42.3828 -75 41.1133 -75.4883 38.4277 -75.4883 L 19.7266 -75.4883 C 13.3301 -75.4883 9.76562 -72.0215 9.76562 -65.4785 L 9.76562 -4.83398 C 9.76562 1.70898 13.2324 5.17578 19.7266 5.17578 Z M 19.873 2.97852 C 14.6484 2.97852 11.9629 0.244141 11.9629 -4.93164 L 11.9629 -65.3809 C 11.9629 -70.4102 14.6484 -73.291 19.873 -73.291 L 39.3066 -73.291 L 39.3066 -48.8281 C 39.3066 -45.2148 41.1133 -43.7012 44.4336 -43.7012 L 68.8965 -43.7012 L 68.8965 -4.93164 C 68.8965 0.244141 66.2109 2.97852 60.9863 2.97852 Z M 44.5801 -45.8984 C 42.3828 -45.8984 41.5039 -46.7285 41.5039 -48.9746 L 41.5039 -72.7051 L 68.3105 -45.8984 Z M 56.4453 -28.9062 L 24.6094 -28.9062 C 23.9746 -28.9062 23.4863 -28.418 23.4863 -27.832 C 23.4863 -27.2461 23.9746 -26.7578 24.6094 -26.7578 L 56.4453 -26.7578 C 57.0801 -26.7578 57.5684 -27.2461 57.5684 -27.832 C 57.5684 -28.418 57.0801 -28.9062 56.4453 -28.9062 Z M 56.4453 -15.332 L 24.6094 -15.332 C 23.9746 -15.332 23.4863 -14.8438 23.4863 -14.2578 C 23.4863 -13.6719 23.9746 -13.2324 24.6094 -13.2324 L 56.4453 -13.2324 C 57.0801 -13.2324 57.5684 -13.6719 57.5684 -14.2578 C 57.5684 -14.8438 57.0801 -15.332 56.4453 -15.332 Z"/>
  </g>
 </g>
</svg>
