<?xml version="1.0" encoding="UTF-8"?>
<!--Generator: Apple Native CoreSVG 129-->
<!DOCTYPE svg
PUBLIC "-//W3C//DTD SVG 1.1//EN"
       "http://www.w3.org/Graphics/SVG/1.1/DTD/svg11.dtd">
<svg version="1.1" xmlns="http://www.w3.org/2000/svg" xmlns:xlink="http://www.w3.org/1999/xlink" width="3300" height="2200">
 <!--glyph: "uni100300.medium", point size: 100.000000, font version: "Version 16.0d9e1", template writer version: "8"-->
 <g id="Notes">
  <rect height="2200" id="artboard" style="fill:white;opacity:1" width="3300" x="0" y="0"/>
  <line id="" style="fill:none;stroke:black;opacity:1;stroke-width:0.5;" x1="263" x2="3036" y1="292" y2="292"/>
  <text style="stroke:none;fill:black;font-family:-apple-system,&quot;SF Pro Display&quot;,&quot;SF Pro Text&quot;,Helvetica,sans-serif;font-weight:bold;" transform="matrix(1 0 0 1 263 322)">Weight/Scale Variations</text>
  <text style="stroke:none;fill:black;font-family:-apple-system,&quot;SF Pro Display&quot;,&quot;SF Pro Text&quot;,Helvetica,sans-serif;text-anchor:middle;" transform="matrix(1 0 0 1 559.711 322)">Ultralight</text>
  <text style="stroke:none;fill:black;font-family:-apple-system,&quot;SF Pro Display&quot;,&quot;SF Pro Text&quot;,Helvetica,sans-serif;text-anchor:middle;" transform="matrix(1 0 0 1 856.422 322)">Thin</text>
  <text style="stroke:none;fill:black;font-family:-apple-system,&quot;SF Pro Display&quot;,&quot;SF Pro Text&quot;,Helvetica,sans-serif;text-anchor:middle;" transform="matrix(1 0 0 1 1153.13 322)">Light</text>
  <text style="stroke:none;fill:black;font-family:-apple-system,&quot;SF Pro Display&quot;,&quot;SF Pro Text&quot;,Helvetica,sans-serif;text-anchor:middle;" transform="matrix(1 0 0 1 1449.84 322)">Regular</text>
  <text style="stroke:none;fill:black;font-family:-apple-system,&quot;SF Pro Display&quot;,&quot;SF Pro Text&quot;,Helvetica,sans-serif;text-anchor:middle;" transform="matrix(1 0 0 1 1746.56 322)">Medium</text>
  <text style="stroke:none;fill:black;font-family:-apple-system,&quot;SF Pro Display&quot;,&quot;SF Pro Text&quot;,Helvetica,sans-serif;text-anchor:middle;" transform="matrix(1 0 0 1 2043.27 322)">Semibold</text>
  <text style="stroke:none;fill:black;font-family:-apple-system,&quot;SF Pro Display&quot;,&quot;SF Pro Text&quot;,Helvetica,sans-serif;text-anchor:middle;" transform="matrix(1 0 0 1 2339.98 322)">Bold</text>
  <text style="stroke:none;fill:black;font-family:-apple-system,&quot;SF Pro Display&quot;,&quot;SF Pro Text&quot;,Helvetica,sans-serif;text-anchor:middle;" transform="matrix(1 0 0 1 2636.69 322)">Heavy</text>
  <text style="stroke:none;fill:black;font-family:-apple-system,&quot;SF Pro Display&quot;,&quot;SF Pro Text&quot;,Helvetica,sans-serif;text-anchor:middle;" transform="matrix(1 0 0 1 2933.4 322)">Black</text>
  <line id="" style="fill:none;stroke:black;opacity:1;stroke-width:0.5;" x1="263" x2="3036" y1="1903" y2="1903"/>
  <g id="" transform="matrix(1 0 0 1 263 1933)">
   <path d="M 9.24805 0.830078 C 13.5547 0.830078 17.1387 -2.74414 17.1387 -7.05078 C 17.1387 -11.3574 13.5449 -14.9316 9.23828 -14.9316 C 4.94141 -14.9316 1.36719 -11.3574 1.36719 -7.05078 C 1.36719 -2.74414 4.95117 0.830078 9.24805 0.830078 Z M 9.24805 -0.654297 C 5.70312 -0.654297 2.87109 -3.49609 2.87109 -7.05078 C 2.87109 -10.6055 5.69336 -13.4473 9.23828 -13.4473 C 12.793 -13.4473 15.6348 -10.6055 15.6445 -7.05078 C 15.6543 -3.49609 12.8027 -0.654297 9.24805 -0.654297 Z M 9.22852 -3.62305 C 9.69727 -3.62305 9.9707 -3.93555 9.9707 -4.45312 L 9.9707 -6.31836 L 12.002 -6.31836 C 12.5 -6.31836 12.832 -6.57227 12.832 -7.04102 C 12.832 -7.51953 12.5195 -7.7832 12.002 -7.7832 L 9.9707 -7.7832 L 9.9707 -9.81445 C 9.9707 -10.332 9.69727 -10.6543 9.22852 -10.6543 C 8.75977 -10.6543 8.50586 -10.3125 8.50586 -9.81445 L 8.50586 -7.7832 L 6.49414 -7.7832 C 5.97656 -7.7832 5.64453 -7.51953 5.64453 -7.04102 C 5.64453 -6.57227 5.99609 -6.31836 6.49414 -6.31836 L 8.50586 -6.31836 L 8.50586 -4.45312 C 8.50586 -3.95508 8.75977 -3.62305 9.22852 -3.62305 Z"/>
  </g>
  <g id="" transform="matrix(1 0 0 1 281.506 1933)">
   <path d="M 11.709 2.91016 C 17.1582 2.91016 21.6699 -1.61133 21.6699 -7.05078 C 21.6699 -12.5 17.1484 -17.0117 11.6992 -17.0117 C 6.25977 -17.0117 1.74805 -12.5 1.74805 -7.05078 C 1.74805 -1.61133 6.26953 2.91016 11.709 2.91016 Z M 11.709 1.25 C 7.09961 1.25 3.41797 -2.44141 3.41797 -7.05078 C 3.41797 -11.6602 7.08984 -15.3516 11.6992 -15.3516 C 16.3086 -15.3516 20 -11.6602 20.0098 -7.05078 C 20.0195 -2.44141 16.3184 1.25 11.709 1.25 Z M 11.6797 -2.66602 C 12.207 -2.66602 12.5098 -3.01758 12.5098 -3.59375 L 12.5098 -6.23047 L 15.3223 -6.23047 C 15.8691 -6.23047 16.25 -6.51367 16.25 -7.03125 C 16.25 -7.55859 15.8887 -7.86133 15.3223 -7.86133 L 12.5098 -7.86133 L 12.5098 -10.6836 C 12.5098 -11.25 12.207 -11.6113 11.6797 -11.6113 C 11.1621 -11.6113 10.8789 -11.2305 10.8789 -10.6836 L 10.8789 -7.86133 L 8.07617 -7.86133 C 7.50977 -7.86133 7.13867 -7.55859 7.13867 -7.03125 C 7.13867 -6.51367 7.5293 -6.23047 8.07617 -6.23047 L 10.8789 -6.23047 L 10.8789 -3.59375 C 10.8789 -3.03711 11.1621 -2.66602 11.6797 -2.66602 Z"/>
  </g>
  <g id="" transform="matrix(1 0 0 1 304.924 1933)">
   <path d="M 14.9707 5.66406 C 21.9336 5.66406 27.6953 -0.0976562 27.6953 -7.05078 C 27.6953 -14.0137 21.9238 -19.7754 14.9609 -19.7754 C 8.00781 -19.7754 2.25586 -14.0137 2.25586 -7.05078 C 2.25586 -0.0976562 8.01758 5.66406 14.9707 5.66406 Z M 14.9707 3.84766 C 8.93555 3.84766 4.08203 -1.01562 4.08203 -7.05078 C 4.08203 -13.0957 8.92578 -17.9492 14.9609 -17.9492 C 21.0059 -17.9492 25.8594 -13.0957 25.8691 -7.05078 C 25.8789 -1.01562 21.0156 3.84766 14.9707 3.84766 Z M 14.9414 -1.38672 C 15.5176 -1.38672 15.8594 -1.77734 15.8594 -2.38281 L 15.8594 -6.13281 L 19.7754 -6.13281 C 20.3711 -6.13281 20.7812 -6.46484 20.7812 -7.02148 C 20.7812 -7.59766 20.3906 -7.93945 19.7754 -7.93945 L 15.8594 -7.93945 L 15.8594 -11.8652 C 15.8594 -12.4805 15.5176 -12.8711 14.9414 -12.8711 C 14.375 -12.8711 14.0527 -12.4609 14.0527 -11.8652 L 14.0527 -7.93945 L 10.1465 -7.93945 C 9.53125 -7.93945 9.13086 -7.59766 9.13086 -7.02148 C 9.13086 -6.46484 9.55078 -6.13281 10.1465 -6.13281 L 14.0527 -6.13281 L 14.0527 -2.38281 C 14.0527 -1.79688 14.375 -1.38672 14.9414 -1.38672 Z"/>
  </g>
  <text style="stroke:none;fill:black;font-family:-apple-system,&quot;SF Pro Display&quot;,&quot;SF Pro Text&quot;,Helvetica,sans-serif;font-weight:bold;" transform="matrix(1 0 0 1 263 1953)">Design Variations</text>
  <text style="stroke:none;fill:black;font-family:-apple-system,&quot;SF Pro Display&quot;,&quot;SF Pro Text&quot;,Helvetica,sans-serif;" transform="matrix(1 0 0 1 263 1971)">Symbols are supported in up to nine weights and three scales.</text>
  <text style="stroke:none;fill:black;font-family:-apple-system,&quot;SF Pro Display&quot;,&quot;SF Pro Text&quot;,Helvetica,sans-serif;" transform="matrix(1 0 0 1 263 1989)">For optimal layout with text and other symbols, vertically align</text>
  <text style="stroke:none;fill:black;font-family:-apple-system,&quot;SF Pro Display&quot;,&quot;SF Pro Text&quot;,Helvetica,sans-serif;" transform="matrix(1 0 0 1 263 2007)">symbols with the adjacent text.</text>
  <line id="" style="fill:none;stroke:#00AEEF;stroke-width:0.5;opacity:1.0;" x1="776" x2="776" y1="1919" y2="1933"/>
  <g id="" transform="matrix(1 0 0 1 776 1933)">
   <path d="M 3.31055 0.126953 C 3.82812 0.126953 4.08203 -0.0683594 4.26758 -0.605469 L 5.52734 -4.0625 L 11.2891 -4.0625 L 12.5488 -0.605469 C 12.7344 -0.0683594 12.9883 0.126953 13.4961 0.126953 C 14.0137 0.126953 14.3457 -0.185547 14.3457 -0.673828 C 14.3457 -0.839844 14.3164 -0.986328 14.2383 -1.20117 L 9.6582 -13.3887 C 9.43359 -13.9941 9.0332 -14.2871 8.4082 -14.2871 C 7.80273 -14.2871 7.39258 -13.9941 7.17773 -13.3984 L 2.59766 -1.19141 C 2.51953 -0.976562 2.49023 -0.830078 2.49023 -0.664062 C 2.49023 -0.175781 2.80273 0.126953 3.31055 0.126953 Z M 6.00586 -5.53711 L 8.37891 -12.1094 L 8.42773 -12.1094 L 10.8008 -5.53711 Z"/>
  </g>
  <line id="" style="fill:none;stroke:#00AEEF;stroke-width:0.5;opacity:1.0;" x1="792.836" x2="792.836" y1="1919" y2="1933"/>
  <text style="stroke:none;fill:black;font-family:-apple-system,&quot;SF Pro Display&quot;,&quot;SF Pro Text&quot;,Helvetica,sans-serif;font-weight:bold;" transform="matrix(1 0 0 1 776 1953)">Margins</text>
  <text style="stroke:none;fill:black;font-family:-apple-system,&quot;SF Pro Display&quot;,&quot;SF Pro Text&quot;,Helvetica,sans-serif;" transform="matrix(1 0 0 1 776 1971)">Leading and trailing margins on the left and right side of each symbol</text>
  <text style="stroke:none;fill:black;font-family:-apple-system,&quot;SF Pro Display&quot;,&quot;SF Pro Text&quot;,Helvetica,sans-serif;" transform="matrix(1 0 0 1 776 1989)">can be adjusted by modifying the x-location of the margin guidelines.</text>
  <text style="stroke:none;fill:black;font-family:-apple-system,&quot;SF Pro Display&quot;,&quot;SF Pro Text&quot;,Helvetica,sans-serif;" transform="matrix(1 0 0 1 776 2007)">Modifications are automatically applied proportionally to all</text>
  <text style="stroke:none;fill:black;font-family:-apple-system,&quot;SF Pro Display&quot;,&quot;SF Pro Text&quot;,Helvetica,sans-serif;" transform="matrix(1 0 0 1 776 2025)">scales and weights.</text>
  <g id="" transform="matrix(1 0 0 1 1289 1933)">
   <path d="M 2.8418 1.86523 L 4.54102 3.57422 C 5.40039 4.44336 6.38672 4.38477 7.31445 3.35938 L 17.4902 -7.85156 C 17.7539 -7.76367 18.0273 -7.7832 18.3398 -7.8418 L 19.4043 -8.03711 L 20.0684 -7.36328 L 20.0293 -6.80664 C 19.9902 -6.30859 20.1172 -5.92773 20.6055 -5.44922 L 21.3672 -4.70703 C 21.8457 -4.22852 22.4609 -4.19922 22.9297 -4.66797 L 25.8398 -7.58789 C 26.3086 -8.05664 26.2891 -8.65234 25.8105 -9.13086 L 25.0391 -9.89258 C 24.5605 -10.3711 24.1895 -10.5273 23.7109 -10.4883 L 23.1348 -10.4395 L 22.4902 -11.0742 L 22.7344 -12.1973 C 22.8613 -12.7637 22.7051 -13.2031 22.1191 -13.7891 L 19.9219 -15.9766 C 16.582 -19.2969 12.1484 -19.2188 9.25781 -16.3281 C 8.83789 -15.918 8.80859 -15.3418 9.04297 -14.9512 C 9.27734 -14.5898 9.73633 -14.3555 10.3809 -14.5215 C 11.8457 -14.8633 13.3691 -14.9219 14.7949 -13.9844 L 14.209 -12.5293 C 14.0137 -12.0508 13.9844 -11.6504 14.1113 -11.2891 L 3.04688 -0.898438 C 2.06055 0.0195312 1.98242 0.996094 2.8418 1.86523 Z M 10.752 -15.957 C 13.1836 -17.7344 16.4746 -17.4316 18.7012 -15.2051 L 21.1328 -12.793 C 21.3672 -12.5586 21.4062 -12.373 21.3379 -12.0312 L 21.0156 -10.5469 L 22.5195 -9.0625 L 23.5059 -9.12109 C 23.7598 -9.13086 23.8379 -9.11133 24.0332 -8.91602 L 24.6094 -8.33984 L 22.168 -5.89844 L 21.5918 -6.47461 C 21.3965 -6.66992 21.3672 -6.74805 21.377 -7.01172 L 21.4453 -7.98828 L 19.9512 -9.47266 L 18.4277 -9.21875 C 18.1055 -9.15039 17.959 -9.17969 17.7148 -9.41406 L 15.7129 -11.416 C 15.459 -11.6504 15.4297 -11.8164 15.5859 -12.1875 L 16.4648 -14.2773 C 14.9023 -15.7324 12.8711 -16.3574 10.8398 -15.7617 C 10.6836 -15.7227 10.625 -15.8496 10.752 -15.957 Z M 5.27344 2.30469 L 4.10156 1.14258 C 3.63281 0.683594 3.74023 0.341797 4.14062 -0.0195312 L 14.9512 -10.1953 L 16.416 -8.71094 L 6.42578 2.27539 C 6.07422 2.67578 5.74219 2.77344 5.27344 2.30469 Z"/>
  </g>
  <text style="stroke:none;fill:black;font-family:-apple-system,&quot;SF Pro Display&quot;,&quot;SF Pro Text&quot;,Helvetica,sans-serif;font-weight:bold;" transform="matrix(1 0 0 1 1289 1953)">Exporting</text>
  <text style="stroke:none;fill:black;font-family:-apple-system,&quot;SF Pro Display&quot;,&quot;SF Pro Text&quot;,Helvetica,sans-serif;" transform="matrix(1 0 0 1 1289 1971)">Symbols should be outlined when exporting to ensure the</text>
  <text style="stroke:none;fill:black;font-family:-apple-system,&quot;SF Pro Display&quot;,&quot;SF Pro Text&quot;,Helvetica,sans-serif;" transform="matrix(1 0 0 1 1289 1989)">design is preserved when submitting to Xcode.</text>
  <text id="template-version" style="stroke:none;fill:black;font-family:-apple-system,&quot;SF Pro Display&quot;,&quot;SF Pro Text&quot;,Helvetica,sans-serif;text-anchor:end;" transform="matrix(1 0 0 1 3036 1933)">Template v.2.0</text>
  <text style="stroke:none;fill:black;font-family:-apple-system,&quot;SF Pro Display&quot;,&quot;SF Pro Text&quot;,Helvetica,sans-serif;text-anchor:end;" transform="matrix(1 0 0 1 3036 1951)">Requires Xcode 12 or greater</text>
  <text style="stroke:none;fill:black;font-family:-apple-system,&quot;SF Pro Display&quot;,&quot;SF Pro Text&quot;,Helvetica,sans-serif;text-anchor:end;" transform="matrix(1 0 0 1 3036 1969)">Generated from text.alignleft</text>
  <text style="stroke:none;fill:black;font-family:-apple-system,&quot;SF Pro Display&quot;,&quot;SF Pro Text&quot;,Helvetica,sans-serif;text-anchor:end;" transform="matrix(1 0 0 1 3036 1987)">Typeset at 100 points</text>
  <text style="stroke:none;fill:black;font-family:-apple-system,&quot;SF Pro Display&quot;,&quot;SF Pro Text&quot;,Helvetica,sans-serif;" transform="matrix(1 0 0 1 263 726)">Small</text>
  <text style="stroke:none;fill:black;font-family:-apple-system,&quot;SF Pro Display&quot;,&quot;SF Pro Text&quot;,Helvetica,sans-serif;" transform="matrix(1 0 0 1 263 1156)">Medium</text>
  <text style="stroke:none;fill:black;font-family:-apple-system,&quot;SF Pro Display&quot;,&quot;SF Pro Text&quot;,Helvetica,sans-serif;" transform="matrix(1 0 0 1 263 1586)">Large</text>
 </g>
 <g id="Guides">
  <g id="H-reference" style="fill:#27AAE1;stroke:none;" transform="matrix(1 0 0 1 339 696)">
   <path d="M 0.976562 0 L 3.66211 0 L 12.9883 -24.4629 L 45.7031 -24.4629 L 55.0781 0 L 57.7148 0 L 30.6152 -70.459 L 28.125 -70.459 Z M 29.2969 -67.1387 L 29.3945 -67.1387 L 44.873 -26.709 L 13.8672 -26.709 Z"/>
  </g>
  <line id="Baseline-S" style="fill:none;stroke:#27AAE1;opacity:1;stroke-width:0.5;" x1="263" x2="3036" y1="696" y2="696"/>
  <line id="Capline-S" style="fill:none;stroke:#27AAE1;opacity:1;stroke-width:0.5;" x1="263" x2="3036" y1="625.541" y2="625.541"/>
  <g id="H-reference" style="fill:#27AAE1;stroke:none;" transform="matrix(1 0 0 1 339 1126)">
   <path d="M 0.976562 0 L 3.66211 0 L 12.9883 -24.4629 L 45.7031 -24.4629 L 55.0781 0 L 57.7148 0 L 30.6152 -70.459 L 28.125 -70.459 Z M 29.2969 -67.1387 L 29.3945 -67.1387 L 44.873 -26.709 L 13.8672 -26.709 Z"/>
  </g>
  <line id="Baseline-M" style="fill:none;stroke:#27AAE1;opacity:1;stroke-width:0.5;" x1="263" x2="3036" y1="1126" y2="1126"/>
  <line id="Capline-M" style="fill:none;stroke:#27AAE1;opacity:1;stroke-width:0.5;" x1="263" x2="3036" y1="1055.54" y2="1055.54"/>
  <g id="H-reference" style="fill:#27AAE1;stroke:none;" transform="matrix(1 0 0 1 339 1556)">
   <path d="M 0.976562 0 L 3.66211 0 L 12.9883 -24.4629 L 45.7031 -24.4629 L 55.0781 0 L 57.7148 0 L 30.6152 -70.459 L 28.125 -70.459 Z M 29.2969 -67.1387 L 29.3945 -67.1387 L 44.873 -26.709 L 13.8672 -26.709 Z"/>
  </g>
  <line id="Baseline-L" style="fill:none;stroke:#27AAE1;opacity:1;stroke-width:0.5;" x1="263" x2="3036" y1="1556" y2="1556"/>
  <line id="Capline-L" style="fill:none;stroke:#27AAE1;opacity:1;stroke-width:0.5;" x1="263" x2="3036" y1="1485.54" y2="1485.54"/>
  <line id="left-margin" style="fill:none;stroke:#00AEEF;stroke-width:0.5;opacity:1.0;" x1="1388.2" x2="1388.2" y1="1030.79" y2="1150.12"/>
  <line id="right-margin" style="fill:none;stroke:#00AEEF;stroke-width:0.5;opacity:1.0;" x1="1511.49" x2="1511.49" y1="1030.79" y2="1150.12"/>
 </g>
 <g id="Symbols">
  <g id="Black-L" transform="matrix(1 0 0 1 2847.17 1556)">
   <path d="M 24.4629 -76.6113 L 147.998 -76.6113 C 152.686 -76.6113 156.396 -80.3223 156.396 -84.9609 C 156.396 -89.6484 152.686 -93.3594 147.998 -93.3594 L 24.4629 -93.3594 C 19.7754 -93.3594 16.0645 -89.6484 16.0645 -84.9609 C 16.0645 -80.3223 19.7754 -76.6113 24.4629 -76.6113 Z M 24.4629 -43.6035 L 93.9453 -43.6035 C 98.584 -43.6035 102.344 -47.3633 102.344 -52.002 C 102.344 -56.6406 98.584 -60.3516 93.9453 -60.3516 L 24.4629 -60.3516 C 19.7754 -60.3516 16.0645 -56.6406 16.0645 -52.002 C 16.0645 -47.3633 19.7754 -43.6035 24.4629 -43.6035 Z M 24.4629 -10.6445 L 147.998 -10.6445 C 152.686 -10.6445 156.396 -14.3555 156.396 -19.043 C 156.396 -23.6816 152.686 -27.3926 147.998 -27.3926 L 24.4629 -27.3926 C 19.7754 -27.3926 16.0645 -23.6816 16.0645 -19.043 C 16.0645 -14.3555 19.7754 -10.6445 24.4629 -10.6445 Z M 24.4629 22.3145 L 93.9453 22.3145 C 98.584 22.3145 102.344 18.6035 102.344 13.9648 C 102.344 9.27734 98.584 5.56641 93.9453 5.56641 L 24.4629 5.56641 C 19.7754 5.56641 16.0645 9.27734 16.0645 13.9648 C 16.0645 18.6035 19.7754 22.3145 24.4629 22.3145 Z"/>
  </g>
  <g id="Heavy-L" transform="matrix(1 0 0 1 2552.19 1556)">
   <path d="M 23.4375 -77.5879 L 145.557 -77.5879 C 149.658 -77.5879 152.93 -80.8594 152.93 -84.9609 C 152.93 -89.0625 149.658 -92.334 145.557 -92.334 L 23.4375 -92.334 C 19.3359 -92.334 16.0645 -89.0625 16.0645 -84.9609 C 16.0645 -80.8594 19.3359 -77.5879 23.4375 -77.5879 Z M 23.4375 -44.6289 L 93.5547 -44.6289 C 97.6562 -44.6289 100.928 -47.9004 100.928 -51.9531 C 100.928 -56.0547 97.6562 -59.3262 93.5547 -59.3262 L 23.4375 -59.3262 C 19.3359 -59.3262 16.0645 -56.0547 16.0645 -51.9531 C 16.0645 -47.9004 19.3359 -44.6289 23.4375 -44.6289 Z M 23.4375 -11.6211 L 145.557 -11.6211 C 149.658 -11.6211 152.93 -14.8926 152.93 -18.9941 C 152.93 -23.0957 149.658 -26.3672 145.557 -26.3672 L 23.4375 -26.3672 C 19.3359 -26.3672 16.0645 -23.0957 16.0645 -18.9941 C 16.0645 -14.8926 19.3359 -11.6211 23.4375 -11.6211 Z M 23.4375 21.3379 L 93.5547 21.3379 C 97.6562 21.3379 100.928 18.1152 100.928 14.0137 C 100.928 9.91211 97.6562 6.64062 93.5547 6.64062 L 23.4375 6.64062 C 19.3359 6.64062 16.0645 9.91211 16.0645 14.0137 C 16.0645 18.1152 19.3359 21.3379 23.4375 21.3379 Z"/>
  </g>
  <g id="Bold-L" transform="matrix(1 0 0 1 2257.43 1556)">
   <path d="M 22.3145 -78.7109 L 142.773 -78.7109 C 146.24 -78.7109 149.023 -81.4941 149.023 -84.9609 C 149.023 -88.4277 146.24 -91.1621 142.773 -91.1621 L 22.3145 -91.1621 C 18.7988 -91.1621 16.0645 -88.4277 16.0645 -84.9609 C 16.0645 -81.4941 18.7988 -78.7109 22.3145 -78.7109 Z M 22.3145 -45.7031 L 93.1641 -45.7031 C 96.6309 -45.7031 99.4141 -48.4863 99.4141 -51.9531 C 99.4141 -55.4199 96.6309 -58.1543 93.1641 -58.1543 L 22.3145 -58.1543 C 18.7988 -58.1543 16.0645 -55.4199 16.0645 -51.9531 C 16.0645 -48.4863 18.7988 -45.7031 22.3145 -45.7031 Z M 22.3145 -12.7441 L 142.773 -12.7441 C 146.24 -12.7441 149.023 -15.4785 149.023 -18.9453 C 149.023 -22.4121 146.24 -25.1953 142.773 -25.1953 L 22.3145 -25.1953 C 18.7988 -25.1953 16.0645 -22.4121 16.0645 -18.9453 C 16.0645 -15.4785 18.7988 -12.7441 22.3145 -12.7441 Z M 22.3145 20.2637 L 93.1641 20.2637 C 96.6309 20.2637 99.4141 17.5293 99.4141 14.0625 C 99.4141 10.5957 96.6309 7.8125 93.1641 7.8125 L 22.3145 7.8125 C 18.7988 7.8125 16.0645 10.5957 16.0645 14.0625 C 16.0645 17.5293 18.7988 20.2637 22.3145 20.2637 Z"/>
  </g>
  <g id="Semibold-L" transform="matrix(1 0 0 1 1962.07 1556)">
   <path d="M 21.5332 -79.4922 L 140.869 -79.4922 C 143.896 -79.4922 146.338 -81.8848 146.338 -84.9609 C 146.338 -87.9883 143.896 -90.3809 140.869 -90.3809 L 21.5332 -90.3809 C 18.457 -90.3809 16.0645 -87.9883 16.0645 -84.9609 C 16.0645 -81.8848 18.457 -79.4922 21.5332 -79.4922 Z M 21.5332 -46.4844 L 92.8711 -46.4844 C 95.8984 -46.4844 98.3398 -48.877 98.3398 -51.9531 C 98.3398 -54.9805 95.8984 -57.373 92.8711 -57.373 L 21.5332 -57.373 C 18.457 -57.373 16.0645 -54.9805 16.0645 -51.9531 C 16.0645 -48.877 18.457 -46.4844 21.5332 -46.4844 Z M 21.5332 -13.4766 L 140.869 -13.4766 C 143.896 -13.4766 146.338 -15.8691 146.338 -18.8965 C 146.338 -21.9727 143.896 -24.3652 140.869 -24.3652 L 21.5332 -24.3652 C 18.457 -24.3652 16.0645 -21.9727 16.0645 -18.8965 C 16.0645 -15.8691 18.457 -13.4766 21.5332 -13.4766 Z M 21.5332 19.5312 L 92.8711 19.5312 C 95.8984 19.5312 98.3398 17.1387 98.3398 14.1113 C 98.3398 11.0352 95.8984 8.64258 92.8711 8.64258 L 21.5332 8.64258 C 18.457 8.64258 16.0645 11.0352 16.0645 14.1113 C 16.0645 17.1387 18.457 19.5312 21.5332 19.5312 Z"/>
  </g>
  <g id="Medium-L" transform="matrix(1 0 0 1 1666.38 1556)">
   <path d="M 20.8984 -80.0781 L 139.404 -80.0781 C 142.139 -80.0781 144.287 -82.2266 144.287 -84.9609 C 144.287 -87.6465 142.139 -89.7949 139.404 -89.7949 L 20.8984 -89.7949 C 18.2129 -89.7949 16.0645 -87.6465 16.0645 -84.9609 C 16.0645 -82.2266 18.2129 -80.0781 20.8984 -80.0781 Z M 20.8984 -47.0703 L 92.627 -47.0703 C 95.3613 -47.0703 97.5586 -49.2188 97.5586 -51.9043 C 97.5586 -54.6387 95.3613 -56.7871 92.627 -56.7871 L 20.8984 -56.7871 C 18.2129 -56.7871 16.0645 -54.6387 16.0645 -51.9043 C 16.0645 -49.2188 18.2129 -47.0703 20.8984 -47.0703 Z M 20.8984 -14.0625 L 139.404 -14.0625 C 142.139 -14.0625 144.287 -16.1621 144.287 -18.8965 C 144.287 -21.6309 142.139 -23.7305 139.404 -23.7305 L 20.8984 -23.7305 C 18.2129 -23.7305 16.0645 -21.6309 16.0645 -18.8965 C 16.0645 -16.1621 18.2129 -14.0625 20.8984 -14.0625 Z M 20.8984 18.9941 L 92.627 18.9941 C 95.3613 18.9941 97.5586 16.8457 97.5586 14.1113 C 97.5586 11.4258 95.3613 9.27734 92.627 9.27734 L 20.8984 9.27734 C 18.2129 9.27734 16.0645 11.4258 16.0645 14.1113 C 16.0645 16.8457 18.2129 18.9941 20.8984 18.9941 Z"/>
  </g>
  <g id="Regular-L" transform="matrix(1 0 0 1 1370.99 1556)">
   <path d="M 20.166 -80.8594 L 137.5 -80.8594 C 139.795 -80.8594 141.65 -82.6172 141.65 -84.9609 C 141.65 -87.2559 139.795 -89.0137 137.5 -89.0137 L 20.166 -89.0137 C 17.8223 -89.0137 16.0645 -87.2559 16.0645 -84.9609 C 16.0645 -82.6172 17.8223 -80.8594 20.166 -80.8594 Z M 20.166 -47.8027 L 92.334 -47.8027 C 94.6777 -47.8027 96.4844 -49.6094 96.4844 -51.9043 C 96.4844 -54.1992 94.6777 -56.0059 92.334 -56.0059 L 20.166 -56.0059 C 17.8223 -56.0059 16.0645 -54.1992 16.0645 -51.9043 C 16.0645 -49.6094 17.8223 -47.8027 20.166 -47.8027 Z M 20.166 -14.7949 L 137.5 -14.7949 C 139.795 -14.7949 141.65 -16.5527 141.65 -18.8477 C 141.65 -21.1914 139.795 -22.9492 137.5 -22.9492 L 20.166 -22.9492 C 17.8223 -22.9492 16.0645 -21.1914 16.0645 -18.8477 C 16.0645 -16.5527 17.8223 -14.7949 20.166 -14.7949 Z M 20.166 18.2617 L 92.334 18.2617 C 94.6777 18.2617 96.4844 16.4551 96.4844 14.1602 C 96.4844 11.8652 94.6777 10.1074 92.334 10.1074 L 20.166 10.1074 C 17.8223 10.1074 16.0645 11.8652 16.0645 14.1602 C 16.0645 16.4551 17.8223 18.2617 20.166 18.2617 Z"/>
  </g>
  <g id="Light-L" transform="matrix(1 0 0 1 1075.2 1556)">
   <path d="M 19.2383 -81.7871 L 136.621 -81.7871 C 138.379 -81.7871 139.795 -83.1055 139.795 -84.9121 C 139.795 -86.7188 138.379 -88.0859 136.621 -88.0859 L 19.2383 -88.0859 C 17.4316 -88.0859 16.0645 -86.7188 16.0645 -84.9121 C 16.0645 -83.1055 17.4316 -81.7871 19.2383 -81.7871 Z M 19.2383 -48.6816 L 93.3105 -48.6816 C 95.1172 -48.6816 96.4844 -50.0488 96.4844 -51.8555 C 96.4844 -53.6621 95.1172 -54.9805 93.3105 -54.9805 L 19.2383 -54.9805 C 17.4316 -54.9805 16.0645 -53.6621 16.0645 -51.8555 C 16.0645 -50.0488 17.4316 -48.6816 19.2383 -48.6816 Z M 19.2383 -15.625 L 136.621 -15.625 C 138.379 -15.625 139.795 -16.9922 139.795 -18.7988 C 139.795 -20.5566 138.379 -21.9238 136.621 -21.9238 L 19.2383 -21.9238 C 17.4316 -21.9238 16.0645 -20.5566 16.0645 -18.7988 C 16.0645 -16.9922 17.4316 -15.625 19.2383 -15.625 Z M 19.2383 17.4316 L 93.3105 17.4316 C 95.1172 17.4316 96.4844 16.1133 96.4844 14.3066 C 96.4844 12.5 95.1172 11.1328 93.3105 11.1328 L 19.2383 11.1328 C 17.4316 11.1328 16.0645 12.5 16.0645 14.3066 C 16.0645 16.1133 17.4316 17.4316 19.2383 17.4316 Z"/>
  </g>
  <g id="Thin-L" transform="matrix(1 0 0 1 779.713 1556)">
   <path d="M 18.0176 -82.959 L 135.4 -82.959 C 136.523 -82.959 137.354 -83.7402 137.354 -84.9121 C 137.354 -86.0352 136.523 -86.8164 135.4 -86.8164 L 18.0176 -86.8164 C 16.8457 -86.8164 16.0645 -86.0352 16.0645 -84.9121 C 16.0645 -83.7402 16.8457 -82.959 18.0176 -82.959 Z M 18.0176 -49.8535 L 94.5312 -49.8535 C 95.7031 -49.8535 96.4844 -50.6348 96.4844 -51.7578 C 96.4844 -52.9297 95.7031 -53.7109 94.5312 -53.7109 L 18.0176 -53.7109 C 16.8457 -53.7109 16.0645 -52.9297 16.0645 -51.7578 C 16.0645 -50.6348 16.8457 -49.8535 18.0176 -49.8535 Z M 18.0176 -16.6992 L 135.4 -16.6992 C 136.523 -16.6992 137.354 -17.5293 137.354 -18.6523 C 137.354 -19.7754 136.523 -20.6055 135.4 -20.6055 L 18.0176 -20.6055 C 16.8457 -20.6055 16.0645 -19.7754 16.0645 -18.6523 C 16.0645 -17.5293 16.8457 -16.6992 18.0176 -16.6992 Z M 18.0176 16.4062 L 94.5312 16.4062 C 95.7031 16.4062 96.4844 15.625 96.4844 14.4531 C 96.4844 13.3301 95.7031 12.5488 94.5312 12.5488 L 18.0176 12.5488 C 16.8457 12.5488 16.0645 13.3301 16.0645 14.4531 C 16.0645 15.625 16.8457 16.4062 18.0176 16.4062 Z"/>
  </g>
  <g id="Ultralight-L" transform="matrix(1 0 0 1 483.637 1556)">
   <path d="M 17.3828 -83.5938 L 134.766 -83.5938 C 135.596 -83.5938 136.084 -84.082 136.084 -84.8633 C 136.084 -85.6934 135.596 -86.1816 134.766 -86.1816 L 17.3828 -86.1816 C 16.5527 -86.1816 16.0645 -85.6934 16.0645 -84.8633 C 16.0645 -84.082 16.5527 -83.5938 17.3828 -83.5938 Z M 17.3828 -50.4395 L 95.166 -50.4395 C 95.9961 -50.4395 96.4844 -50.9277 96.4844 -51.7578 C 96.4844 -52.5391 95.9961 -53.0273 95.166 -53.0273 L 17.3828 -53.0273 C 16.5527 -53.0273 16.0645 -52.5391 16.0645 -51.7578 C 16.0645 -50.9277 16.5527 -50.4395 17.3828 -50.4395 Z M 17.3828 -17.2852 L 134.766 -17.2852 C 135.596 -17.2852 136.084 -17.7734 136.084 -18.6035 C 136.084 -19.3848 135.596 -19.9219 134.766 -19.9219 L 17.3828 -19.9219 C 16.5527 -19.9219 16.0645 -19.3848 16.0645 -18.6035 C 16.0645 -17.7734 16.5527 -17.2852 17.3828 -17.2852 Z M 17.3828 15.8691 L 95.166 15.8691 C 95.9961 15.8691 96.4844 15.332 96.4844 14.5508 C 96.4844 13.7695 95.9961 13.2324 95.166 13.2324 L 17.3828 13.2324 C 16.5527 13.2324 16.0645 13.7695 16.0645 14.5508 C 16.0645 15.332 16.5527 15.8691 17.3828 15.8691 Z"/>
  </g>
  <g id="Black-M" transform="matrix(1 0 0 1 2864.7 1126)">
   <path d="M 19.8242 -66.4062 L 117.578 -66.4062 C 121.68 -66.4062 124.951 -69.6777 124.951 -73.7793 C 124.951 -77.8809 121.68 -81.1523 117.578 -81.1523 L 19.8242 -81.1523 C 15.7227 -81.1523 12.4512 -77.8809 12.4512 -73.7793 C 12.4512 -69.6777 15.7227 -66.4062 19.8242 -66.4062 Z M 19.8242 -40.8691 L 73.7793 -40.8691 C 77.8809 -40.8691 81.1523 -44.1406 81.1523 -48.2422 C 81.1523 -52.2949 77.8809 -55.5664 73.7793 -55.5664 L 19.8242 -55.5664 C 15.7227 -55.5664 12.4512 -52.2949 12.4512 -48.2422 C 12.4512 -44.1406 15.7227 -40.8691 19.8242 -40.8691 Z M 19.8242 -15.2832 L 117.578 -15.2832 C 121.68 -15.2832 124.951 -18.6035 124.951 -22.6562 C 124.951 -26.7578 121.68 -30.0293 117.578 -30.0293 L 19.8242 -30.0293 C 15.7227 -30.0293 12.4512 -26.7578 12.4512 -22.6562 C 12.4512 -18.6035 15.7227 -15.2832 19.8242 -15.2832 Z M 19.8242 10.2539 L 73.7793 10.2539 C 77.8809 10.2539 81.1523 6.98242 81.1523 2.88086 C 81.1523 -1.2207 77.8809 -4.49219 73.7793 -4.49219 L 19.8242 -4.49219 C 15.7227 -4.49219 12.4512 -1.2207 12.4512 2.88086 C 12.4512 6.98242 15.7227 10.2539 19.8242 10.2539 Z"/>
  </g>
  <g id="Heavy-M" transform="matrix(1 0 0 1 2569.65 1126)">
   <path d="M 18.9453 -67.2852 L 115.088 -67.2852 C 118.701 -67.2852 121.631 -70.166 121.631 -73.7793 C 121.631 -77.3926 118.701 -80.2734 115.088 -80.2734 L 18.9453 -80.2734 C 15.332 -80.2734 12.4512 -77.3926 12.4512 -73.7793 C 12.4512 -70.166 15.332 -67.2852 18.9453 -67.2852 Z M 18.9453 -41.6992 L 73.1445 -41.6992 C 76.7578 -41.6992 79.6387 -44.5801 79.6387 -48.1934 C 79.6387 -51.8066 76.7578 -54.6875 73.1445 -54.6875 L 18.9453 -54.6875 C 15.332 -54.6875 12.4512 -51.8066 12.4512 -48.1934 C 12.4512 -44.5801 15.332 -41.6992 18.9453 -41.6992 Z M 18.9453 -16.1621 L 115.088 -16.1621 C 118.701 -16.1621 121.631 -19.043 121.631 -22.6562 C 121.631 -26.2695 118.701 -29.1504 115.088 -29.1504 L 18.9453 -29.1504 C 15.332 -29.1504 12.4512 -26.2695 12.4512 -22.6562 C 12.4512 -19.043 15.332 -16.1621 18.9453 -16.1621 Z M 18.9453 9.42383 L 73.1445 9.42383 C 76.7578 9.42383 79.6387 6.49414 79.6387 2.88086 C 79.6387 -0.732422 76.7578 -3.61328 73.1445 -3.61328 L 18.9453 -3.61328 C 15.332 -3.61328 12.4512 -0.732422 12.4512 2.88086 C 12.4512 6.49414 15.332 9.42383 18.9453 9.42383 Z"/>
  </g>
  <g id="Bold-M" transform="matrix(1 0 0 1 2274.82 1126)">
   <path d="M 17.9688 -68.2617 L 112.354 -68.2617 C 115.43 -68.2617 117.871 -70.7031 117.871 -73.7793 C 117.871 -76.8555 115.43 -79.2969 112.354 -79.2969 L 17.9688 -79.2969 C 14.8926 -79.2969 12.4512 -76.8555 12.4512 -73.7793 C 12.4512 -70.7031 14.8926 -68.2617 17.9688 -68.2617 Z M 17.9688 -42.6758 L 72.4121 -42.6758 C 75.4883 -42.6758 77.9785 -45.1172 77.9785 -48.1934 C 77.9785 -51.2695 75.4883 -53.7109 72.4121 -53.7109 L 17.9688 -53.7109 C 14.8926 -53.7109 12.4512 -51.2695 12.4512 -48.1934 C 12.4512 -45.1172 14.8926 -42.6758 17.9688 -42.6758 Z M 17.9688 -17.0898 L 112.354 -17.0898 C 115.43 -17.0898 117.871 -19.5801 117.871 -22.6562 C 117.871 -25.7324 115.43 -28.1738 112.354 -28.1738 L 17.9688 -28.1738 C 14.8926 -28.1738 12.4512 -25.7324 12.4512 -22.6562 C 12.4512 -19.5801 14.8926 -17.0898 17.9688 -17.0898 Z M 17.9688 8.44727 L 72.4121 8.44727 C 75.4883 8.44727 77.9785 6.00586 77.9785 2.92969 C 77.9785 -0.146484 75.4883 -2.58789 72.4121 -2.58789 L 17.9688 -2.58789 C 14.8926 -2.58789 12.4512 -0.146484 12.4512 2.92969 C 12.4512 6.00586 14.8926 8.44727 17.9688 8.44727 Z"/>
  </g>
  <g id="Semibold-M" transform="matrix(1 0 0 1 1979.38 1126)">
   <path d="M 17.2852 -68.8965 L 110.4 -68.8965 C 113.135 -68.8965 115.332 -71.0449 115.332 -73.7793 C 115.332 -76.4648 113.135 -78.6133 110.4 -78.6133 L 17.2852 -78.6133 C 14.5996 -78.6133 12.4512 -76.4648 12.4512 -73.7793 C 12.4512 -71.0449 14.5996 -68.8965 17.2852 -68.8965 Z M 17.2852 -43.3594 L 71.9238 -43.3594 C 74.6094 -43.3594 76.8066 -45.5078 76.8066 -48.1934 C 76.8066 -50.9277 74.6094 -53.0762 71.9238 -53.0762 L 17.2852 -53.0762 C 14.5996 -53.0762 12.4512 -50.9277 12.4512 -48.1934 C 12.4512 -45.5078 14.5996 -43.3594 17.2852 -43.3594 Z M 17.2852 -17.7734 L 110.4 -17.7734 C 113.135 -17.7734 115.332 -19.9219 115.332 -22.6074 C 115.332 -25.3418 113.135 -27.4902 110.4 -27.4902 L 17.2852 -27.4902 C 14.5996 -27.4902 12.4512 -25.3418 12.4512 -22.6074 C 12.4512 -19.9219 14.5996 -17.7734 17.2852 -17.7734 Z M 17.2852 7.8125 L 71.9238 7.8125 C 74.6094 7.8125 76.8066 5.66406 76.8066 2.92969 C 76.8066 0.244141 74.6094 -1.9043 71.9238 -1.9043 L 17.2852 -1.9043 C 14.5996 -1.9043 12.4512 0.244141 12.4512 2.92969 C 12.4512 5.66406 14.5996 7.8125 17.2852 7.8125 Z"/>
  </g>
  <g id="Medium-M" transform="matrix(1 0 0 1 1683.64 1126)">
   <path d="M 16.7969 -69.4336 L 108.984 -69.4336 C 111.426 -69.4336 113.379 -71.3379 113.379 -73.7793 C 113.379 -76.1719 111.426 -78.125 108.984 -78.125 L 16.7969 -78.125 C 14.3555 -78.125 12.4512 -76.1719 12.4512 -73.7793 C 12.4512 -71.3379 14.3555 -69.4336 16.7969 -69.4336 Z M 16.7969 -43.8477 L 71.5332 -43.8477 C 73.9746 -43.8477 75.9277 -45.752 75.9277 -48.1934 C 75.9277 -50.6348 73.9746 -52.5391 71.5332 -52.5391 L 16.7969 -52.5391 C 14.3555 -52.5391 12.4512 -50.6348 12.4512 -48.1934 C 12.4512 -45.752 14.3555 -43.8477 16.7969 -43.8477 Z M 16.7969 -18.2617 L 108.984 -18.2617 C 111.426 -18.2617 113.379 -20.166 113.379 -22.6074 C 113.379 -25.0488 111.426 -26.9531 108.984 -26.9531 L 16.7969 -26.9531 C 14.3555 -26.9531 12.4512 -25.0488 12.4512 -22.6074 C 12.4512 -20.166 14.3555 -18.2617 16.7969 -18.2617 Z M 16.7969 7.32422 L 71.5332 7.32422 C 73.9746 7.32422 75.9277 5.37109 75.9277 2.97852 C 75.9277 0.537109 73.9746 -1.36719 71.5332 -1.36719 L 16.7969 -1.36719 C 14.3555 -1.36719 12.4512 0.537109 12.4512 2.97852 C 12.4512 5.37109 14.3555 7.32422 16.7969 7.32422 Z"/>
  </g>
  <g id="Regular-M" transform="matrix(1 0 0 1 1388.2 1126)">
   <path d="M 16.1133 -70.0684 L 107.08 -70.0684 C 109.131 -70.0684 110.84 -71.6797 110.84 -73.7793 C 110.84 -75.8301 109.131 -77.4414 107.08 -77.4414 L 16.1133 -77.4414 C 14.0625 -77.4414 12.4512 -75.8301 12.4512 -73.7793 C 12.4512 -71.6797 14.0625 -70.0684 16.1133 -70.0684 Z M 16.1133 -44.4824 L 71.0449 -44.4824 C 73.0957 -44.4824 74.7559 -46.0938 74.7559 -48.1934 C 74.7559 -50.2441 73.0957 -51.8555 71.0449 -51.8555 L 16.1133 -51.8555 C 14.0625 -51.8555 12.4512 -50.2441 12.4512 -48.1934 C 12.4512 -46.0938 14.0625 -44.4824 16.1133 -44.4824 Z M 16.1133 -18.8965 L 107.08 -18.8965 C 109.131 -18.8965 110.84 -20.5566 110.84 -22.6074 C 110.84 -24.6582 109.131 -26.2695 107.08 -26.2695 L 16.1133 -26.2695 C 14.0625 -26.2695 12.4512 -24.6582 12.4512 -22.6074 C 12.4512 -20.5566 14.0625 -18.8965 16.1133 -18.8965 Z M 16.1133 6.64062 L 71.0449 6.64062 C 73.0957 6.64062 74.7559 5.0293 74.7559 2.97852 C 74.7559 0.927734 73.0957 -0.732422 71.0449 -0.732422 L 16.1133 -0.732422 C 14.0625 -0.732422 12.4512 0.927734 12.4512 2.97852 C 12.4512 5.0293 14.0625 6.64062 16.1133 6.64062 Z"/>
  </g>
  <g id="Light-M" transform="matrix(1 0 0 1 1092.32 1126)">
   <path d="M 15.332 -70.8984 L 106.25 -70.8984 C 107.91 -70.8984 109.18 -72.1191 109.18 -73.7305 C 109.18 -75.3418 107.91 -76.6113 106.25 -76.6113 L 15.332 -76.6113 C 13.6719 -76.6113 12.4512 -75.3418 12.4512 -73.7305 C 12.4512 -72.1191 13.6719 -70.8984 15.332 -70.8984 Z M 15.332 -45.2637 L 71.875 -45.2637 C 73.4863 -45.2637 74.7559 -46.5332 74.7559 -48.1445 C 74.7559 -49.7559 73.4863 -50.9766 71.875 -50.9766 L 15.332 -50.9766 C 13.6719 -50.9766 12.4512 -49.7559 12.4512 -48.1445 C 12.4512 -46.5332 13.6719 -45.2637 15.332 -45.2637 Z M 15.332 -19.6777 L 106.25 -19.6777 C 107.91 -19.6777 109.18 -20.8984 109.18 -22.5098 C 109.18 -24.1211 107.91 -25.3906 106.25 -25.3906 L 15.332 -25.3906 C 13.6719 -25.3906 12.4512 -24.1211 12.4512 -22.5098 C 12.4512 -20.8984 13.6719 -19.6777 15.332 -19.6777 Z M 15.332 5.95703 L 71.875 5.95703 C 73.4863 5.95703 74.7559 4.6875 74.7559 3.07617 C 74.7559 1.46484 73.4863 0.244141 71.875 0.244141 L 15.332 0.244141 C 13.6719 0.244141 12.4512 1.46484 12.4512 3.07617 C 12.4512 4.6875 13.6719 5.95703 15.332 5.95703 Z"/>
  </g>
  <g id="Thin-M" transform="matrix(1 0 0 1 796.705 1126)">
   <path d="M 14.209 -71.9727 L 105.176 -71.9727 C 106.201 -71.9727 106.982 -72.7051 106.982 -73.7305 C 106.982 -74.7559 106.201 -75.4883 105.176 -75.4883 L 14.209 -75.4883 C 13.1836 -75.4883 12.4512 -74.7559 12.4512 -73.7305 C 12.4512 -72.7051 13.1836 -71.9727 14.209 -71.9727 Z M 14.209 -46.2891 L 72.998 -46.2891 C 74.0234 -46.2891 74.7559 -47.0215 74.7559 -48.0469 C 74.7559 -49.0723 74.0234 -49.8535 72.998 -49.8535 L 14.209 -49.8535 C 13.1836 -49.8535 12.4512 -49.0723 12.4512 -48.0469 C 12.4512 -47.0215 13.1836 -46.2891 14.209 -46.2891 Z M 14.209 -20.6543 L 105.176 -20.6543 C 106.201 -20.6543 106.982 -21.3867 106.982 -22.4121 C 106.982 -23.4375 106.201 -24.1699 105.176 -24.1699 L 14.209 -24.1699 C 13.1836 -24.1699 12.4512 -23.4375 12.4512 -22.4121 C 12.4512 -21.3867 13.1836 -20.6543 14.209 -20.6543 Z M 14.209 5.0293 L 72.998 5.0293 C 74.0234 5.0293 74.7559 4.24805 74.7559 3.22266 C 74.7559 2.19727 74.0234 1.46484 72.998 1.46484 L 14.209 1.46484 C 13.1836 1.46484 12.4512 2.19727 12.4512 3.22266 C 12.4512 4.24805 13.1836 5.0293 14.209 5.0293 Z"/>
  </g>
  <g id="Ultralight-M" transform="matrix(1 0 0 1 500.556 1126)">
   <path d="M 13.6719 -72.5098 L 104.639 -72.5098 C 105.371 -72.5098 105.859 -72.998 105.859 -73.7305 C 105.859 -74.4141 105.371 -74.9023 104.639 -74.9023 L 13.6719 -74.9023 C 12.9395 -74.9023 12.4512 -74.4141 12.4512 -73.7305 C 12.4512 -72.998 12.9395 -72.5098 13.6719 -72.5098 Z M 13.6719 -46.8262 L 73.584 -46.8262 C 74.3164 -46.8262 74.7559 -47.3145 74.7559 -48.0469 C 74.7559 -48.7793 74.3164 -49.2188 73.584 -49.2188 L 13.6719 -49.2188 C 12.9395 -49.2188 12.4512 -48.7793 12.4512 -48.0469 C 12.4512 -47.3145 12.9395 -46.8262 13.6719 -46.8262 Z M 13.6719 -21.1426 L 104.639 -21.1426 C 105.371 -21.1426 105.859 -21.6309 105.859 -22.3633 C 105.859 -23.0957 105.371 -23.5352 104.639 -23.5352 L 13.6719 -23.5352 C 12.9395 -23.5352 12.4512 -23.0957 12.4512 -22.3633 C 12.4512 -21.6309 12.9395 -21.1426 13.6719 -21.1426 Z M 13.6719 4.54102 L 73.584 4.54102 C 74.3164 4.54102 74.7559 4.05273 74.7559 3.32031 C 74.7559 2.58789 74.3164 2.09961 73.584 2.09961 L 13.6719 2.09961 C 12.9395 2.09961 12.4512 2.58789 12.4512 3.32031 C 12.4512 4.05273 12.9395 4.54102 13.6719 4.54102 Z"/>
  </g>
  <g id="Black-S" transform="matrix(1 0 0 1 2879.69 696)">
   <path d="M 15.4785 -59.7168 L 91.9434 -59.7168 C 95.1172 -59.7168 97.6562 -62.2559 97.6562 -65.4297 C 97.6562 -68.6035 95.1172 -71.1426 91.9434 -71.1426 L 15.4785 -71.1426 C 12.3047 -71.1426 9.76562 -68.6035 9.76562 -65.4297 C 9.76562 -62.2559 12.3047 -59.7168 15.4785 -59.7168 Z M 15.4785 -39.6973 L 57.7637 -39.6973 C 60.9375 -39.6973 63.4766 -42.2363 63.4766 -45.4102 C 63.4766 -48.584 60.9375 -51.123 57.7637 -51.123 L 15.4785 -51.123 C 12.3047 -51.123 9.76562 -48.584 9.76562 -45.4102 C 9.76562 -42.2363 12.3047 -39.6973 15.4785 -39.6973 Z M 15.4785 -19.6777 L 91.9434 -19.6777 C 95.1172 -19.6777 97.6562 -22.2168 97.6562 -25.3906 C 97.6562 -28.5645 95.1172 -31.1035 91.9434 -31.1035 L 15.4785 -31.1035 C 12.3047 -31.1035 9.76562 -28.5645 9.76562 -25.3906 C 9.76562 -22.2168 12.3047 -19.6777 15.4785 -19.6777 Z M 15.4785 0.341797 L 57.7637 0.341797 C 60.9375 0.341797 63.4766 -2.19727 63.4766 -5.37109 C 63.4766 -8.54492 60.9375 -11.084 57.7637 -11.084 L 15.4785 -11.084 C 12.3047 -11.084 9.76562 -8.54492 9.76562 -5.37109 C 9.76562 -2.19727 12.3047 0.341797 15.4785 0.341797 Z"/>
  </g>
  <g id="Heavy-S" transform="matrix(1 0 0 1 2584.15 696)">
   <path d="M 14.8926 -60.3027 L 90.1367 -60.3027 C 93.0176 -60.3027 95.3125 -62.5488 95.3125 -65.4297 C 95.3125 -68.3105 93.0176 -70.5566 90.1367 -70.5566 L 14.8926 -70.5566 C 12.0605 -70.5566 9.76562 -68.3105 9.76562 -65.4297 C 9.76562 -62.5488 12.0605 -60.3027 14.8926 -60.3027 Z M 14.8926 -40.2832 L 57.1777 -40.2832 C 60.0098 -40.2832 62.3047 -42.5293 62.3047 -45.4102 C 62.3047 -48.2422 60.0098 -50.5371 57.1777 -50.5371 L 14.8926 -50.5371 C 12.0605 -50.5371 9.76562 -48.2422 9.76562 -45.4102 C 9.76562 -42.5293 12.0605 -40.2832 14.8926 -40.2832 Z M 14.8926 -20.2637 L 90.1367 -20.2637 C 93.0176 -20.2637 95.3125 -22.5098 95.3125 -25.3906 C 95.3125 -28.2227 93.0176 -30.5176 90.1367 -30.5176 L 14.8926 -30.5176 C 12.0605 -30.5176 9.76562 -28.2227 9.76562 -25.3906 C 9.76562 -22.5098 12.0605 -20.2637 14.8926 -20.2637 Z M 14.8926 -0.244141 L 57.1777 -0.244141 C 60.0098 -0.244141 62.3047 -2.49023 62.3047 -5.37109 C 62.3047 -8.20312 60.0098 -10.498 57.1777 -10.498 L 14.8926 -10.498 C 12.0605 -10.498 9.76562 -8.20312 9.76562 -5.37109 C 9.76562 -2.49023 12.0605 -0.244141 14.8926 -0.244141 Z"/>
  </g>
  <g id="Bold-S" transform="matrix(1 0 0 1 2288.78 696)">
   <path d="M 14.2578 -60.9375 L 88.1348 -60.9375 C 90.625 -60.9375 92.627 -62.9395 92.627 -65.4297 C 92.627 -67.9199 90.625 -69.9219 88.1348 -69.9219 L 14.2578 -69.9219 C 11.7676 -69.9219 9.76562 -67.9199 9.76562 -65.4297 C 9.76562 -62.9395 11.7676 -60.9375 14.2578 -60.9375 Z M 14.2578 -40.918 L 56.4941 -40.918 C 59.0332 -40.918 61.0352 -42.9199 61.0352 -45.4102 C 61.0352 -47.9004 59.0332 -49.9023 56.4941 -49.9023 L 14.2578 -49.9023 C 11.7676 -49.9023 9.76562 -47.9004 9.76562 -45.4102 C 9.76562 -42.9199 11.7676 -40.918 14.2578 -40.918 Z M 14.2578 -20.8984 L 88.1348 -20.8984 C 90.625 -20.8984 92.627 -22.9004 92.627 -25.3906 C 92.627 -27.8809 90.625 -29.8828 88.1348 -29.8828 L 14.2578 -29.8828 C 11.7676 -29.8828 9.76562 -27.8809 9.76562 -25.3906 C 9.76562 -22.9004 11.7676 -20.8984 14.2578 -20.8984 Z M 14.2578 -0.878906 L 56.4941 -0.878906 C 59.0332 -0.878906 61.0352 -2.88086 61.0352 -5.37109 C 61.0352 -7.86133 59.0332 -9.86328 56.4941 -9.86328 L 14.2578 -9.86328 C 11.7676 -9.86328 9.76562 -7.86133 9.76562 -5.37109 C 9.76562 -2.88086 11.7676 -0.878906 14.2578 -0.878906 Z"/>
  </g>
  <g id="Semibold-S" transform="matrix(1 0 0 1 1992.97 696)">
   <path d="M 13.8184 -61.377 L 86.7188 -61.377 C 89.0137 -61.377 90.8203 -63.1836 90.8203 -65.4297 C 90.8203 -67.6758 89.0137 -69.4824 86.7188 -69.4824 L 13.8184 -69.4824 C 11.5723 -69.4824 9.76562 -67.6758 9.76562 -65.4297 C 9.76562 -63.1836 11.5723 -61.377 13.8184 -61.377 Z M 13.8184 -41.3574 L 56.0547 -41.3574 C 58.3008 -41.3574 60.1562 -43.1641 60.1562 -45.4102 C 60.1562 -47.6562 58.3008 -49.4629 56.0547 -49.4629 L 13.8184 -49.4629 C 11.5723 -49.4629 9.76562 -47.6562 9.76562 -45.4102 C 9.76562 -43.1641 11.5723 -41.3574 13.8184 -41.3574 Z M 13.8184 -21.3379 L 86.7188 -21.3379 C 89.0137 -21.3379 90.8203 -23.1445 90.8203 -25.3906 C 90.8203 -27.6367 89.0137 -29.4434 86.7188 -29.4434 L 13.8184 -29.4434 C 11.5723 -29.4434 9.76562 -27.6367 9.76562 -25.3906 C 9.76562 -23.1445 11.5723 -21.3379 13.8184 -21.3379 Z M 13.8184 -1.31836 L 56.0547 -1.31836 C 58.3008 -1.31836 60.1562 -3.07617 60.1562 -5.37109 C 60.1562 -7.61719 58.3008 -9.42383 56.0547 -9.42383 L 13.8184 -9.42383 C 11.5723 -9.42383 9.76562 -7.61719 9.76562 -5.37109 C 9.76562 -3.07617 11.5723 -1.31836 13.8184 -1.31836 Z"/>
  </g>
  <g id="Medium-S" transform="matrix(1 0 0 1 1696.95 696)">
   <path d="M 13.4766 -61.7188 L 85.6934 -61.7188 C 87.7441 -61.7188 89.4531 -63.3301 89.4531 -65.4297 C 89.4531 -67.4805 87.7441 -69.1406 85.6934 -69.1406 L 13.4766 -69.1406 C 11.4258 -69.1406 9.76562 -67.4805 9.76562 -65.4297 C 9.76562 -63.3301 11.4258 -61.7188 13.4766 -61.7188 Z M 13.4766 -41.6992 L 55.7129 -41.6992 C 57.7637 -41.6992 59.4727 -43.3105 59.4727 -45.4102 C 59.4727 -47.4609 57.7637 -49.1211 55.7129 -49.1211 L 13.4766 -49.1211 C 11.4258 -49.1211 9.76562 -47.4609 9.76562 -45.4102 C 9.76562 -43.3105 11.4258 -41.6992 13.4766 -41.6992 Z M 13.4766 -21.6309 L 85.6934 -21.6309 C 87.7441 -21.6309 89.4531 -23.291 89.4531 -25.3906 C 89.4531 -27.4414 87.7441 -29.1016 85.6934 -29.1016 L 13.4766 -29.1016 C 11.4258 -29.1016 9.76562 -27.4414 9.76562 -25.3906 C 9.76562 -23.291 11.4258 -21.6309 13.4766 -21.6309 Z M 13.4766 -1.61133 L 55.7129 -1.61133 C 57.7637 -1.61133 59.4727 -3.27148 59.4727 -5.37109 C 59.4727 -7.42188 57.7637 -9.08203 55.7129 -9.08203 L 13.4766 -9.08203 C 11.4258 -9.08203 9.76562 -7.42188 9.76562 -5.37109 C 9.76562 -3.27148 11.4258 -1.61133 13.4766 -1.61133 Z"/>
  </g>
  <g id="Regular-S" transform="matrix(1 0 0 1 1401.14 696)">
   <path d="M 13.0371 -62.1582 L 84.2773 -62.1582 C 86.1328 -62.1582 87.6465 -63.5742 87.6465 -65.4297 C 87.6465 -67.2852 86.1328 -68.7012 84.2773 -68.7012 L 13.0371 -68.7012 C 11.2305 -68.7012 9.76562 -67.2852 9.76562 -65.4297 C 9.76562 -63.5742 11.2305 -62.1582 13.0371 -62.1582 Z M 13.0371 -42.0898 L 55.2734 -42.0898 C 57.0801 -42.0898 58.5938 -43.5547 58.5938 -45.4102 C 58.5938 -47.2168 57.0801 -48.6816 55.2734 -48.6816 L 13.0371 -48.6816 C 11.2305 -48.6816 9.76562 -47.2168 9.76562 -45.4102 C 9.76562 -43.5547 11.2305 -42.0898 13.0371 -42.0898 Z M 13.0371 -22.0703 L 84.2773 -22.0703 C 86.1328 -22.0703 87.6465 -23.5352 87.6465 -25.3906 C 87.6465 -27.1973 86.1328 -28.6621 84.2773 -28.6621 L 13.0371 -28.6621 C 11.2305 -28.6621 9.76562 -27.1973 9.76562 -25.3906 C 9.76562 -23.5352 11.2305 -22.0703 13.0371 -22.0703 Z M 13.0371 -2.05078 L 55.2734 -2.05078 C 57.0801 -2.05078 58.5938 -3.51562 58.5938 -5.37109 C 58.5938 -7.17773 57.0801 -8.64258 55.2734 -8.64258 L 13.0371 -8.64258 C 11.2305 -8.64258 9.76562 -7.17773 9.76562 -5.37109 C 9.76562 -3.51562 11.2305 -2.05078 13.0371 -2.05078 Z"/>
  </g>
  <g id="Light-S" transform="matrix(1 0 0 1 1105.16 696)">
   <path d="M 12.3047 -62.8418 L 83.5938 -62.8418 C 85.0098 -62.8418 86.1816 -63.9648 86.1816 -65.4297 C 86.1816 -66.8457 85.0098 -67.9688 83.5938 -67.9688 L 12.3047 -67.9688 C 10.8887 -67.9688 9.76562 -66.8457 9.76562 -65.4297 C 9.76562 -63.9648 10.8887 -62.8418 12.3047 -62.8418 Z M 12.3047 -42.8223 L 56.0059 -42.8223 C 57.4219 -42.8223 58.5938 -43.8965 58.5938 -45.3613 C 58.5938 -46.7773 57.4219 -47.9004 56.0059 -47.9004 L 12.3047 -47.9004 C 10.8887 -47.9004 9.76562 -46.7773 9.76562 -45.3613 C 9.76562 -43.8965 10.8887 -42.8223 12.3047 -42.8223 Z M 12.3047 -22.7539 L 83.5938 -22.7539 C 85.0098 -22.7539 86.1816 -23.877 86.1816 -25.293 C 86.1816 -26.7578 85.0098 -27.8809 83.5938 -27.8809 L 12.3047 -27.8809 C 10.8887 -27.8809 9.76562 -26.7578 9.76562 -25.293 C 9.76562 -23.877 10.8887 -22.7539 12.3047 -22.7539 Z M 12.3047 -2.68555 L 56.0059 -2.68555 C 57.4219 -2.68555 58.5938 -3.80859 58.5938 -5.27344 C 58.5938 -6.68945 57.4219 -7.8125 56.0059 -7.8125 L 12.3047 -7.8125 C 10.8887 -7.8125 9.76562 -6.68945 9.76562 -5.27344 C 9.76562 -3.80859 10.8887 -2.68555 12.3047 -2.68555 Z"/>
  </g>
  <g id="Thin-S" transform="matrix(1 0 0 1 809.425 696)">
   <path d="M 11.377 -63.8184 L 82.6172 -63.8184 C 83.5449 -63.8184 84.2285 -64.4531 84.2285 -65.3809 C 84.2285 -66.3086 83.5449 -66.9922 82.6172 -66.9922 L 11.377 -66.9922 C 10.4492 -66.9922 9.76562 -66.3086 9.76562 -65.3809 C 9.76562 -64.4531 10.4492 -63.8184 11.377 -63.8184 Z M 11.377 -43.7012 L 56.9824 -43.7012 C 57.9102 -43.7012 58.5938 -44.3848 58.5938 -45.3125 C 58.5938 -46.2402 57.9102 -46.875 56.9824 -46.875 L 11.377 -46.875 C 10.4492 -46.875 9.76562 -46.2402 9.76562 -45.3125 C 9.76562 -44.3848 10.4492 -43.7012 11.377 -43.7012 Z M 11.377 -23.6328 L 82.6172 -23.6328 C 83.5449 -23.6328 84.2285 -24.2676 84.2285 -25.1953 C 84.2285 -26.123 83.5449 -26.8066 82.6172 -26.8066 L 11.377 -26.8066 C 10.4492 -26.8066 9.76562 -26.123 9.76562 -25.1953 C 9.76562 -24.2676 10.4492 -23.6328 11.377 -23.6328 Z M 11.377 -3.51562 L 56.9824 -3.51562 C 57.9102 -3.51562 58.5938 -4.19922 58.5938 -5.12695 C 58.5938 -6.05469 57.9102 -6.68945 56.9824 -6.68945 L 11.377 -6.68945 C 10.4492 -6.68945 9.76562 -6.05469 9.76562 -5.12695 C 9.76562 -4.19922 10.4492 -3.51562 11.377 -3.51562 Z"/>
  </g>
  <g id="Ultralight-S" transform="matrix(1 0 0 1 513.202 696)">
   <path d="M 10.8398 -64.3066 L 82.1289 -64.3066 C 82.8125 -64.3066 83.252 -64.7461 83.252 -65.3809 C 83.252 -66.0156 82.8125 -66.4551 82.1289 -66.4551 L 10.8398 -66.4551 C 10.2051 -66.4551 9.76562 -66.0156 9.76562 -65.3809 C 9.76562 -64.7461 10.2051 -64.3066 10.8398 -64.3066 Z M 10.8398 -44.1895 L 57.5195 -44.1895 C 58.1543 -44.1895 58.5938 -44.6289 58.5938 -45.2637 C 58.5938 -45.8984 58.1543 -46.3379 57.5195 -46.3379 L 10.8398 -46.3379 C 10.2051 -46.3379 9.76562 -45.8984 9.76562 -45.2637 C 9.76562 -44.6289 10.2051 -44.1895 10.8398 -44.1895 Z M 10.8398 -24.0723 L 82.1289 -24.0723 C 82.8125 -24.0723 83.252 -24.5117 83.252 -25.1465 C 83.252 -25.7812 82.8125 -26.2695 82.1289 -26.2695 L 10.8398 -26.2695 C 10.2051 -26.2695 9.76562 -25.7812 9.76562 -25.1465 C 9.76562 -24.5117 10.2051 -24.0723 10.8398 -24.0723 Z M 10.8398 -3.95508 L 57.5195 -3.95508 C 58.1543 -3.95508 58.5938 -4.39453 58.5938 -5.0293 C 58.5938 -5.71289 58.1543 -6.15234 57.5195 -6.15234 L 10.8398 -6.15234 C 10.2051 -6.15234 9.76562 -5.71289 9.76562 -5.0293 C 9.76562 -4.39453 10.2051 -3.95508 10.8398 -3.95508 Z"/>
  </g>
 </g>
</svg>
