<?xml version="1.0" encoding="UTF-8"?>
<!--Generator: Apple Native CoreSVG 129-->
<!DOCTYPE svg
PUBLIC "-//W3C//DTD SVG 1.1//EN"
       "http://www.w3.org/Graphics/SVG/1.1/DTD/svg11.dtd">
<svg version="1.1" xmlns="http://www.w3.org/2000/svg" xmlns:xlink="http://www.w3.org/1999/xlink" width="3300" height="2200">
 <!--glyph: "uni100152.medium", point size: 100.000000, font version: "Version 16.0d9e1", template writer version: "8"-->
 <g id="Notes">
  <rect height="2200" id="artboard" style="fill:white;opacity:1" width="3300" x="0" y="0"/>
  <line id="" style="fill:none;stroke:black;opacity:1;stroke-width:0.5;" x1="263" x2="3036" y1="292" y2="292"/>
  <text style="stroke:none;fill:black;font-family:-apple-system,&quot;SF Pro Display&quot;,&quot;SF Pro Text&quot;,Helvetica,sans-serif;font-weight:bold;" transform="matrix(1 0 0 1 263 322)">Weight/Scale Variations</text>
  <text style="stroke:none;fill:black;font-family:-apple-system,&quot;SF Pro Display&quot;,&quot;SF Pro Text&quot;,Helvetica,sans-serif;text-anchor:middle;" transform="matrix(1 0 0 1 559.711 322)">Ultralight</text>
  <text style="stroke:none;fill:black;font-family:-apple-system,&quot;SF Pro Display&quot;,&quot;SF Pro Text&quot;,Helvetica,sans-serif;text-anchor:middle;" transform="matrix(1 0 0 1 856.422 322)">Thin</text>
  <text style="stroke:none;fill:black;font-family:-apple-system,&quot;SF Pro Display&quot;,&quot;SF Pro Text&quot;,Helvetica,sans-serif;text-anchor:middle;" transform="matrix(1 0 0 1 1153.13 322)">Light</text>
  <text style="stroke:none;fill:black;font-family:-apple-system,&quot;SF Pro Display&quot;,&quot;SF Pro Text&quot;,Helvetica,sans-serif;text-anchor:middle;" transform="matrix(1 0 0 1 1449.84 322)">Regular</text>
  <text style="stroke:none;fill:black;font-family:-apple-system,&quot;SF Pro Display&quot;,&quot;SF Pro Text&quot;,Helvetica,sans-serif;text-anchor:middle;" transform="matrix(1 0 0 1 1746.56 322)">Medium</text>
  <text style="stroke:none;fill:black;font-family:-apple-system,&quot;SF Pro Display&quot;,&quot;SF Pro Text&quot;,Helvetica,sans-serif;text-anchor:middle;" transform="matrix(1 0 0 1 2043.27 322)">Semibold</text>
  <text style="stroke:none;fill:black;font-family:-apple-system,&quot;SF Pro Display&quot;,&quot;SF Pro Text&quot;,Helvetica,sans-serif;text-anchor:middle;" transform="matrix(1 0 0 1 2339.98 322)">Bold</text>
  <text style="stroke:none;fill:black;font-family:-apple-system,&quot;SF Pro Display&quot;,&quot;SF Pro Text&quot;,Helvetica,sans-serif;text-anchor:middle;" transform="matrix(1 0 0 1 2636.69 322)">Heavy</text>
  <text style="stroke:none;fill:black;font-family:-apple-system,&quot;SF Pro Display&quot;,&quot;SF Pro Text&quot;,Helvetica,sans-serif;text-anchor:middle;" transform="matrix(1 0 0 1 2933.4 322)">Black</text>
  <line id="" style="fill:none;stroke:black;opacity:1;stroke-width:0.5;" x1="263" x2="3036" y1="1903" y2="1903"/>
  <g id="" transform="matrix(1 0 0 1 263 1933)">
   <path d="M 9.24805 0.830078 C 13.5547 0.830078 17.1387 -2.74414 17.1387 -7.05078 C 17.1387 -11.3574 13.5449 -14.9316 9.23828 -14.9316 C 4.94141 -14.9316 1.36719 -11.3574 1.36719 -7.05078 C 1.36719 -2.74414 4.95117 0.830078 9.24805 0.830078 Z M 9.24805 -0.654297 C 5.70312 -0.654297 2.87109 -3.49609 2.87109 -7.05078 C 2.87109 -10.6055 5.69336 -13.4473 9.23828 -13.4473 C 12.793 -13.4473 15.6348 -10.6055 15.6445 -7.05078 C 15.6543 -3.49609 12.8027 -0.654297 9.24805 -0.654297 Z M 9.22852 -3.62305 C 9.69727 -3.62305 9.9707 -3.93555 9.9707 -4.45312 L 9.9707 -6.31836 L 12.002 -6.31836 C 12.5 -6.31836 12.832 -6.57227 12.832 -7.04102 C 12.832 -7.51953 12.5195 -7.7832 12.002 -7.7832 L 9.9707 -7.7832 L 9.9707 -9.81445 C 9.9707 -10.332 9.69727 -10.6543 9.22852 -10.6543 C 8.75977 -10.6543 8.50586 -10.3125 8.50586 -9.81445 L 8.50586 -7.7832 L 6.49414 -7.7832 C 5.97656 -7.7832 5.64453 -7.51953 5.64453 -7.04102 C 5.64453 -6.57227 5.99609 -6.31836 6.49414 -6.31836 L 8.50586 -6.31836 L 8.50586 -4.45312 C 8.50586 -3.95508 8.75977 -3.62305 9.22852 -3.62305 Z"/>
  </g>
  <g id="" transform="matrix(1 0 0 1 281.506 1933)">
   <path d="M 11.709 2.91016 C 17.1582 2.91016 21.6699 -1.61133 21.6699 -7.05078 C 21.6699 -12.5 17.1484 -17.0117 11.6992 -17.0117 C 6.25977 -17.0117 1.74805 -12.5 1.74805 -7.05078 C 1.74805 -1.61133 6.26953 2.91016 11.709 2.91016 Z M 11.709 1.25 C 7.09961 1.25 3.41797 -2.44141 3.41797 -7.05078 C 3.41797 -11.6602 7.08984 -15.3516 11.6992 -15.3516 C 16.3086 -15.3516 20 -11.6602 20.0098 -7.05078 C 20.0195 -2.44141 16.3184 1.25 11.709 1.25 Z M 11.6797 -2.66602 C 12.207 -2.66602 12.5098 -3.01758 12.5098 -3.59375 L 12.5098 -6.23047 L 15.3223 -6.23047 C 15.8691 -6.23047 16.25 -6.51367 16.25 -7.03125 C 16.25 -7.55859 15.8887 -7.86133 15.3223 -7.86133 L 12.5098 -7.86133 L 12.5098 -10.6836 C 12.5098 -11.25 12.207 -11.6113 11.6797 -11.6113 C 11.1621 -11.6113 10.8789 -11.2305 10.8789 -10.6836 L 10.8789 -7.86133 L 8.07617 -7.86133 C 7.50977 -7.86133 7.13867 -7.55859 7.13867 -7.03125 C 7.13867 -6.51367 7.5293 -6.23047 8.07617 -6.23047 L 10.8789 -6.23047 L 10.8789 -3.59375 C 10.8789 -3.03711 11.1621 -2.66602 11.6797 -2.66602 Z"/>
  </g>
  <g id="" transform="matrix(1 0 0 1 304.924 1933)">
   <path d="M 14.9707 5.66406 C 21.9336 5.66406 27.6953 -0.0976562 27.6953 -7.05078 C 27.6953 -14.0137 21.9238 -19.7754 14.9609 -19.7754 C 8.00781 -19.7754 2.25586 -14.0137 2.25586 -7.05078 C 2.25586 -0.0976562 8.01758 5.66406 14.9707 5.66406 Z M 14.9707 3.84766 C 8.93555 3.84766 4.08203 -1.01562 4.08203 -7.05078 C 4.08203 -13.0957 8.92578 -17.9492 14.9609 -17.9492 C 21.0059 -17.9492 25.8594 -13.0957 25.8691 -7.05078 C 25.8789 -1.01562 21.0156 3.84766 14.9707 3.84766 Z M 14.9414 -1.38672 C 15.5176 -1.38672 15.8594 -1.77734 15.8594 -2.38281 L 15.8594 -6.13281 L 19.7754 -6.13281 C 20.3711 -6.13281 20.7812 -6.46484 20.7812 -7.02148 C 20.7812 -7.59766 20.3906 -7.93945 19.7754 -7.93945 L 15.8594 -7.93945 L 15.8594 -11.8652 C 15.8594 -12.4805 15.5176 -12.8711 14.9414 -12.8711 C 14.375 -12.8711 14.0527 -12.4609 14.0527 -11.8652 L 14.0527 -7.93945 L 10.1465 -7.93945 C 9.53125 -7.93945 9.13086 -7.59766 9.13086 -7.02148 C 9.13086 -6.46484 9.55078 -6.13281 10.1465 -6.13281 L 14.0527 -6.13281 L 14.0527 -2.38281 C 14.0527 -1.79688 14.375 -1.38672 14.9414 -1.38672 Z"/>
  </g>
  <text style="stroke:none;fill:black;font-family:-apple-system,&quot;SF Pro Display&quot;,&quot;SF Pro Text&quot;,Helvetica,sans-serif;font-weight:bold;" transform="matrix(1 0 0 1 263 1953)">Design Variations</text>
  <text style="stroke:none;fill:black;font-family:-apple-system,&quot;SF Pro Display&quot;,&quot;SF Pro Text&quot;,Helvetica,sans-serif;" transform="matrix(1 0 0 1 263 1971)">Symbols are supported in up to nine weights and three scales.</text>
  <text style="stroke:none;fill:black;font-family:-apple-system,&quot;SF Pro Display&quot;,&quot;SF Pro Text&quot;,Helvetica,sans-serif;" transform="matrix(1 0 0 1 263 1989)">For optimal layout with text and other symbols, vertically align</text>
  <text style="stroke:none;fill:black;font-family:-apple-system,&quot;SF Pro Display&quot;,&quot;SF Pro Text&quot;,Helvetica,sans-serif;" transform="matrix(1 0 0 1 263 2007)">symbols with the adjacent text.</text>
  <line id="" style="fill:none;stroke:#00AEEF;stroke-width:0.5;opacity:1.0;" x1="776" x2="776" y1="1919" y2="1933"/>
  <g id="" transform="matrix(1 0 0 1 776 1933)">
   <path d="M 3.31055 0.126953 C 3.82812 0.126953 4.08203 -0.0683594 4.26758 -0.605469 L 5.52734 -4.0625 L 11.2891 -4.0625 L 12.5488 -0.605469 C 12.7344 -0.0683594 12.9883 0.126953 13.4961 0.126953 C 14.0137 0.126953 14.3457 -0.185547 14.3457 -0.673828 C 14.3457 -0.839844 14.3164 -0.986328 14.2383 -1.20117 L 9.6582 -13.3887 C 9.43359 -13.9941 9.0332 -14.2871 8.4082 -14.2871 C 7.80273 -14.2871 7.39258 -13.9941 7.17773 -13.3984 L 2.59766 -1.19141 C 2.51953 -0.976562 2.49023 -0.830078 2.49023 -0.664062 C 2.49023 -0.175781 2.80273 0.126953 3.31055 0.126953 Z M 6.00586 -5.53711 L 8.37891 -12.1094 L 8.42773 -12.1094 L 10.8008 -5.53711 Z"/>
  </g>
  <line id="" style="fill:none;stroke:#00AEEF;stroke-width:0.5;opacity:1.0;" x1="792.836" x2="792.836" y1="1919" y2="1933"/>
  <text style="stroke:none;fill:black;font-family:-apple-system,&quot;SF Pro Display&quot;,&quot;SF Pro Text&quot;,Helvetica,sans-serif;font-weight:bold;" transform="matrix(1 0 0 1 776 1953)">Margins</text>
  <text style="stroke:none;fill:black;font-family:-apple-system,&quot;SF Pro Display&quot;,&quot;SF Pro Text&quot;,Helvetica,sans-serif;" transform="matrix(1 0 0 1 776 1971)">Leading and trailing margins on the left and right side of each symbol</text>
  <text style="stroke:none;fill:black;font-family:-apple-system,&quot;SF Pro Display&quot;,&quot;SF Pro Text&quot;,Helvetica,sans-serif;" transform="matrix(1 0 0 1 776 1989)">can be adjusted by modifying the x-location of the margin guidelines.</text>
  <text style="stroke:none;fill:black;font-family:-apple-system,&quot;SF Pro Display&quot;,&quot;SF Pro Text&quot;,Helvetica,sans-serif;" transform="matrix(1 0 0 1 776 2007)">Modifications are automatically applied proportionally to all</text>
  <text style="stroke:none;fill:black;font-family:-apple-system,&quot;SF Pro Display&quot;,&quot;SF Pro Text&quot;,Helvetica,sans-serif;" transform="matrix(1 0 0 1 776 2025)">scales and weights.</text>
  <g id="" transform="matrix(1 0 0 1 1289 1933)">
   <path d="M 2.8418 1.86523 L 4.54102 3.57422 C 5.40039 4.44336 6.38672 4.38477 7.31445 3.35938 L 17.4902 -7.85156 C 17.7539 -7.76367 18.0273 -7.7832 18.3398 -7.8418 L 19.4043 -8.03711 L 20.0684 -7.36328 L 20.0293 -6.80664 C 19.9902 -6.30859 20.1172 -5.92773 20.6055 -5.44922 L 21.3672 -4.70703 C 21.8457 -4.22852 22.4609 -4.19922 22.9297 -4.66797 L 25.8398 -7.58789 C 26.3086 -8.05664 26.2891 -8.65234 25.8105 -9.13086 L 25.0391 -9.89258 C 24.5605 -10.3711 24.1895 -10.5273 23.7109 -10.4883 L 23.1348 -10.4395 L 22.4902 -11.0742 L 22.7344 -12.1973 C 22.8613 -12.7637 22.7051 -13.2031 22.1191 -13.7891 L 19.9219 -15.9766 C 16.582 -19.2969 12.1484 -19.2188 9.25781 -16.3281 C 8.83789 -15.918 8.80859 -15.3418 9.04297 -14.9512 C 9.27734 -14.5898 9.73633 -14.3555 10.3809 -14.5215 C 11.8457 -14.8633 13.3691 -14.9219 14.7949 -13.9844 L 14.209 -12.5293 C 14.0137 -12.0508 13.9844 -11.6504 14.1113 -11.2891 L 3.04688 -0.898438 C 2.06055 0.0195312 1.98242 0.996094 2.8418 1.86523 Z M 10.752 -15.957 C 13.1836 -17.7344 16.4746 -17.4316 18.7012 -15.2051 L 21.1328 -12.793 C 21.3672 -12.5586 21.4062 -12.373 21.3379 -12.0312 L 21.0156 -10.5469 L 22.5195 -9.0625 L 23.5059 -9.12109 C 23.7598 -9.13086 23.8379 -9.11133 24.0332 -8.91602 L 24.6094 -8.33984 L 22.168 -5.89844 L 21.5918 -6.47461 C 21.3965 -6.66992 21.3672 -6.74805 21.377 -7.01172 L 21.4453 -7.98828 L 19.9512 -9.47266 L 18.4277 -9.21875 C 18.1055 -9.15039 17.959 -9.17969 17.7148 -9.41406 L 15.7129 -11.416 C 15.459 -11.6504 15.4297 -11.8164 15.5859 -12.1875 L 16.4648 -14.2773 C 14.9023 -15.7324 12.8711 -16.3574 10.8398 -15.7617 C 10.6836 -15.7227 10.625 -15.8496 10.752 -15.957 Z M 5.27344 2.30469 L 4.10156 1.14258 C 3.63281 0.683594 3.74023 0.341797 4.14062 -0.0195312 L 14.9512 -10.1953 L 16.416 -8.71094 L 6.42578 2.27539 C 6.07422 2.67578 5.74219 2.77344 5.27344 2.30469 Z"/>
  </g>
  <text style="stroke:none;fill:black;font-family:-apple-system,&quot;SF Pro Display&quot;,&quot;SF Pro Text&quot;,Helvetica,sans-serif;font-weight:bold;" transform="matrix(1 0 0 1 1289 1953)">Exporting</text>
  <text style="stroke:none;fill:black;font-family:-apple-system,&quot;SF Pro Display&quot;,&quot;SF Pro Text&quot;,Helvetica,sans-serif;" transform="matrix(1 0 0 1 1289 1971)">Symbols should be outlined when exporting to ensure the</text>
  <text style="stroke:none;fill:black;font-family:-apple-system,&quot;SF Pro Display&quot;,&quot;SF Pro Text&quot;,Helvetica,sans-serif;" transform="matrix(1 0 0 1 1289 1989)">design is preserved when submitting to Xcode.</text>
  <text id="template-version" style="stroke:none;fill:black;font-family:-apple-system,&quot;SF Pro Display&quot;,&quot;SF Pro Text&quot;,Helvetica,sans-serif;text-anchor:end;" transform="matrix(1 0 0 1 3036 1933)">Template v.2.0</text>
  <text style="stroke:none;fill:black;font-family:-apple-system,&quot;SF Pro Display&quot;,&quot;SF Pro Text&quot;,Helvetica,sans-serif;text-anchor:end;" transform="matrix(1 0 0 1 3036 1951)">Requires Xcode 12 or greater</text>
  <text style="stroke:none;fill:black;font-family:-apple-system,&quot;SF Pro Display&quot;,&quot;SF Pro Text&quot;,Helvetica,sans-serif;text-anchor:end;" transform="matrix(1 0 0 1 3036 1969)">Generated from textformat</text>
  <text style="stroke:none;fill:black;font-family:-apple-system,&quot;SF Pro Display&quot;,&quot;SF Pro Text&quot;,Helvetica,sans-serif;text-anchor:end;" transform="matrix(1 0 0 1 3036 1987)">Typeset at 100 points</text>
  <text style="stroke:none;fill:black;font-family:-apple-system,&quot;SF Pro Display&quot;,&quot;SF Pro Text&quot;,Helvetica,sans-serif;" transform="matrix(1 0 0 1 263 726)">Small</text>
  <text style="stroke:none;fill:black;font-family:-apple-system,&quot;SF Pro Display&quot;,&quot;SF Pro Text&quot;,Helvetica,sans-serif;" transform="matrix(1 0 0 1 263 1156)">Medium</text>
  <text style="stroke:none;fill:black;font-family:-apple-system,&quot;SF Pro Display&quot;,&quot;SF Pro Text&quot;,Helvetica,sans-serif;" transform="matrix(1 0 0 1 263 1586)">Large</text>
 </g>
 <g id="Guides">
  <g id="H-reference" style="fill:#27AAE1;stroke:none;" transform="matrix(1 0 0 1 339 696)">
   <path d="M 0.976562 0 L 3.66211 0 L 12.9883 -24.4629 L 45.7031 -24.4629 L 55.0781 0 L 57.7148 0 L 30.6152 -70.459 L 28.125 -70.459 Z M 29.2969 -67.1387 L 29.3945 -67.1387 L 44.873 -26.709 L 13.8672 -26.709 Z"/>
  </g>
  <line id="Baseline-S" style="fill:none;stroke:#27AAE1;opacity:1;stroke-width:0.5;" x1="263" x2="3036" y1="696" y2="696"/>
  <line id="Capline-S" style="fill:none;stroke:#27AAE1;opacity:1;stroke-width:0.5;" x1="263" x2="3036" y1="625.541" y2="625.541"/>
  <g id="H-reference" style="fill:#27AAE1;stroke:none;" transform="matrix(1 0 0 1 339 1126)">
   <path d="M 0.976562 0 L 3.66211 0 L 12.9883 -24.4629 L 45.7031 -24.4629 L 55.0781 0 L 57.7148 0 L 30.6152 -70.459 L 28.125 -70.459 Z M 29.2969 -67.1387 L 29.3945 -67.1387 L 44.873 -26.709 L 13.8672 -26.709 Z"/>
  </g>
  <line id="Baseline-M" style="fill:none;stroke:#27AAE1;opacity:1;stroke-width:0.5;" x1="263" x2="3036" y1="1126" y2="1126"/>
  <line id="Capline-M" style="fill:none;stroke:#27AAE1;opacity:1;stroke-width:0.5;" x1="263" x2="3036" y1="1055.54" y2="1055.54"/>
  <g id="H-reference" style="fill:#27AAE1;stroke:none;" transform="matrix(1 0 0 1 339 1556)">
   <path d="M 0.976562 0 L 3.66211 0 L 12.9883 -24.4629 L 45.7031 -24.4629 L 55.0781 0 L 57.7148 0 L 30.6152 -70.459 L 28.125 -70.459 Z M 29.2969 -67.1387 L 29.3945 -67.1387 L 44.873 -26.709 L 13.8672 -26.709 Z"/>
  </g>
  <line id="Baseline-L" style="fill:none;stroke:#27AAE1;opacity:1;stroke-width:0.5;" x1="263" x2="3036" y1="1556" y2="1556"/>
  <line id="Capline-L" style="fill:none;stroke:#27AAE1;opacity:1;stroke-width:0.5;" x1="263" x2="3036" y1="1485.54" y2="1485.54"/>
  <line id="left-margin" style="fill:none;stroke:#00AEEF;stroke-width:0.5;opacity:1.0;" x1="1381.44" x2="1381.44" y1="1030.79" y2="1150.12"/>
  <line id="right-margin" style="fill:none;stroke:#00AEEF;stroke-width:0.5;opacity:1.0;" x1="1518.25" x2="1518.25" y1="1030.79" y2="1150.12"/>
 </g>
 <g id="Symbols">
  <g id="Black-L" transform="matrix(1 0 0 1 2833.5 1556)">
   <path d="M 28.9551 14.502 C 36.4258 14.502 40.5273 11.1816 42.4805 3.36914 L 45.5078 -6.68945 L 77.0996 -6.68945 L 80.127 3.36914 C 82.0801 11.1816 86.1816 14.502 93.6523 14.502 C 101.855 14.502 107.178 9.57031 107.178 2.05078 C 107.178 -0.976562 106.738 -3.36914 105.713 -6.39648 L 83.7891 -69.6777 C 80.2246 -80.0293 73.1934 -84.9121 61.5234 -84.9121 C 50.5371 -84.9121 43.6035 -79.9805 40.0391 -69.7266 L 17.4316 -5.22461 C 16.5527 -2.49023 16.0645 0.0976562 16.0645 2.44141 C 16.0645 9.91211 20.9961 14.502 28.9551 14.502 Z M 51.0254 -26.0254 L 61.377 -61.4258 L 61.8652 -61.4258 L 72.2168 -26.0254 Z M 141.016 14.7461 C 149.805 14.7461 158.252 10.3516 162.256 2.7832 L 162.646 2.7832 L 162.646 5.51758 C 163.135 11.6211 167.041 14.7461 173.145 14.7461 C 179.59 14.7461 183.74 11.1816 183.74 4.15039 L 183.74 -35.6934 C 183.74 -50.0977 171.533 -59.8145 152.344 -59.8145 C 136.572 -59.8145 124.902 -54.4434 121.582 -45.7031 C 120.996 -44.1895 120.703 -42.9199 120.703 -41.3574 C 120.703 -36.7188 124.17 -33.3984 129.688 -33.3984 C 133.398 -33.3984 136.182 -34.7656 138.525 -37.3535 C 142.92 -42.6758 146.24 -44.4336 151.367 -44.4336 C 157.91 -44.4336 162.402 -40.7715 162.402 -34.375 L 162.402 -29.9316 L 145.215 -28.9551 C 126.611 -27.9297 116.455 -20.2637 116.455 -7.08008 C 116.455 5.9082 126.904 14.7461 141.016 14.7461 Z M 147.949 -0.0976562 C 142.188 -0.0976562 138.086 -3.27148 138.086 -8.34961 C 138.086 -13.1348 141.992 -16.3574 148.389 -16.748 L 162.402 -17.6758 L 162.402 -12.5488 C 162.402 -5.27344 156.055 -0.0976562 147.949 -0.0976562 Z"/>
  </g>
  <g id="Heavy-L" transform="matrix(1 0 0 1 2539.69 1556)">
   <path d="M 27.002 13.6719 C 33.3008 13.6719 36.8164 10.8398 38.5254 4.19922 L 42.9688 -9.17969 L 76.1719 -9.17969 L 80.6152 4.19922 C 82.373 10.8398 85.8398 13.6719 92.1875 13.6719 C 99.0723 13.6719 103.564 9.47266 103.564 3.125 C 103.564 0.585938 103.223 -1.46484 102.344 -4.05273 L 78.3203 -71.4844 C 75.3418 -80.127 69.4824 -84.2773 59.7656 -84.2773 C 50.5859 -84.2773 44.7754 -80.127 41.748 -71.4844 L 17.2852 -3.125 C 16.4551 -0.78125 16.0645 1.41602 16.0645 3.41797 C 16.0645 9.7168 20.2148 13.6719 27.002 13.6719 Z M 47.8027 -25.8789 L 59.5703 -63.4277 L 60.0586 -63.4277 L 71.8262 -25.8789 Z M 137.598 13.916 C 146.777 13.916 155.469 9.27734 159.375 1.46484 L 159.717 1.46484 L 159.717 5.85938 C 160.107 11.1328 163.525 13.9648 168.799 13.9648 C 174.316 13.9648 177.93 10.8398 177.93 4.73633 L 177.93 -35.7422 C 177.93 -50.0488 166.26 -59.5703 147.9 -59.5703 C 132.959 -59.5703 121.777 -54.1504 118.457 -45.459 C 117.822 -43.9941 117.529 -42.627 117.529 -41.1621 C 117.529 -37.0117 120.557 -34.1797 125.293 -34.1797 C 128.564 -34.1797 130.957 -35.3516 132.959 -37.6953 C 137.109 -43.6523 141.016 -45.9473 147.119 -45.9473 C 154.59 -45.9473 159.473 -41.748 159.473 -34.5703 L 159.473 -29.8828 L 141.309 -28.8086 C 123.34 -27.832 113.525 -20.2637 113.525 -7.42188 C 113.525 5.32227 123.73 13.916 137.598 13.916 Z M 143.408 0.830078 C 136.865 0.830078 132.227 -2.7832 132.227 -8.44727 C 132.227 -13.8184 136.572 -17.3828 143.994 -17.8711 L 159.473 -18.8965 L 159.473 -13.1836 C 159.473 -5.12695 152.393 0.830078 143.408 0.830078 Z"/>
  </g>
  <g id="Bold-L" transform="matrix(1 0 0 1 2246.23 1556)">
   <path d="M 24.7559 12.6953 C 29.8828 12.6953 32.6172 10.498 34.1309 5.12695 L 40.1367 -12.0117 L 75.1465 -12.0117 L 81.1523 5.12695 C 82.666 10.498 85.4004 12.6953 90.5273 12.6953 C 95.9961 12.6953 99.5605 9.375 99.5605 4.29688 C 99.5605 2.29492 99.2676 0.683594 98.584 -1.41602 L 72.2656 -73.4375 C 69.873 -80.2246 65.2832 -83.4961 57.7637 -83.4961 C 50.5859 -83.4961 46.0449 -80.2246 43.7012 -73.4863 L 17.041 -0.78125 C 16.4062 1.17188 16.0645 2.88086 16.0645 4.49219 C 16.0645 9.57031 19.3848 12.6953 24.7559 12.6953 Z M 44.1895 -25.7812 L 57.5684 -65.6738 L 58.0078 -65.6738 L 71.3379 -25.7812 Z M 133.838 13.0371 C 143.359 13.0371 152.295 8.05664 156.201 0 L 156.494 0 L 156.494 6.25 C 156.689 10.6445 159.57 13.0859 163.916 13.0859 C 168.408 13.0859 171.436 10.4492 171.436 5.46875 L 171.436 -35.8398 C 171.436 -49.9512 160.352 -59.2773 142.92 -59.2773 C 128.955 -59.2773 118.311 -53.8574 114.893 -45.2148 C 114.258 -43.7012 113.916 -42.334 113.916 -40.918 C 113.916 -37.4023 116.504 -35.0098 120.41 -35.0098 C 123.145 -35.0098 125.195 -36.0352 126.758 -38.0859 C 130.566 -44.7266 135.205 -47.6562 142.285 -47.6562 C 150.83 -47.6562 156.201 -42.7734 156.201 -34.8145 L 156.201 -29.7852 L 136.963 -28.6621 C 119.678 -27.6855 110.254 -20.2148 110.254 -7.8125 C 110.254 4.63867 120.117 13.0371 133.838 13.0371 Z M 138.33 1.85547 C 130.908 1.85547 125.684 -2.24609 125.684 -8.54492 C 125.684 -14.5508 130.469 -18.5547 139.111 -19.0918 L 156.201 -20.2637 L 156.201 -13.8672 C 156.201 -4.93164 148.242 1.85547 138.33 1.85547 Z"/>
  </g>
  <g id="Semibold-L" transform="matrix(1 0 0 1 1951.76 1556)">
   <path d="M 23.2422 12.0605 C 27.4902 12.0605 29.7363 10.2539 31.1035 5.76172 L 38.1836 -13.9648 L 74.4141 -13.9648 L 81.543 5.76172 C 82.8613 10.2539 85.1074 12.0605 89.3555 12.0605 C 93.8965 12.0605 96.8262 9.32617 96.8262 5.07812 C 96.8262 3.51562 96.582 2.14844 95.9473 0.439453 L 68.0664 -74.8535 C 66.1133 -80.3223 62.4023 -83.0078 56.3965 -83.0078 C 50.6348 -83.0078 46.9238 -80.3223 45.0195 -74.8535 L 16.8945 0.830078 C 16.3574 2.49023 16.0645 3.85742 16.0645 5.22461 C 16.0645 9.47266 18.7988 12.0605 23.2422 12.0605 Z M 41.748 -25.6836 L 56.2012 -67.2363 L 56.5918 -67.2363 L 71.0449 -25.6836 Z M 131.201 12.4512 C 141.016 12.4512 150.146 7.22656 153.955 -0.976562 L 154.248 -0.976562 L 154.248 6.49414 C 154.395 10.2539 156.885 12.5 160.547 12.5 C 164.355 12.5 166.943 10.1562 166.943 5.9082 L 166.943 -35.8398 C 166.943 -49.9023 156.299 -59.0332 139.453 -59.0332 C 126.172 -59.0332 115.918 -53.6621 112.451 -45.0195 C 111.816 -43.5547 111.426 -42.0898 111.426 -40.7715 C 111.426 -37.6465 113.721 -35.5469 117.041 -35.5469 C 119.434 -35.5469 121.191 -36.4746 122.51 -38.3789 C 126.074 -45.5078 131.152 -48.8281 139.014 -48.8281 C 148.242 -48.8281 153.955 -43.5059 153.955 -34.9609 L 153.955 -29.7363 L 133.936 -28.5645 C 117.139 -27.5879 108.008 -20.166 108.008 -8.05664 C 108.008 4.19922 117.627 12.4512 131.201 12.4512 Z M 134.814 2.58789 C 126.807 2.58789 121.191 -1.9043 121.191 -8.64258 C 121.191 -15.0391 126.318 -19.3359 135.742 -19.9707 L 153.955 -21.1914 L 153.955 -14.3555 C 153.955 -4.83398 145.41 2.58789 134.814 2.58789 Z"/>
  </g>
  <g id="Medium-L" transform="matrix(1 0 0 1 1656.76 1556)">
   <path d="M 22.0703 11.5234 C 25.6836 11.5234 27.5879 10.0586 28.8086 6.25 L 36.7188 -15.4785 L 73.877 -15.4785 L 81.7871 6.25 C 83.0078 10.0586 84.9121 11.5234 88.5254 11.5234 C 92.2852 11.5234 94.7266 9.27734 94.7266 5.71289 C 94.7266 4.39453 94.4824 3.27148 93.9941 1.80664 L 64.8438 -75.8789 C 63.2324 -80.3711 60.2051 -82.6172 55.3711 -82.6172 C 50.6348 -82.6172 47.6074 -80.3711 46.0449 -75.9277 L 16.7969 2.05078 C 16.3086 3.4668 16.0645 4.63867 16.0645 5.81055 C 16.0645 9.375 18.3594 11.5234 22.0703 11.5234 Z M 39.8438 -25.5859 L 55.127 -68.457 L 55.5176 -68.457 L 70.8008 -25.5859 Z M 129.248 11.9629 C 139.258 11.9629 148.486 6.5918 152.295 -1.75781 L 152.539 -1.75781 L 152.539 6.68945 C 152.588 10.0098 154.785 12.0117 158.008 12.0117 C 161.279 12.0117 163.525 9.91211 163.525 6.29883 L 163.525 -35.8887 C 163.525 -49.8535 153.223 -58.8867 136.865 -58.8867 C 124.072 -58.8867 114.062 -53.5156 110.596 -44.873 C 109.961 -43.4082 109.57 -41.9434 109.57 -40.625 C 109.57 -37.8418 111.621 -35.9863 114.502 -35.9863 C 116.602 -35.9863 118.164 -36.8164 119.238 -38.5742 C 122.656 -46.0449 128.125 -49.707 136.475 -49.707 C 146.289 -49.707 152.246 -44.043 152.246 -35.0586 L 152.246 -29.6875 L 131.689 -28.4668 C 115.234 -27.5391 106.299 -20.166 106.299 -8.25195 C 106.299 3.85742 115.771 11.9629 129.248 11.9629 Z M 132.178 3.125 C 123.682 3.125 117.773 -1.61133 117.773 -8.69141 C 117.773 -15.4297 123.145 -19.9219 133.203 -20.6055 L 152.246 -21.9238 L 152.246 -14.6973 C 152.246 -4.73633 143.262 3.125 132.178 3.125 Z"/>
  </g>
  <g id="Regular-L" transform="matrix(1 0 0 1 1362.27 1556)">
   <path d="M 20.6055 10.8887 C 23.3398 10.8887 24.7559 9.81445 25.7812 6.83594 L 34.7656 -17.3828 L 73.1934 -17.3828 L 82.1777 6.83594 C 83.2031 9.81445 84.6191 10.8887 87.3535 10.8887 C 90.1855 10.8887 91.9922 9.17969 91.9922 6.49414 C 91.9922 5.56641 91.7969 4.73633 91.4062 3.61328 L 60.7422 -77.2461 C 59.5215 -80.4688 57.373 -82.0801 54.0039 -82.0801 C 50.6836 -82.0801 48.4863 -80.4688 47.3633 -77.2949 L 16.6504 3.66211 C 16.2598 4.78516 16.0645 5.61523 16.0645 6.54297 C 16.0645 9.22852 17.7734 10.8887 20.6055 10.8887 Z M 37.4023 -25.4883 L 53.8086 -69.9707 L 54.1504 -69.9707 L 70.5078 -25.4883 Z M 126.66 11.377 C 136.914 11.377 146.338 5.76172 150.098 -2.7832 L 150.293 -2.7832 L 150.293 6.93359 C 150.293 9.66797 152.1 11.4258 154.688 11.4258 C 157.275 11.4258 159.082 9.66797 159.082 6.73828 L 159.082 -35.9375 C 159.082 -49.8047 149.219 -58.6914 133.447 -58.6914 C 121.289 -58.6914 111.719 -53.3203 108.154 -44.7266 C 107.568 -43.2129 107.08 -41.748 107.08 -40.4785 C 107.08 -38.1348 108.887 -36.5723 111.182 -36.5723 C 112.939 -36.5723 114.209 -37.2559 114.99 -38.8672 C 118.213 -46.7773 124.121 -50.8789 133.203 -50.8789 C 143.75 -50.8789 150 -44.7754 150 -35.2051 L 150 -29.6387 L 128.711 -28.3691 C 112.744 -27.4414 104.053 -20.166 104.053 -8.49609 C 104.053 3.36914 113.33 11.377 126.66 11.377 Z M 128.711 3.80859 C 119.629 3.80859 113.33 -1.26953 113.33 -8.74023 C 113.33 -15.918 118.994 -20.752 129.883 -21.4844 L 150 -22.8516 L 150 -15.1855 C 150 -4.58984 140.479 3.80859 128.711 3.80859 Z"/>
  </g>
  <g id="Light-L" transform="matrix(1 0 0 1 1066.51 1556)">
   <path d="M 19.4824 10.6445 C 21.5332 10.6445 22.5586 9.81445 23.3887 7.61719 L 33.5449 -19.2871 L 73.6816 -19.2871 L 83.8379 7.61719 C 84.668 9.81445 85.6934 10.6445 87.7441 10.6445 C 89.8438 10.6445 91.2598 9.375 91.2598 7.32422 C 91.2598 6.64062 91.1133 5.95703 90.7715 5.07812 L 58.5938 -78.6621 C 57.7148 -80.957 56.1523 -82.2266 53.6621 -82.2266 C 51.1719 -82.2266 49.5605 -81.0059 48.7305 -78.6621 L 16.5039 5.12695 C 16.2109 6.00586 16.0645 6.68945 16.0645 7.37305 C 16.0645 9.42383 17.3828 10.6445 19.4824 10.6445 Z M 35.6445 -25.4883 L 53.4668 -72.8027 L 53.7598 -72.8027 L 71.582 -25.4883 Z M 125.83 10.9375 C 136.816 10.9375 146.729 4.93164 150.293 -4.10156 L 150.439 -4.10156 L 150.439 7.51953 C 150.439 9.61914 151.807 10.9863 153.76 10.9863 C 155.762 10.9863 157.178 9.61914 157.178 7.37305 L 157.178 -36.1328 C 157.178 -50.1953 147.656 -59.1309 132.129 -59.1309 C 119.678 -59.1309 110.352 -53.5156 106.982 -44.3359 C 106.494 -42.9199 106.055 -41.4062 106.055 -40.2832 C 106.055 -38.4766 107.422 -37.3047 109.18 -37.3047 C 110.645 -37.3047 111.621 -37.9395 112.207 -39.2578 C 115.039 -48.0957 121.68 -53.125 131.982 -53.125 C 143.457 -53.125 150.244 -46.1914 150.244 -35.6445 L 150.244 -29.7852 L 127.637 -28.3203 C 111.67 -27.3438 103.223 -20.166 103.223 -8.64258 C 103.223 3.02734 112.549 10.9375 125.83 10.9375 Z M 127.148 5.07812 C 117.334 5.07812 110.254 -0.585938 110.254 -8.88672 C 110.254 -16.748 116.406 -21.9727 128.564 -22.8516 L 150.244 -24.4629 L 150.244 -15.4297 C 150.244 -4.15039 139.844 5.07812 127.148 5.07812 Z"/>
  </g>
  <g id="Thin-L" transform="matrix(1 0 0 1 771.071 1556)">
   <path d="M 18.0664 10.3516 C 19.1895 10.3516 19.7266 9.86328 20.2148 8.59375 L 31.9336 -21.8262 L 74.3652 -21.8262 L 86.084 8.59375 C 86.5723 9.86328 87.1094 10.3516 88.2324 10.3516 C 89.4531 10.3516 90.2344 9.61914 90.2344 8.44727 C 90.2344 8.00781 90.1367 7.56836 89.9414 7.08008 L 55.7617 -80.5176 C 55.3223 -81.6406 54.541 -82.4219 53.1738 -82.4219 C 51.8555 -82.4219 50.9766 -81.7383 50.5371 -80.5176 L 16.3574 7.08008 C 16.1621 7.56836 16.0645 8.05664 16.0645 8.44727 C 16.0645 9.61914 16.8457 10.3516 18.0664 10.3516 Z M 33.252 -25.4883 L 53.0273 -76.5137 L 53.2715 -76.5137 L 72.998 -25.4883 Z M 124.707 10.4004 C 136.67 10.4004 147.266 3.80859 150.537 -5.85938 L 150.635 -5.85938 L 150.635 8.30078 C 150.635 9.61914 151.416 10.4004 152.588 10.4004 C 153.809 10.4004 154.639 9.61914 154.639 8.25195 L 154.639 -36.4258 C 154.639 -50.6836 145.557 -59.7168 130.42 -59.7168 C 117.48 -59.7168 108.594 -53.7598 105.42 -43.7988 C 105.078 -42.4805 104.639 -41.0156 104.639 -39.9902 C 104.639 -38.916 105.518 -38.2324 106.592 -38.2324 C 107.666 -38.2324 108.252 -38.8184 108.496 -39.7949 C 110.791 -49.8535 118.408 -56.0547 130.322 -56.0547 C 143.066 -56.0547 150.586 -48.0469 150.586 -36.1816 L 150.586 -29.9805 L 126.221 -28.2715 C 110.303 -27.1973 102.148 -20.166 102.148 -8.78906 C 102.148 2.58789 111.475 10.4004 124.707 10.4004 Z M 125.098 6.73828 C 114.258 6.73828 106.25 0.292969 106.25 -9.0332 C 106.25 -17.7734 112.988 -23.6328 126.855 -24.707 L 150.586 -26.5625 L 150.586 -15.7227 C 150.586 -3.56445 139.014 6.73828 125.098 6.73828 Z"/>
  </g>
  <g id="Ultralight-L" transform="matrix(1 0 0 1 474.994 1556)">
   <path d="M 17.334 10.1562 C 17.9688 10.1562 18.2617 9.86328 18.5547 9.13086 L 31.1035 -23.0957 L 74.707 -23.0957 L 87.207 9.13086 C 87.5488 9.86328 87.8418 10.1562 88.4766 10.1562 C 89.209 10.1562 89.7461 9.76562 89.7461 8.98438 C 89.7461 8.74023 89.6484 8.39844 89.502 8.10547 L 54.2969 -81.4941 C 54.0527 -81.9824 53.7109 -82.5195 52.9297 -82.5195 C 52.1973 -82.5195 51.709 -82.0801 51.5137 -81.4941 L 16.2598 8.05664 C 16.1133 8.39844 16.0645 8.74023 16.0645 8.98438 C 16.0645 9.7168 16.5527 10.1562 17.334 10.1562 Z M 32.0312 -25.4395 L 52.7832 -78.418 L 53.0273 -78.418 L 73.7793 -25.4395 Z M 124.121 10.1074 C 136.572 10.1074 147.51 3.22266 150.684 -6.73828 L 150.732 -6.73828 L 150.732 8.64258 C 150.732 9.61914 151.221 10.1074 152.002 10.1074 C 152.783 10.1074 153.369 9.61914 153.369 8.69141 L 153.369 -36.5234 C 153.369 -50.9277 144.434 -60.0098 129.492 -60.0098 C 116.357 -60.0098 107.715 -53.9062 104.639 -43.5059 C 104.346 -42.2363 103.955 -40.8203 103.955 -39.8438 C 103.955 -39.1602 104.541 -38.7207 105.225 -38.7207 C 106.104 -38.7207 106.494 -39.2578 106.592 -40.0879 C 108.643 -50.7324 116.748 -57.5684 129.443 -57.5684 C 142.871 -57.5684 150.781 -48.9746 150.781 -36.4258 L 150.781 -30.0781 L 125.488 -28.2715 C 109.57 -27.0996 101.611 -20.166 101.611 -8.83789 C 101.611 2.34375 110.938 10.1074 124.121 10.1074 Z M 124.023 7.61719 C 112.695 7.61719 104.15 0.732422 104.15 -9.08203 C 104.15 -18.3105 111.23 -24.5117 125.977 -25.6836 L 150.781 -27.6855 L 150.781 -15.8691 C 150.781 -3.27148 138.574 7.61719 124.023 7.61719 Z"/>
  </g>
  <g id="Black-M" transform="matrix(1 0 0 1 2852.54 1126)">
   <path d="M 24.5117 4.3457 C 31.3965 4.3457 35.2539 1.17188 36.9629 -6.00586 L 38.0371 -10.6934 L 61.2305 -10.6934 L 62.3535 -6.00586 C 64.0137 1.17188 67.8711 4.3457 74.7559 4.3457 C 82.4707 4.3457 87.5 -0.292969 87.5 -7.27539 C 87.5 -10.2051 87.1094 -12.5 86.1328 -15.2832 L 71.0938 -60.3027 C 67.8223 -70.1172 61.1328 -74.707 49.9023 -74.707 C 39.4043 -74.707 32.8125 -70.0684 29.4434 -60.3027 L 13.7207 -13.9648 C 12.8906 -11.5234 12.4512 -9.08203 12.4512 -6.93359 C 12.4512 0.0488281 17.0898 4.3457 24.5117 4.3457 Z M 113.379 4.3457 C 120.166 4.3457 126.66 1.07422 129.688 -4.6875 L 130.078 -4.6875 L 130.078 -3.80859 C 130.566 1.70898 134.033 4.29688 139.6 4.29688 C 145.459 4.29688 149.268 1.2207 149.268 -5.17578 L 149.268 -35.6445 C 149.268 -47.0703 139.16 -54.8828 123.389 -54.8828 C 109.814 -54.8828 100.293 -50.5859 97.9004 -43.457 C 97.4609 -42.334 97.3145 -41.4062 97.3145 -40.1367 C 97.3145 -36.1328 100.342 -33.2031 105.322 -33.2031 C 108.691 -33.2031 111.133 -34.4238 113.33 -36.6211 C 116.895 -40.3809 119.043 -41.5039 122.412 -41.5039 C 126.758 -41.5039 129.98 -39.0137 129.98 -34.5215 L 129.98 -31.2988 L 117.236 -30.5176 C 101.953 -29.6387 93.75 -23.6816 93.75 -13.0371 C 93.75 -2.73438 102.246 4.3457 113.379 4.3457 Z M 42.8711 -28.2227 L 49.7559 -54.2969 L 50.1953 -54.2969 L 57.1289 -28.2227 Z M 119.971 -8.59375 C 116.162 -8.59375 113.232 -10.7422 113.232 -14.3066 C 113.232 -17.627 115.967 -19.873 120.215 -20.166 L 129.98 -20.8496 L 129.98 -16.9434 C 129.98 -12.0117 125.586 -8.59375 119.971 -8.59375 Z"/>
  </g>
  <g id="Heavy-M" transform="matrix(1 0 0 1 2558.78 1126)">
   <path d="M 22.6562 3.4668 C 28.5156 3.4668 31.7383 0.830078 33.3008 -5.32227 L 35.5957 -12.9883 L 60.1074 -12.9883 L 62.4023 -5.32227 C 63.9648 0.830078 67.1875 3.4668 73.0469 3.4668 C 79.541 3.4668 83.7402 -0.439453 83.7402 -6.34766 C 83.7402 -8.78906 83.4473 -10.6934 82.6172 -13.0859 L 65.7227 -61.8652 C 62.9395 -70.0684 57.3242 -73.9746 48.0469 -73.9746 C 39.3066 -73.9746 33.7891 -70.0195 30.957 -61.8652 L 13.5254 -12.1094 C 12.8418 -9.96094 12.4512 -7.91016 12.4512 -6.05469 C 12.4512 -0.195312 16.3574 3.4668 22.6562 3.4668 Z M 39.8438 -28.125 L 47.9004 -55.7617 L 48.3398 -55.7617 L 56.3965 -28.125 Z M 109.912 3.56445 C 116.846 3.56445 123.486 0.146484 126.514 -5.76172 L 126.855 -5.76172 L 126.855 -3.56445 C 127.246 1.17188 130.273 3.56445 135.059 3.56445 C 140.088 3.56445 143.359 0.830078 143.359 -4.6875 L 143.359 -35.6445 C 143.359 -46.875 133.838 -54.4922 118.848 -54.4922 C 106.299 -54.4922 97.2168 -50.2441 94.7266 -43.3105 C 94.2871 -42.1387 94.0918 -41.1621 94.0918 -39.9414 C 94.0918 -36.377 96.7773 -33.8379 101.074 -33.8379 C 104.004 -33.8379 106.152 -34.9121 108.008 -36.9141 C 111.377 -41.1133 114.014 -42.5781 118.066 -42.5781 C 123.145 -42.5781 126.709 -39.6973 126.709 -34.6191 L 126.709 -31.1523 L 113.232 -30.4199 C 98.6328 -29.541 90.7715 -23.6328 90.7715 -13.3789 C 90.7715 -3.32031 98.9746 3.56445 109.912 3.56445 Z M 115.381 -7.91016 C 110.938 -7.91016 107.666 -10.4004 107.666 -14.4043 C 107.666 -18.1641 110.693 -20.6543 115.771 -21.0449 L 126.709 -21.7773 L 126.709 -17.5781 C 126.709 -11.9629 121.729 -7.91016 115.381 -7.91016 Z"/>
  </g>
  <g id="Bold-M" transform="matrix(1 0 0 1 2265.34 1126)">
   <path d="M 20.5566 2.49023 C 25.2441 2.49023 27.832 0.390625 29.1504 -4.54102 L 32.8613 -15.5273 L 58.8379 -15.5273 L 62.5488 -4.54102 C 63.8672 0.390625 66.4062 2.49023 71.1426 2.49023 C 76.2695 2.49023 79.5898 -0.585938 79.5898 -5.32227 C 79.5898 -7.22656 79.3457 -8.74023 78.6621 -10.6445 L 59.668 -63.623 C 57.4707 -70.0684 53.125 -73.0957 45.9961 -73.0957 C 39.209 -73.0957 34.9121 -70.0195 32.666 -63.6719 L 13.3301 -9.96094 C 12.7441 -8.20312 12.4512 -6.5918 12.4512 -5.12695 C 12.4512 -0.390625 15.5273 2.49023 20.5566 2.49023 Z M 36.4746 -27.9785 L 45.8496 -57.4219 L 46.1914 -57.4219 L 55.5664 -27.9785 Z M 106.006 2.73438 C 113.184 2.73438 119.922 -0.927734 122.949 -6.98242 L 123.242 -6.98242 L 123.242 -3.32031 C 123.486 0.634766 126.074 2.73438 129.98 2.73438 C 134.082 2.73438 136.816 0.390625 136.816 -4.15039 L 136.816 -35.6445 C 136.816 -46.6797 127.881 -54.0039 113.77 -54.0039 C 102.393 -54.0039 93.7988 -49.8535 91.2109 -43.1152 C 90.7227 -41.9922 90.4785 -40.918 90.4785 -39.7949 C 90.4785 -36.6699 92.7734 -34.5215 96.2891 -34.5215 C 98.7305 -34.5215 100.537 -35.4004 102.051 -37.207 C 105.176 -41.8945 108.35 -43.7988 113.184 -43.7988 C 119.141 -43.7988 123.047 -40.4297 123.047 -34.7656 L 123.047 -31.0547 L 108.789 -30.2246 C 94.9707 -29.4434 87.4512 -23.584 87.4512 -13.7695 C 87.4512 -3.90625 95.2637 2.73438 106.006 2.73438 Z M 110.303 -7.12891 C 105.078 -7.12891 101.416 -10.0098 101.416 -14.502 C 101.416 -18.75 104.834 -21.582 110.791 -21.9727 L 123.047 -22.8027 L 123.047 -18.2617 C 123.047 -11.8652 117.383 -7.12891 110.303 -7.12891 Z"/>
  </g>
  <g id="Semibold-M" transform="matrix(1 0 0 1 1970.9 1126)">
   <path d="M 19.0918 1.80664 C 23.0469 1.80664 25.1465 0.146484 26.3184 -4.00391 L 30.957 -17.2852 L 57.959 -17.2852 L 62.5977 -4.00391 C 63.7695 0.146484 65.8691 1.80664 69.8242 1.80664 C 74.0234 1.80664 76.7578 -0.732422 76.7578 -4.63867 C 76.7578 -6.10352 76.5137 -7.32422 75.9766 -8.93555 L 55.5176 -64.8438 C 53.7109 -70.0195 50.2441 -72.5098 44.5312 -72.5098 C 39.1113 -72.5098 35.6445 -70.0195 33.8379 -64.8926 L 13.2324 -8.49609 C 12.6953 -7.03125 12.4512 -5.71289 12.4512 -4.44336 C 12.4512 -0.585938 14.9902 1.80664 19.0918 1.80664 Z M 34.1309 -27.8809 L 44.3848 -58.5938 L 44.7266 -58.5938 L 54.9805 -27.8809 Z M 103.32 2.14844 C 110.596 2.14844 117.48 -1.66016 120.508 -7.86133 L 120.752 -7.86133 L 120.752 -3.17383 C 120.898 0.244141 123.145 2.19727 126.465 2.19727 C 129.98 2.19727 132.275 0.0976562 132.275 -3.75977 L 132.275 -35.6445 C 132.275 -46.5332 123.73 -53.7109 110.303 -53.7109 C 99.6582 -53.7109 91.4551 -49.5605 88.7695 -43.0176 C 88.2324 -41.8457 87.9883 -40.7715 87.9883 -39.6484 C 87.9883 -36.9141 89.9902 -35.0098 93.0176 -35.0098 C 95.1172 -35.0098 96.6797 -35.791 97.9004 -37.4023 C 100.928 -42.4805 104.443 -44.6289 109.814 -44.6289 C 116.406 -44.6289 120.508 -40.918 120.508 -34.8633 L 120.508 -30.957 L 105.713 -30.127 C 92.4316 -29.3945 85.1074 -23.584 85.1074 -14.0137 C 85.1074 -4.3457 92.7246 2.14844 103.32 2.14844 Z M 106.787 -6.5918 C 101.074 -6.5918 97.0703 -9.76562 97.0703 -14.5508 C 97.0703 -19.1406 100.781 -22.2168 107.373 -22.6074 L 120.508 -23.4863 L 120.508 -18.7012 C 120.508 -11.8164 114.404 -6.5918 106.787 -6.5918 Z"/>
  </g>
  <g id="Medium-M" transform="matrix(1 0 0 1 1675.9 1126)">
   <path d="M 18.0176 1.31836 C 21.3379 1.31836 23.0957 -0.0488281 24.1699 -3.56445 L 29.4922 -18.6035 L 57.3242 -18.6035 L 62.6465 -3.56445 C 63.7207 -0.0488281 65.4785 1.31836 68.7988 1.31836 C 72.3145 1.31836 74.5605 -0.78125 74.5605 -4.05273 C 74.5605 -5.27344 74.3652 -6.29883 73.877 -7.66602 L 52.3926 -65.7715 C 50.8789 -70.0195 48.0469 -72.0215 43.457 -72.0215 C 39.0625 -72.0215 36.2305 -70.0195 34.7656 -65.8203 L 13.1348 -7.37305 C 12.6465 -6.10352 12.4512 -5.0293 12.4512 -3.95508 C 12.4512 -0.683594 14.5508 1.31836 18.0176 1.31836 Z M 32.3242 -27.7832 L 43.3105 -59.4238 L 43.6035 -59.4238 L 54.5898 -27.7832 Z M 101.318 1.70898 C 108.691 1.70898 115.625 -2.24609 118.652 -8.49609 L 118.848 -8.49609 L 118.848 -3.02734 C 118.945 -0.0488281 120.947 1.75781 123.828 1.75781 C 126.807 1.75781 128.857 -0.146484 128.857 -3.4668 L 128.857 -35.6445 C 128.857 -46.4355 120.605 -53.4668 107.617 -53.4668 C 97.6074 -53.4668 89.6484 -49.3652 86.9141 -42.9199 C 86.377 -41.748 86.084 -40.625 86.084 -39.5508 C 86.084 -37.0605 87.9395 -35.4004 90.5273 -35.4004 C 92.3828 -35.4004 93.7988 -36.084 94.8242 -37.5977 C 97.6562 -42.9199 101.465 -45.2637 107.275 -45.2637 C 114.307 -45.2637 118.604 -41.3086 118.604 -34.9121 L 118.604 -30.9082 L 103.369 -30.0293 C 90.4785 -29.3457 83.3984 -23.584 83.3984 -14.209 C 83.3984 -4.6875 90.8203 1.70898 101.318 1.70898 Z M 104.102 -6.20117 C 97.998 -6.20117 93.7988 -9.52148 93.7988 -14.5996 C 93.7988 -19.4336 97.7051 -22.6562 104.785 -23.0957 L 118.604 -24.0234 L 118.604 -19.0918 C 118.604 -11.8164 112.158 -6.20117 104.102 -6.20117 Z"/>
  </g>
  <g id="Regular-M" transform="matrix(1 0 0 1 1381.44 1126)">
   <path d="M 16.5527 0.634766 C 19.1406 0.634766 20.4102 -0.341797 21.3379 -3.02734 L 27.6367 -20.3125 L 56.4453 -20.3125 L 62.7441 -3.02734 C 63.6719 -0.341797 64.9414 0.634766 67.4805 0.634766 C 70.0684 0.634766 71.7285 -0.927734 71.7285 -3.36914 C 71.7285 -4.19922 71.582 -4.93164 71.1914 -6.00586 L 48.291 -66.9434 C 47.168 -69.9707 45.166 -71.4355 42.041 -71.4355 C 39.0137 -71.4355 36.9629 -69.9707 35.8887 -66.9922 L 12.9883 -5.95703 C 12.5977 -4.88281 12.4512 -4.15039 12.4512 -3.32031 C 12.4512 -0.878906 14.0137 0.634766 16.5527 0.634766 Z M 30.0293 -27.6855 L 41.8945 -60.5469 L 42.1387 -60.5469 L 54.0039 -27.6855 Z M 98.6328 1.12305 C 106.152 1.12305 113.184 -2.97852 116.211 -9.32617 L 116.406 -9.32617 L 116.406 -2.88086 C 116.406 -0.439453 118.066 1.17188 120.361 1.17188 C 122.705 1.17188 124.365 -0.439453 124.365 -3.07617 L 124.365 -35.6445 C 124.365 -46.2891 116.553 -53.1738 104.15 -53.1738 C 94.9707 -53.1738 87.3047 -49.1211 84.5215 -42.8223 C 83.9844 -41.6016 83.5938 -40.4297 83.5938 -39.4043 C 83.5938 -37.2559 85.2051 -35.8398 87.3047 -35.8398 C 88.8184 -35.8398 89.9902 -36.4258 90.7227 -37.793 C 93.457 -43.457 97.6074 -46.0938 103.955 -46.0938 C 111.572 -46.0938 116.113 -41.8457 116.113 -35.0098 L 116.113 -30.8105 L 100.342 -29.9316 C 87.9883 -29.248 81.1035 -23.5352 81.1035 -14.4531 C 81.1035 -5.12695 88.2812 1.12305 98.6328 1.12305 Z M 100.635 -5.66406 C 94.043 -5.66406 89.5508 -9.27734 89.5508 -14.6484 C 89.5508 -19.8242 93.7012 -23.291 101.367 -23.7793 L 116.113 -24.707 L 116.113 -19.5312 C 116.113 -11.7676 109.229 -5.66406 100.635 -5.66406 Z"/>
  </g>
  <g id="Light-M" transform="matrix(1 0 0 1 1085.58 1126)">
   <path d="M 15.5762 0.439453 C 17.5293 0.439453 18.457 -0.341797 19.1895 -2.34375 L 26.5625 -22.0215 L 56.8848 -22.0215 L 64.2578 -2.34375 C 64.9902 -0.341797 65.918 0.439453 67.8223 0.439453 C 69.7754 0.439453 71.0449 -0.732422 71.0449 -2.63672 C 71.0449 -3.27148 70.8984 -3.85742 70.6543 -4.63867 L 46.3379 -68.2617 C 45.5078 -70.459 44.043 -71.582 41.748 -71.582 C 39.4531 -71.582 37.9395 -70.459 37.1582 -68.2617 L 12.8418 -4.63867 C 12.5977 -3.80859 12.4512 -3.22266 12.4512 -2.58789 C 12.4512 -0.732422 13.6719 0.439453 15.5762 0.439453 Z M 28.418 -27.6855 L 41.5527 -63.0859 L 41.8457 -63.0859 L 54.9805 -27.6855 Z M 97.9004 0.732422 C 106.055 0.732422 113.574 -3.75977 116.406 -10.498 L 116.504 -10.498 L 116.504 -2.34375 C 116.504 -0.439453 117.773 0.78125 119.58 0.78125 C 121.387 0.78125 122.656 -0.439453 122.656 -2.49023 L 122.656 -35.8398 C 122.656 -46.6309 115.137 -53.5645 102.979 -53.5645 C 93.457 -53.5645 86.1328 -49.3164 83.4473 -42.4316 C 83.0078 -41.3086 82.666 -40.1855 82.666 -39.209 C 82.666 -37.5977 83.8867 -36.4746 85.498 -36.4746 C 86.7676 -36.4746 87.6465 -37.0117 88.2324 -38.1836 C 90.5762 -44.6289 95.4102 -48.0957 102.832 -48.0957 C 111.328 -48.0957 116.309 -43.1152 116.309 -35.3516 L 116.309 -30.957 L 99.4141 -29.8828 C 87.0117 -29.1504 80.3711 -23.5352 80.3711 -14.5508 C 80.3711 -5.41992 87.5488 0.732422 97.9004 0.732422 Z M 99.2188 -4.54102 C 91.9434 -4.54102 86.8164 -8.69141 86.8164 -14.7461 C 86.8164 -20.5566 91.3574 -24.4141 100.195 -25 L 116.309 -26.1719 L 116.309 -19.7754 C 116.309 -11.377 108.643 -4.54102 99.2188 -4.54102 Z"/>
  </g>
  <g id="Thin-M" transform="matrix(1 0 0 1 789.992 1126)">
   <path d="M 14.3066 0.146484 C 15.3809 0.146484 15.918 -0.292969 16.3574 -1.46484 L 25.0977 -24.2676 L 57.4707 -24.2676 L 66.2109 -1.46484 C 66.6992 -0.292969 67.1875 0.146484 68.2617 0.146484 C 69.3848 0.146484 70.166 -0.537109 70.166 -1.61133 C 70.166 -2.00195 70.0684 -2.39258 69.873 -2.88086 L 43.7988 -69.9219 C 43.3594 -71.0449 42.627 -71.7773 41.3086 -71.7773 C 40.0391 -71.7773 39.209 -71.0938 38.7695 -69.9219 L 12.6953 -2.88086 C 12.5488 -2.39258 12.4512 -2.00195 12.4512 -1.61133 C 12.4512 -0.537109 13.1836 0.146484 14.3066 0.146484 Z M 26.2695 -27.6855 L 41.1621 -66.4062 L 41.4062 -66.4062 L 56.2988 -27.6855 Z M 96.875 0.244141 C 105.957 0.244141 114.014 -4.73633 116.602 -12.0605 L 116.699 -12.0605 L 116.699 -1.66016 C 116.699 -0.488281 117.432 0.244141 118.506 0.244141 C 119.629 0.244141 120.41 -0.488281 120.41 -1.70898 L 120.41 -36.084 C 120.41 -47.0703 113.232 -54.1016 101.416 -54.1016 C 91.5039 -54.1016 84.5703 -49.5605 82.0312 -41.9922 C 81.7383 -40.918 81.3965 -39.7949 81.3965 -38.9648 C 81.3965 -37.9883 82.1777 -37.3535 83.1543 -37.3535 C 84.082 -37.3535 84.6191 -37.8418 84.8633 -38.6719 C 86.7676 -46.1914 92.4805 -50.7324 101.318 -50.7324 C 110.986 -50.7324 116.65 -44.7754 116.65 -35.8398 L 116.65 -31.1035 L 98.1445 -29.8828 C 85.791 -29.0039 79.3945 -23.5352 79.3945 -14.6973 C 79.3945 -5.81055 86.6211 0.244141 96.875 0.244141 Z M 97.4121 -3.07617 C 89.209 -3.07617 83.2031 -7.91016 83.2031 -14.8926 C 83.2031 -21.4844 88.3301 -25.8789 98.6816 -26.709 L 116.65 -28.0762 L 116.65 -20.0684 C 116.65 -10.8398 107.91 -3.07617 97.4121 -3.07617 Z"/>
  </g>
  <g id="Ultralight-M" transform="matrix(1 0 0 1 493.866 1126)">
   <path d="M 13.623 0 C 14.3066 0 14.5996 -0.292969 14.8926 -1.02539 L 24.3652 -25.4395 L 57.7637 -25.4395 L 67.2363 -1.02539 C 67.5781 -0.292969 67.8711 0 68.5059 0 C 69.1895 0 69.6777 -0.390625 69.6777 -1.12305 C 69.6777 -1.36719 69.6289 -1.66016 69.5312 -1.95312 L 42.5293 -70.8008 C 42.2852 -71.3867 41.8945 -71.875 41.1133 -71.875 C 40.332 -71.875 39.8438 -71.4355 39.6484 -70.8008 L 12.6465 -1.95312 C 12.5 -1.66016 12.4512 -1.36719 12.4512 -1.12305 C 12.4512 -0.390625 12.9395 0 13.623 0 Z M 25.1953 -27.6367 L 40.9668 -68.1152 L 41.1621 -68.1152 L 56.9336 -27.6367 Z M 96.3379 0 C 105.859 0 114.258 -5.27344 116.748 -12.8906 L 116.797 -12.8906 L 116.797 -1.31836 C 116.797 -0.488281 117.285 0 117.969 0 C 118.701 0 119.238 -0.488281 119.238 -1.31836 L 119.238 -36.1816 C 119.238 -47.3145 112.256 -54.3457 100.635 -54.3457 C 90.5273 -54.3457 83.7402 -49.6582 81.3477 -41.6992 C 81.1035 -40.7227 80.7617 -39.5996 80.7617 -38.8672 C 80.7617 -38.1836 81.2988 -37.793 81.9824 -37.793 C 82.7148 -37.793 83.0566 -38.2324 83.1543 -38.916 C 84.8145 -46.9727 90.9668 -52.0508 100.586 -52.0508 C 110.791 -52.0508 116.797 -45.6055 116.797 -36.084 L 116.797 -31.2012 L 97.4609 -29.834 C 85.1074 -28.9551 78.9062 -23.5352 78.9062 -14.7461 C 78.9062 -6.05469 86.1328 0 96.3379 0 Z M 96.4355 -2.29492 C 87.793 -2.29492 81.3477 -7.4707 81.3477 -14.9414 C 81.3477 -21.9727 86.7188 -26.6602 97.9004 -27.5391 L 116.797 -29.0527 L 116.797 -20.166 C 116.797 -10.5469 107.52 -2.29492 96.4355 -2.29492 Z"/>
  </g>
  <g id="Black-S" transform="matrix(1 0 0 1 2870.27 696)">
   <path d="M 19.0918 -4.29688 C 24.4141 -4.29688 27.3926 -6.73828 28.7109 -12.3047 L 29.6387 -16.1621 L 47.9004 -16.1621 L 48.8281 -12.3047 C 50.1465 -6.73828 53.125 -4.29688 58.4473 -4.29688 C 64.4043 -4.29688 68.2617 -7.86133 68.2617 -13.2812 C 68.2617 -15.5273 67.9688 -17.2852 67.2363 -19.4336 L 55.3223 -54.9805 C 52.7832 -62.5488 47.6074 -66.1133 38.9648 -66.1133 C 30.8594 -66.1133 25.7812 -62.5 23.1934 -54.9805 L 10.7422 -18.457 C 10.1074 -16.5527 9.76562 -14.6484 9.76562 -12.9883 C 9.76562 -7.61719 13.3301 -4.29688 19.0918 -4.29688 Z M 88.5742 -4.29688 C 93.8965 -4.29688 98.9746 -6.83594 101.367 -11.377 L 101.66 -11.377 L 101.66 -10.5957 C 102.051 -6.34766 104.736 -4.29688 109.033 -4.29688 C 113.574 -4.29688 116.504 -6.68945 116.504 -11.6699 L 116.504 -35.5469 C 116.504 -44.4824 108.643 -50.5859 96.3379 -50.5859 C 85.791 -50.5859 78.3691 -47.2168 76.4648 -41.6504 C 76.123 -40.7715 76.0254 -40.0391 76.0254 -39.0625 C 76.0254 -35.9375 78.3691 -33.6914 82.2266 -33.6914 C 84.8145 -33.6914 86.7188 -34.6191 88.4277 -36.3281 C 91.2109 -39.3066 92.9199 -40.1855 95.6055 -40.1855 C 99.0234 -40.1855 101.562 -38.2324 101.562 -34.668 L 101.562 -32.1289 L 91.5527 -31.543 C 79.6387 -30.8594 73.2422 -26.1719 73.2422 -17.8711 C 73.2422 -9.81445 79.8828 -4.29688 88.5742 -4.29688 Z M 33.3984 -29.7363 L 38.8672 -50.2441 L 39.209 -50.2441 L 44.6777 -29.7363 Z M 93.6523 -14.3066 C 90.625 -14.3066 88.3301 -16.0156 88.3301 -18.8477 C 88.3301 -21.4844 90.4785 -23.2422 93.8477 -23.4863 L 101.562 -24.0234 L 101.562 -20.9473 C 101.562 -17.041 98.0957 -14.3066 93.6523 -14.3066 Z"/>
  </g>
  <g id="Heavy-S" transform="matrix(1 0 0 1 2575.7 696)">
   <path d="M 17.7734 -4.93164 C 22.3633 -4.93164 24.9023 -7.03125 26.123 -11.8652 L 27.8809 -17.7246 L 46.9727 -17.7246 L 48.7305 -11.8652 C 49.9512 -7.03125 52.4902 -4.93164 57.0801 -4.93164 C 62.207 -4.93164 65.4785 -8.00781 65.4785 -12.6465 C 65.4785 -14.5508 65.2344 -16.0645 64.5996 -17.9199 L 51.416 -56.0547 C 49.2188 -62.4512 44.8242 -65.5273 37.5977 -65.5273 C 30.7617 -65.5273 26.416 -62.4512 24.2188 -56.0547 L 10.6445 -17.1387 C 10.0586 -15.4785 9.76562 -13.8672 9.76562 -12.4023 C 9.76562 -7.8125 12.8418 -4.93164 17.7734 -4.93164 Z M 31.25 -29.6387 L 37.4512 -51.0742 L 37.793 -51.0742 L 43.9941 -29.6387 Z M 85.9863 -4.83398 C 91.3574 -4.83398 96.5332 -7.4707 98.9258 -12.0605 L 99.1699 -12.0605 L 99.1699 -10.498 C 99.4629 -6.73828 101.904 -4.83398 105.664 -4.83398 C 109.619 -4.83398 112.207 -6.98242 112.207 -11.3281 L 112.207 -35.5469 C 112.207 -44.2871 104.736 -50.2441 93.0176 -50.2441 C 83.252 -50.2441 76.1719 -46.9238 74.1699 -41.6016 C 73.7793 -40.6738 73.6328 -39.8926 73.6328 -38.9648 C 73.6328 -36.1328 75.7812 -34.082 79.1504 -34.082 C 81.4453 -34.082 83.1543 -34.9121 84.6191 -36.5234 C 87.3047 -39.7461 89.3066 -40.8203 92.3828 -40.8203 C 96.3379 -40.8203 99.0234 -38.623 99.0234 -34.7168 L 99.0234 -32.0312 L 88.623 -31.4453 C 77.1973 -30.8105 71.0449 -26.1719 71.0449 -18.1152 C 71.0449 -10.2051 77.4414 -4.83398 85.9863 -4.83398 Z M 90.332 -13.916 C 86.8652 -13.916 84.375 -15.8203 84.375 -18.8965 C 84.375 -21.7773 86.7188 -23.7305 90.5762 -23.9746 L 99.0234 -24.5605 L 99.0234 -21.3867 C 99.0234 -17.041 95.2148 -13.916 90.332 -13.916 Z"/>
  </g>
  <g id="Bold-S" transform="matrix(1 0 0 1 2281.41 696)">
   <path d="M 16.2598 -5.66406 C 20.0684 -5.66406 22.168 -7.32422 23.2422 -11.3281 L 25.9277 -19.4336 L 45.9473 -19.4336 L 48.6328 -11.3281 C 49.707 -7.32422 51.8066 -5.66406 55.6152 -5.66406 C 59.7168 -5.66406 62.4023 -8.1543 62.4023 -11.9629 C 62.4023 -13.4766 62.1582 -14.6484 61.6699 -16.2109 L 47.0215 -57.2266 C 45.2637 -62.4023 41.748 -64.8438 36.0352 -64.8438 C 30.6152 -64.8438 27.1484 -62.3535 25.3418 -57.2754 L 10.498 -15.6738 C 10.0098 -14.2578 9.76562 -12.9883 9.76562 -11.7676 C 9.76562 -8.00781 12.2559 -5.66406 16.2598 -5.66406 Z M 28.8574 -29.541 L 35.9375 -52.0508 L 36.1816 -52.0508 L 43.2617 -29.541 Z M 83.1055 -5.41992 C 88.5742 -5.41992 93.75 -8.20312 96.1914 -12.8418 L 96.3867 -12.8418 L 96.3867 -10.3516 C 96.582 -7.17773 98.6816 -5.41992 101.855 -5.41992 C 105.176 -5.41992 107.373 -7.32422 107.373 -10.9863 L 107.373 -35.498 C 107.373 -44.1406 100.342 -49.8535 89.2578 -49.8535 C 80.4688 -49.8535 73.6816 -46.6309 71.582 -41.5039 C 71.1914 -40.5762 70.9961 -39.7461 70.9961 -38.8184 C 70.9961 -36.3281 72.8516 -34.5703 75.7324 -34.5703 C 77.6855 -34.5703 79.1504 -35.2539 80.3711 -36.7188 C 82.9102 -40.1855 85.2539 -41.5039 88.8184 -41.5039 C 93.3105 -41.5039 96.1914 -39.0137 96.1914 -34.7656 L 96.1914 -31.9336 L 85.3027 -31.2988 C 74.5117 -30.7129 68.5547 -26.123 68.5547 -18.4082 C 68.5547 -10.6445 74.707 -5.41992 83.1055 -5.41992 Z M 86.5723 -13.4766 C 82.666 -13.4766 79.9316 -15.625 79.9316 -18.9453 C 79.9316 -22.168 82.5195 -24.2676 86.9141 -24.5605 L 96.1914 -25.1465 L 96.1914 -21.875 C 96.1914 -17.041 91.9922 -13.4766 86.5723 -13.4766 Z"/>
  </g>
  <g id="Semibold-S" transform="matrix(1 0 0 1 1986.36 696)">
   <path d="M 15.2344 -6.15234 C 18.5059 -6.15234 20.2637 -7.51953 21.2402 -10.9863 L 24.5605 -20.6543 L 45.2637 -20.6543 L 48.5352 -10.9863 C 49.5605 -7.51953 51.3184 -6.15234 54.541 -6.15234 C 58.0078 -6.15234 60.2539 -8.25195 60.2539 -11.4746 C 60.2539 -12.6953 60.0586 -13.7207 59.6191 -15.0391 L 44.043 -58.0566 C 42.5293 -62.3535 39.6484 -64.3555 34.9609 -64.3555 C 30.5176 -64.3555 27.6367 -62.3047 26.1719 -58.0566 L 10.4004 -14.6973 C 9.96094 -13.4277 9.76562 -12.4023 9.76562 -11.3281 C 9.76562 -8.1543 11.8652 -6.15234 15.2344 -6.15234 Z M 27.1973 -29.4922 L 34.8633 -52.6855 L 35.1074 -52.6855 L 42.7734 -29.4922 Z M 81.1523 -5.85938 C 86.6211 -5.85938 91.8457 -8.69141 94.2871 -13.3789 L 94.4824 -13.3789 L 94.4824 -10.2539 C 94.6289 -7.4707 96.4844 -5.81055 99.2676 -5.81055 C 102.148 -5.81055 104.053 -7.56836 104.053 -10.7422 L 104.053 -35.498 C 104.053 -43.9941 97.3145 -49.5605 86.6699 -49.5605 C 78.5156 -49.5605 71.9727 -46.3867 69.8242 -41.4551 C 69.3848 -40.5273 69.1895 -39.6484 69.1895 -38.7207 C 69.1895 -36.4258 70.8496 -34.8633 73.3887 -34.8633 C 75.0977 -34.8633 76.416 -35.498 77.4414 -36.8164 C 79.8828 -40.5273 82.4219 -41.9434 86.3281 -41.9434 C 91.2109 -41.9434 94.2383 -39.3066 94.2383 -34.8145 L 94.2383 -31.8359 L 83.0566 -31.25 C 72.6562 -30.6641 66.8945 -26.123 66.8945 -18.6035 C 66.8945 -10.9375 72.8027 -5.85938 81.1523 -5.85938 Z M 84.0332 -13.1348 C 79.7363 -13.1348 76.8555 -15.4297 76.8555 -18.9941 C 76.8555 -22.4121 79.5898 -24.6582 84.4238 -24.9512 L 94.2383 -25.5859 L 94.2383 -22.2168 C 94.2383 -17.041 89.7461 -13.1348 84.0332 -13.1348 Z"/>
  </g>
  <g id="Medium-S" transform="matrix(1 0 0 1 1690.89 696)">
   <path d="M 14.502 -6.54297 C 17.334 -6.54297 18.7988 -7.71484 19.7266 -10.6934 L 23.5352 -21.5332 L 44.7266 -21.5332 L 48.4863 -10.6934 C 49.4141 -7.71484 50.9277 -6.54297 53.7598 -6.54297 C 56.7383 -6.54297 58.6426 -8.30078 58.6426 -11.084 C 58.6426 -12.1094 58.4961 -12.9883 58.0566 -14.1602 L 41.748 -58.6426 C 40.4297 -62.3047 38.0371 -64.0137 34.1797 -64.0137 C 30.4199 -64.0137 28.0273 -62.3047 26.7578 -58.6914 L 10.3027 -13.916 C 9.96094 -12.793 9.76562 -11.9141 9.76562 -11.0352 C 9.76562 -8.25195 11.5723 -6.54297 14.502 -6.54297 Z M 25.9277 -29.3945 L 34.0332 -53.2227 L 34.2773 -53.2227 L 42.3828 -29.3945 Z M 79.6387 -6.15234 C 85.1562 -6.15234 90.4297 -9.08203 92.8711 -13.8184 L 93.0176 -13.8184 L 93.0176 -10.2051 C 93.1152 -7.66602 94.8242 -6.10352 97.2656 -6.10352 C 99.8535 -6.10352 101.562 -7.71484 101.562 -10.5469 L 101.562 -35.498 C 101.562 -43.8965 95.0195 -49.3652 84.7168 -49.3652 C 77.0508 -49.3652 70.7031 -46.2402 68.5059 -41.4062 C 68.0176 -40.4297 67.7734 -39.5508 67.7734 -38.6719 C 67.7734 -36.5234 69.3359 -35.1074 71.582 -35.1074 C 73.1445 -35.1074 74.3164 -35.6445 75.1953 -36.9141 C 77.5879 -40.7715 80.3223 -42.334 84.4727 -42.334 C 89.5996 -42.334 92.7734 -39.502 92.7734 -34.8145 L 92.7734 -31.7871 L 81.3477 -31.2012 C 71.2402 -30.6641 65.5762 -26.0742 65.5762 -18.7012 C 65.5762 -11.1816 71.3867 -6.15234 79.6387 -6.15234 Z M 82.0801 -12.9395 C 77.5391 -12.9395 74.5117 -15.332 74.5117 -19.043 C 74.5117 -22.5586 77.3926 -24.9512 82.4707 -25.2441 L 92.7734 -25.8789 L 92.7734 -22.5098 C 92.7734 -17.041 88.0371 -12.9395 82.0801 -12.9395 Z"/>
  </g>
  <g id="Regular-S" transform="matrix(1 0 0 1 1395.82 696)">
   <path d="M 13.4766 -7.03125 C 15.7715 -7.03125 16.9434 -7.91016 17.7734 -10.3516 L 22.2168 -22.7051 L 43.9941 -22.7051 L 48.4375 -10.3516 C 49.2676 -7.91016 50.4395 -7.03125 52.7344 -7.03125 C 55.0293 -7.03125 56.543 -8.39844 56.543 -10.6445 C 56.543 -11.377 56.3965 -12.0605 56.0547 -12.9883 L 38.7695 -59.4727 C 37.7441 -62.207 35.9375 -63.5254 33.1055 -63.5254 C 30.3223 -63.5254 28.5156 -62.2559 27.5391 -59.5215 L 10.2539 -12.9395 C 9.91211 -12.0117 9.76562 -11.3281 9.76562 -10.5957 C 9.76562 -8.39844 11.1816 -7.03125 13.4766 -7.03125 Z M 24.3164 -29.3457 L 32.959 -53.8574 L 33.2031 -53.8574 L 41.8457 -29.3457 Z M 77.6855 -6.54297 C 83.252 -6.54297 88.5254 -9.57031 91.0156 -14.3555 L 91.1133 -14.3555 L 91.1133 -10.1074 C 91.1133 -7.95898 92.627 -6.49414 94.6777 -6.49414 C 96.8262 -6.49414 98.291 -7.95898 98.291 -10.3027 L 98.291 -35.498 C 98.291 -43.75 91.9922 -49.0723 82.1777 -49.0723 C 75.0977 -49.0723 68.9941 -46.0449 66.748 -41.3574 C 66.2598 -40.3809 65.9668 -39.4531 65.9668 -38.5742 C 65.9668 -36.6699 67.3828 -35.4004 69.2383 -35.4004 C 70.6055 -35.4004 71.6309 -35.8887 72.3145 -37.0605 C 74.6094 -41.1133 77.5391 -42.7734 81.9824 -42.7734 C 87.5488 -42.7734 90.8691 -39.7949 90.8691 -34.8633 L 90.8691 -31.6895 L 79.1016 -31.1035 C 69.3848 -30.6152 63.916 -26.0742 63.916 -18.8965 C 63.916 -11.4746 69.5312 -6.54297 77.6855 -6.54297 Z M 79.541 -12.5977 C 74.6582 -12.5977 71.4844 -15.1855 71.4844 -19.043 C 71.4844 -22.8027 74.5605 -25.3418 79.9805 -25.6348 L 90.8691 -26.3184 L 90.8691 -22.8516 C 90.8691 -17.041 85.8398 -12.5977 79.541 -12.5977 Z"/>
  </g>
  <g id="Light-S" transform="matrix(1 0 0 1 1099.86 696)">
   <path d="M 12.5977 -7.22656 C 14.3555 -7.22656 15.2344 -7.91016 15.8691 -9.76562 L 21.2402 -24.2188 L 44.4336 -24.2188 L 49.7559 -9.76562 C 50.4395 -7.91016 51.2695 -7.22656 53.0273 -7.22656 C 54.7852 -7.22656 55.957 -8.25195 55.957 -9.96094 C 55.957 -10.5469 55.8105 -11.084 55.5664 -11.7676 L 37.0605 -60.5957 C 36.2793 -62.6465 34.9609 -63.6719 32.8125 -63.6719 C 30.7617 -63.6719 29.3457 -62.6465 28.6133 -60.6445 L 10.1562 -11.7676 C 9.86328 -11.0352 9.76562 -10.498 9.76562 -9.91211 C 9.76562 -8.25195 10.8398 -7.22656 12.5977 -7.22656 Z M 22.9004 -29.3457 L 32.7148 -56.1035 L 32.9102 -56.1035 L 42.7246 -29.3457 Z M 77.002 -6.88477 C 83.1543 -6.88477 88.8184 -10.2539 91.1621 -15.3809 L 91.2598 -15.3809 L 91.2598 -9.66797 C 91.2598 -7.95898 92.3828 -6.83594 93.9941 -6.83594 C 95.6055 -6.83594 96.7773 -7.95898 96.7773 -9.81445 L 96.7773 -35.6445 C 96.7773 -44.043 90.7715 -49.4141 81.1523 -49.4141 C 73.8281 -49.4141 67.9688 -46.1914 65.7715 -41.0156 C 65.4297 -40.1367 65.1367 -39.209 65.1367 -38.4277 C 65.1367 -36.9629 66.2109 -35.9863 67.6758 -35.9863 C 68.7988 -35.9863 69.5801 -36.4258 70.0684 -37.4023 C 72.0703 -42.1387 75.5859 -44.5312 81.0059 -44.5312 C 87.3047 -44.5312 91.0645 -40.918 91.0645 -35.2051 L 91.0645 -31.8359 L 78.2715 -31.0547 C 68.5547 -30.5176 63.2324 -26.0742 63.2324 -18.9941 C 63.2324 -11.7676 68.8965 -6.88477 77.002 -6.88477 Z M 78.2715 -11.6211 C 72.8516 -11.6211 69.0918 -14.6484 69.0918 -19.1406 C 69.0918 -23.4375 72.5098 -26.3184 78.9551 -26.7578 L 91.0645 -27.5879 L 91.0645 -23.0469 C 91.0645 -16.6992 85.3516 -11.6211 78.2715 -11.6211 Z"/>
  </g>
  <g id="Thin-S" transform="matrix(1 0 0 1 804.152 696)">
   <path d="M 11.4746 -7.4707 C 12.4512 -7.4707 12.9395 -7.86133 13.3789 -8.93555 L 19.9707 -26.2207 L 44.9219 -26.2207 L 51.5137 -8.93555 C 51.9043 -7.86133 52.3926 -7.4707 53.418 -7.4707 C 54.4434 -7.4707 55.127 -8.10547 55.127 -9.08203 C 55.127 -9.42383 55.0781 -9.81445 54.9316 -10.2051 L 34.8145 -62.1094 C 34.4238 -63.1836 33.6914 -63.8184 32.4707 -63.8184 C 31.25 -63.8184 30.4688 -63.2324 30.0781 -62.1094 L 10.0098 -10.2051 C 9.86328 -9.76562 9.76562 -9.42383 9.76562 -9.08203 C 9.76562 -8.05664 10.4492 -7.4707 11.4746 -7.4707 Z M 20.9961 -29.2969 L 32.373 -59.0332 L 32.5195 -59.0332 L 43.8477 -29.2969 Z M 76.123 -7.32422 C 83.0566 -7.32422 89.2578 -11.1328 91.3086 -16.7969 L 91.4062 -16.7969 L 91.4062 -9.08203 C 91.4062 -8.00781 92.0898 -7.32422 93.0664 -7.32422 C 94.043 -7.32422 94.7754 -8.00781 94.7754 -9.13086 L 94.7754 -35.8398 C 94.7754 -44.4336 89.1113 -49.9023 79.7852 -49.9023 C 72.0703 -49.9023 66.5527 -46.3867 64.5508 -40.625 C 64.3066 -39.7949 64.0137 -38.8672 64.0137 -38.2324 C 64.0137 -37.3047 64.7461 -36.7188 65.625 -36.7188 C 66.4062 -36.7188 66.8945 -37.1094 67.1387 -37.793 C 68.7012 -43.5059 72.998 -46.875 79.6875 -46.875 C 87.0117 -46.875 91.3086 -42.3828 91.3086 -35.5957 L 91.3086 -31.9824 L 77.1484 -31.0547 C 67.4316 -30.4199 62.4023 -26.0742 62.4023 -19.0918 C 62.4023 -12.1094 68.0664 -7.32422 76.123 -7.32422 Z M 76.6602 -10.3027 C 70.4102 -10.3027 65.8691 -13.9648 65.8691 -19.2383 C 65.8691 -24.2676 69.7754 -27.6367 77.6367 -28.2227 L 91.3086 -29.248 L 91.3086 -23.291 C 91.3086 -16.2109 84.7168 -10.3027 76.6602 -10.3027 Z"/>
  </g>
  <g id="Ultralight-S" transform="matrix(1 0 0 1 507.953 696)">
   <path d="M 10.8887 -7.56836 C 11.5234 -7.56836 11.7676 -7.86133 12.0605 -8.54492 L 19.2871 -27.2461 L 45.2148 -27.2461 L 52.4414 -8.54492 C 52.6855 -7.86133 52.9785 -7.56836 53.6133 -7.56836 C 54.2969 -7.56836 54.7363 -7.95898 54.7363 -8.64258 C 54.7363 -8.88672 54.6875 -9.13086 54.5898 -9.42383 L 33.6426 -62.8418 C 33.4473 -63.4766 33.0078 -63.916 32.2754 -63.916 C 31.543 -63.916 31.0547 -63.5254 30.8105 -62.8418 L 9.91211 -9.42383 C 9.81445 -9.13086 9.76562 -8.88672 9.76562 -8.64258 C 9.76562 -7.95898 10.2051 -7.56836 10.8887 -7.56836 Z M 20.0684 -29.2969 L 32.1777 -60.5469 L 32.3242 -60.5469 L 44.4336 -29.2969 Z M 75.6348 -7.56836 C 82.959 -7.56836 89.4531 -11.6211 91.4551 -17.5293 L 91.5039 -17.5293 L 91.5039 -8.74023 C 91.5039 -8.00781 91.9434 -7.56836 92.5781 -7.56836 C 93.2617 -7.56836 93.75 -8.00781 93.75 -8.78906 L 93.75 -35.9375 C 93.75 -44.6289 88.2324 -50.1465 79.0527 -50.1465 C 71.1914 -50.1465 65.8203 -46.4844 63.916 -40.3809 C 63.7207 -39.5996 63.4766 -38.7207 63.4766 -38.1348 C 63.4766 -37.5 63.9648 -37.1094 64.5508 -37.1094 C 65.1855 -37.1094 65.4785 -37.4512 65.625 -38.0371 C 66.9922 -44.2383 71.6797 -48.0469 79.0039 -48.0469 C 86.8652 -48.0469 91.4551 -43.1152 91.4551 -35.8398 L 91.4551 -32.0801 L 76.5625 -31.0059 C 66.8945 -30.3223 61.9629 -26.0742 61.9629 -19.1895 C 61.9629 -12.3047 67.627 -7.56836 75.6348 -7.56836 Z M 75.8301 -9.61914 C 69.1895 -9.61914 64.2578 -13.623 64.2578 -19.3359 C 64.2578 -24.707 68.4082 -28.3203 76.9043 -28.9551 L 91.4551 -30.127 L 91.4551 -23.3887 C 91.4551 -15.9668 84.375 -9.61914 75.8301 -9.61914 Z"/>
  </g>
 </g>
</svg>
